<?xml version="1.0" encoding="UTF-8"?>
<svg id="Ebene_1" xmlns="http://www.w3.org/2000/svg" version="1.1" viewBox="0 0 310.2 176.2">
  <!-- Generator: Adobe Illustrator 30.0.0, SVG Export Plug-In . SVG Version: 2.1.1 Build 123)  -->
  <defs>
    <style>
      .st0 {
        fill: #010101;
      }

      .st1 {
        stroke-dasharray: .6 1.7;
      }

      .st1, .st2, .st3, .st4 {
        fill: none;
        stroke: #000;
      }

      .st1, .st2, .st3, .st4, .st5 {
        stroke-miterlimit: 10;
      }

      .st1, .st3 {
        stroke-width: .3px;
      }

      .st6, .st5 {
        fill: #fff;
      }

      .st2 {
        stroke-width: .3px;
      }

      .st4 {
        opacity: 0;
        stroke-width: 0px;
      }

      .st5 {
        stroke: #221f20;
      }
    </style>
  </defs>
  <rect class="st5" x="-45.4" y="-42.4" width="481.6" height="305.5"/>
  <rect class="st3" x="2.2" y="2.8" width="305.4" height="171.6"/>
  <rect class="st3" x="222" y="2.8" width="85.6" height="10"/>
  <line class="st3" x1="37.7" y1="37.4" x2="87.1" y2="37.4"/>
  <line class="st3" x1="87.1" y1="37.4" x2="102.1" y2="52.2"/>
  <line class="st3" x1="102.1" y1="52.2" x2="146.4" y2="52.2"/>
  <line class="st3" x1="160.2" y1="37.6" x2="146.4" y2="52.2"/>
  <line class="st3" x1="160.2" y1="37.6" x2="214" y2="37.6"/>
  <line class="st3" x1="214" y1="37.6" x2="227.4" y2="52.4"/>
  <line class="st3" x1="227.4" y1="52.4" x2="271.3" y2="52.4"/>
  <line class="st3" x1="37.9" y1="111.6" x2="272.1" y2="111.6"/>
  <line class="st3" x1="37.8" y1="114" x2="272.1" y2="114"/>
  <line class="st3" x1="38" y1="116.3" x2="272" y2="116.3"/>
  <line class="st3" x1="37.7" y1="119.3" x2="272" y2="119.3"/>
  <line class="st3" x1="37.6" y1="121.7" x2="271.9" y2="121.7"/>
  <line class="st3" x1="37.9" y1="124" x2="272.2" y2="124"/>
  <line class="st3" x1="38" y1="126.6" x2="272.3" y2="126.6"/>
  <line class="st3" x1="37.9" y1="129" x2="272.2" y2="129"/>
  <line class="st3" x1="38.1" y1="131.4" x2="272.1" y2="131.4"/>
  <line class="st3" x1="38" y1="134.3" x2="272.1" y2="134.3"/>
  <line class="st3" x1="38" y1="136.7" x2="272" y2="136.7"/>
  <line class="st3" x1="38" y1="139.1" x2="272" y2="139.1"/>
  <line class="st3" x1="37.9" y1="150.4" x2="272.2" y2="150.4"/>
  <line class="st3" x1="37.8" y1="152.7" x2="272.2" y2="152.7"/>
  <line class="st3" x1="37.7" y1="155.2" x2="272.3" y2="155.1"/>
  <line class="st3" x1="37.7" y1="158.1" x2="272.1" y2="158.1"/>
  <line class="st3" x1="37.7" y1="160.5" x2="272" y2="160.5"/>
  <line class="st3" x1="37.9" y1="162.7" x2="272.2" y2="162.8"/>
  <line class="st3" x1="37.7" y1="165.2" x2="272.3" y2="165.4"/>
  <line class="st3" x1="37.9" y1="167.8" x2="272.2" y2="167.8"/>
  <line class="st3" x1="37.9" y1="86.3" x2="67" y2="86.3"/>
  <line class="st3" x1="67" y1="86.3" x2="82" y2="101.1"/>
  <line class="st3" x1="82" y1="101.1" x2="185" y2="101.1"/>
  <line class="st3" x1="198.8" y1="86.5" x2="185" y2="101.1"/>
  <line class="st3" x1="198.8" y1="86.5" x2="214.1" y2="86.5"/>
  <line class="st3" x1="214.1" y1="86.5" x2="227.5" y2="101.3"/>
  <line class="st3" x1="227.5" y1="101.3" x2="271.4" y2="101.3"/>
  <line class="st3" x1="227.9" y1="76.4" x2="272.1" y2="76.4"/>
  <line class="st3" x1="214.5" y1="61.6" x2="227.9" y2="76.4"/>
  <line class="st3" x1="37.9" y1="61.6" x2="214.5" y2="61.6"/>
  <rect class="st6" x="124.2" y="150.3" width="76.2" height="17.5"/>
  <rect class="st3" x="124.2" y="150.3" width="76.2" height="17.5"/>
  <line class="st3" x1="274.6" y1="151.9" x2="274.6" y2="166.3"/>
  <g>
    <polygon class="st0" points="272.5 163.4 274.6 167.8 276.7 163.4 272.5 163.4"/>
    <polygon class="st4" points="272.5 163.4 274.6 167.8 276.7 163.4 272.5 163.4"/>
  </g>
  <g>
    <polygon class="st0" points="276.7 154.8 274.6 150.4 272.5 154.8 276.7 154.8"/>
    <polygon class="st4" points="276.7 154.8 274.6 150.4 272.5 154.8 276.7 154.8"/>
  </g>
  <line class="st3" x1="274" y1="113.1" x2="273.9" y2="137.6"/>
  <g>
    <polygon class="st0" points="271.8 134.6 273.9 139.1 276 134.7 271.8 134.6"/>
    <polygon class="st4" points="271.8 134.6 273.9 139.1 276 134.7 271.8 134.6"/>
  </g>
  <g>
    <polygon class="st0" points="276.1 116 274 111.6 271.9 116 276.1 116"/>
    <polygon class="st4" points="276.1 116 274 111.6 271.9 116 276.1 116"/>
  </g>
  <line class="st1" x1="124.1" y1="11.3" x2="124.1" y2="173.2"/>
  <line class="st1" x1="152.5" y1="21.3" x2="152.6" y2="174.4"/>
  <line class="st3" x1="56.9" y1="27.1" x2="92.9" y2="27.1"/>
  <g>
    <polygon class="st0" points="90 29.2 94.4 27.1 90 25 90 29.2"/>
    <polygon class="st4" points="90 29.2 94.4 27.1 90 25 90 29.2"/>
  </g>
  <g>
    <polygon class="st0" points="59.8 25 55.4 27.1 59.8 29.2 59.8 25"/>
    <polygon class="st4" points="59.8 25 55.4 27.1 59.8 29.2 59.8 25"/>
  </g>
  <line class="st3" x1="96.2" y1="40.7" x2="150.6" y2="40.7"/>
  <g>
    <polygon class="st0" points="147.7 42.8 152.1 40.7 147.7 38.5 147.7 42.8"/>
    <polygon class="st4" points="147.7 42.8 152.1 40.7 147.7 38.5 147.7 42.8"/>
  </g>
  <g>
    <polygon class="st0" points="99.1 38.5 94.7 40.7 99.1 42.8 99.1 38.5"/>
    <polygon class="st4" points="99.1 38.5 94.7 40.7 99.1 42.8 99.1 38.5"/>
  </g>
  <line class="st1" x1="55.4" y1="27.1" x2="55.4" y2="173.4"/>
  <line class="st3" x1="95.9" y1="11.3" x2="122.7" y2="11.3"/>
  <g>
    <polygon class="st0" points="119.7 13.4 124.1 11.3 119.7 9.1 119.7 13.4"/>
    <polygon class="st4" points="119.7 13.4 124.1 11.3 119.7 9.1 119.7 13.4"/>
  </g>
  <g>
    <polygon class="st0" points="98.8 9.1 94.4 11.3 98.8 13.4 98.8 9.1"/>
    <polygon class="st4" points="98.8 9.1 94.4 11.3 98.8 13.4 98.8 9.1"/>
  </g>
  <line class="st1" x1="200.4" y1="21.3" x2="200.5" y2="174.4"/>
  <line class="st3" x1="154" y1="21.3" x2="199" y2="21.3"/>
  <g>
    <polygon class="st0" points="196 23.4 200.4 21.3 196 19.1 196 23.4"/>
    <polygon class="st4" points="196 23.4 200.4 21.3 196 19.1 196 23.4"/>
  </g>
  <g>
    <polygon class="st0" points="156.9 19.1 152.5 21.3 156.9 23.4 156.9 19.1"/>
    <polygon class="st4" points="156.9 19.1 152.5 21.3 156.9 23.4 156.9 19.1"/>
  </g>
  <rect class="st6" x="55.3" y="111.6" width="59.5" height="27.6"/>
  <rect class="st3" x="55.3" y="111.6" width="59.5" height="27.6"/>
  <line class="st1" x1="94.4" y1="11.3" x2="94.4" y2="173.4"/>
  <line class="st1" x1="114.7" y1="24.9" x2="114.7" y2="173.5"/>
  <line class="st3" x1="96.1" y1="24.9" x2="113.2" y2="24.9"/>
  <g>
    <polygon class="st0" points="110.3 27 114.7 24.9 110.3 22.8 110.3 27"/>
    <polygon class="st4" points="110.3 27 114.7 24.9 110.3 22.8 110.3 27"/>
  </g>
  <g>
    <polygon class="st0" points="99.1 22.8 94.6 24.9 99.1 27 99.1 22.8"/>
    <polygon class="st4" points="99.1 22.8 94.6 24.9 99.1 27 99.1 22.8"/>
  </g>
  <path class="st3" d="M222.9,4.6"/>
  <g>
    <path d="M225.7,10.5c-.6,0-1.1-.3-1.3-.5-.2.4-.3.4-.3.4,0,0,0,0-.1,0,0,0,0,0,0-.2v-1.4c0-.1,0-.2,0-.2s0,0,0,0c0,.3,0,.7.4,1.1.4.4.9.4,1.1.4.6,0,1-.5,1-1s0-.5-.2-.7c-.2-.3-.4-.3-.6-.4-.5-.1-.9-.2-1-.2-.6-.2-.9-.7-.9-1.3s.6-1.4,1.4-1.4.9.3,1.2.5l.3-.4c0,0,0,0,.1,0,0,0,0,0,0,.2v1.5c0,.1,0,.2,0,.2s0,0,0,0c0-.3-.2-1.5-1.4-1.5s-1,.4-1,.9.3.8.7.9l.9.2c.6.1,1.1.7,1.1,1.5s-.6,1.5-1.4,1.5Z"/>
    <path d="M232.2,10.5c-.2,0-.6,0-.9-.3-.3-.3-.3-.6-.3-1s0-.7-.3-1c-.3-.2-.6-.2-.7-.2h-.8v1.8c0,.3,0,.3.6.3h.2v.2c-.3,0-.8,0-1.1,0s-.8,0-1.1,0v-.2h.2c.6,0,.6,0,.6-.3v-3.8c0-.3,0-.3-.6-.3h-.2v-.2h2.3c1.1,0,1.9.6,1.9,1.3s-.6,1-1.3,1.2c.4.1.8.4.9.8v.6c.2.7.3,1,.6,1s.4-.1.5-.6c0,0,0-.1,0-.1s0,0,0,.1c0,.2-.1.8-.7.8ZM229.8,5.7c-.1,0-.4,0-.4,0-.2,0-.2.1-.2.3v1.9h.8c1.1,0,1.2-.6,1.2-1.1,0-1-.8-1.1-1.5-1.1Z"/>
    <path d="M237.1,10.4c-.3,0-.8,0-1,0v-.2c.2,0,.6,0,.6-.2s0,0,0-.1l-.4-1.1h-1.8l-.3.9s0,0,0,.1c0,.2.2.4.5.4v.2h-.8s-.7,0-.7,0v-.2c.4,0,.7-.1.8-.5l1.5-4.3c0-.1,0-.1.2-.1s.1,0,.2.1l1.6,4.5c0,.2.2.3.6.3h.1v.2h-.9ZM235.4,6.2l-.8,2.3h1.6l-.8-2.3Z"/>
    <path d="M243.6,10.4c-.3,0-.8,0-1,0v-.2h.2c.6,0,.6,0,.6-.3v-4.1h0l-1.8,4.6c0,0,0,.1-.1.1s-.1,0-.1-.2l-1.7-4.5h0v3.9c0,.2,0,.5.7.5v.2h-.8s-.8,0-.8,0v-.2c.7,0,.7-.3.7-.5v-3.6c0-.3,0-.3-.6-.3h-.2v-.2h1.2c.2,0,.2,0,.3.2l1.6,4,1.6-4.1c0-.1,0-.1.2-.1h1.2v.2h-.2c-.6,0-.6,0-.6.3v3.8c0,.3,0,.3.6.3h.2v.2c-.3,0-.8,0-1,0Z"/>
  </g>
  <g>
    <path d="M245,9v-.4h1.9v.4h-1.9Z"/>
    <path d="M250.2,10.5c-1.3,0-2.5-1.1-2.5-2.6s1.2-2.6,2.5-2.6,1.1.4,1.3.6l.4-.5c0,0,0,0,.1,0,0,0,0,0,0,.2v1.7c0,.2,0,.2-.1.2s-.1,0-.1-.1c-.1-1.1-.8-1.7-1.6-1.7s-1.8.2-1.8,2.4,1.4,2.4,1.9,2.4c.8,0,1.6-.6,1.6-1.6,0,0,0-.1,0-.1s0,0,0,.1c0,.8-.7,1.8-1.9,1.8Z"/>
    <path d="M254.3,10.5c-.8,0-1.6-.7-1.6-1.6s.7-1.7,1.6-1.7,1.6.8,1.6,1.7-.7,1.6-1.6,1.6ZM255.1,7.8c-.2-.3-.5-.5-.8-.5s-.6.2-.8.5c-.2.3-.2.7-.2,1s0,.7.2,1c.2.3.5.5.8.5s.7-.2.8-.5c.2-.3.2-.7.2-1s0-.7-.2-1Z"/>
    <path d="M261.2,10.4h-.8s0-.2,0-.2c.5,0,.6,0,.6-.3v-1.7c0-.4,0-.8-.5-.8s-1,.4-1,1.2v1.3c0,.3,0,.3.6.3v.2h-.8s-.8,0-.8,0v-.2c.5,0,.6,0,.6-.3v-1.7c0-.4,0-.8-.5-.8s-1,.4-1,1.2v1.3c0,.3,0,.3.6.3v.2h-.8s-.8,0-.8,0v-.2c.5,0,.6,0,.6-.3v-1.9c0-.4,0-.4-.6-.4v-.2h1c0,0,0,.7,0,.7.2-.4.5-.8,1.1-.8s.9,0,1,.7c.1-.3.4-.7,1-.7s.7.1.8.3c.2.3.2.5.2,1.1v1.4c0,.2.2.2.6.2v.2h-.8Z"/>
    <path d="M264.3,10.5c-.5,0-.9-.4-.9-.5h0v1.3c0,.3,0,.3.6.3v.2h-.8s-.8,0-.8,0v-.2c.5,0,.6,0,.6-.3v-3.4c0-.3,0-.4-.6-.4v-.2h1c0,0,0,.4,0,.4.1-.2.4-.5,1-.5.8,0,1.5.7,1.5,1.6s-.8,1.6-1.6,1.6ZM264.3,7.4c-.4,0-.7.2-.9.6v1.6c0,.1,0,.2.1.3.2.3.5.4.8.4.5,0,1-.6,1-1.5s-.4-1.5-1-1.5Z"/>
    <path d="M269.1,10.4c-.3,0-.5-.3-.6-.6-.1.3-.5.6-.9.6s-1.2-.2-1.2-.8.2-.7.7-.9c.5-.2,1-.2,1.3-.3v-.3c0-.6-.4-.9-.8-.9s-.6,0-.8.3c.3,0,.4.2.4.3,0,.2-.1.3-.3.3s-.3-.1-.3-.3c0-.5.5-.8,1.1-.8s.7.1,1,.4c.3.3.3.5.3.9v1.4s0,.4.3.4.3,0,.3-.5v-.4h.2v.4c0,.6-.4.7-.6.7ZM268.5,8.6c-1.2,0-1.5.6-1.5,1s.3.6.7.6.8-.2.8-.9v-.7Z"/>
    <path d="M271.4,10.5c-.3,0-.9,0-.9-1v-2h-.6v-.2c.7,0,.9-.8.9-1.4h.2v1.3h1v.2h-1v2c0,.1,0,.8.5.8s.5-.3.5-.8v-.4h.2v.4c0,.5-.2,1-.7,1Z"/>
    <path d="M273.6,10.4h-.8s0-.2,0-.2c.5,0,.6,0,.6-.3v-1.9c0-.4,0-.4-.5-.4v-.2h1c0,0,0,2.6,0,2.6,0,.3,0,.3.5.3v.2c-.2,0-.5,0-.8,0ZM273.5,6.4c-.2,0-.4-.2-.4-.4s.1-.4.4-.4.4.2.4.4-.1.4-.4.4Z"/>
    <path d="M276.7,10.5c-.5,0-.8-.4-.9-.5l-.3.4h-.2v-4.3c0-.4,0-.4-.6-.4v-.2h1c0,0,0,2.2,0,2.2.1-.1.4-.5,1-.5.8,0,1.5.7,1.5,1.6s-.8,1.6-1.6,1.6ZM277.5,7.8c-.2-.3-.4-.5-.8-.5s-.6,0-.9.5c0,.1,0,.1,0,.3v1.5c0,.1,0,.2.1.3.2.3.4.4.8.4s.7-.2.8-.5c.2-.3.2-.8.2-1s0-.7-.2-1Z"/>
    <path d="M279.6,10.4h-.8s0-.2,0-.2c.5,0,.6,0,.6-.3v-3.8c0-.4,0-.4-.6-.4v-.2h1c0,0,0,4.4,0,4.4,0,.3,0,.3.6.3v.2h-.8Z"/>
    <path d="M282.3,10.5c-.8,0-1.6-.7-1.6-1.7s.7-1.6,1.5-1.6,1.3.7,1.3,1.4,0,.2-.2.2h-2c0,.3,0,.7.2,1.1.2.3.5.5.8.5s.7,0,1-.7c0,0,0-.1,0-.1s0,0,0,0c0,.1-.3.9-1.2.9ZM282.3,7.3c-.2,0-.9.2-.9,1.3h1.7c0-.3,0-1.3-.8-1.3Z"/>
    <path d="M290.8,10.5c-.2,0-.6,0-.9-.3-.3-.3-.3-.6-.3-1s0-.7-.3-1c-.3-.2-.6-.2-.7-.2h-.8v1.8c0,.3,0,.3.6.3h.2v.2c-.3,0-.8,0-1.1,0s-.8,0-1.1,0v-.2h.2c.6,0,.6,0,.6-.3v-3.8c0-.3,0-.3-.6-.3h-.2v-.2h2.3c1.1,0,1.9.6,1.9,1.3s-.6,1-1.3,1.2c.4.1.8.4.9.8v.6c.2.7.3,1,.6,1s.4-.1.5-.6c0,0,0-.1,0-.1s0,0,0,.1c0,.2-.1.8-.7.8ZM288.4,5.7c-.1,0-.4,0-.4,0-.2,0-.2.1-.2.3v1.9h.8c1.1,0,1.2-.6,1.2-1.1,0-1-.8-1.1-1.5-1.1Z"/>
    <path d="M293.3,10.5c-.8,0-1.6-.7-1.6-1.7s.7-1.6,1.5-1.6,1.3.7,1.3,1.4,0,.2-.2.2h-2c0,.3,0,.7.2,1.1.2.3.5.5.8.5s.7,0,1-.7c0,0,0-.1,0-.1s0,0,0,0c0,.1-.3.9-1.2.9ZM293.2,7.3c-.2,0-.9.2-.9,1.3h1.7c0-.3,0-1.3-.8-1.3Z"/>
    <path d="M297.6,10.4c-.3,0-.5-.3-.6-.6-.1.3-.5.6-.9.6s-1.2-.2-1.2-.8.2-.7.7-.9c.5-.2,1-.2,1.3-.3v-.3c0-.6-.4-.9-.8-.9s-.6,0-.8.3c.3,0,.4.2.4.3,0,.2-.1.3-.3.3s-.3-.1-.3-.3c0-.5.5-.8,1.1-.8s.7.1,1,.4c.3.3.3.5.3.9v1.4s0,.4.3.4.3,0,.3-.5v-.4h.2v.4c0,.6-.4.7-.6.7ZM297,8.6c-1.2,0-1.5.6-1.5,1s.3.6.7.6.8-.2.8-.9v-.7Z"/>
    <path d="M301,10.5v-.5c-.2.2-.5.5-1,.5-.8,0-1.5-.7-1.5-1.6s.8-1.6,1.6-1.6.7.2.9.4v-1.6c0-.4,0-.4-.6-.4v-.2h1c0,0,0,4.3,0,4.3,0,.4,0,.4.6.4v.2h-1.1ZM301,8.1c0-.1,0-.1,0-.3-.2-.3-.5-.4-.8-.4-.4,0-.7.2-.8.5-.2.3-.2.8-.2,1s0,.7.2,1c.2.3.4.5.8.5s.6-.2.9-.5c0-.1,0-.1,0-.3v-1.5Z"/>
  </g>
  <path class="st3" d="M23.1,34.6"/>
  <line class="st2" x1="23.8" y1="35.6" x2="35.2" y2="35.6"/>
  <g>
    <path d="M26.7,41.6c-1.3,0-2.5-1.1-2.5-2.6s1.2-2.6,2.5-2.6,1.1.4,1.3.6l.4-.5c0,0,0,0,.1,0,0,0,0,0,0,.2v1.7c0,.2,0,.2-.1.2s-.1,0-.1-.1c-.1-1.1-.8-1.7-1.6-1.7s-1.8.2-1.8,2.4,1.4,2.4,1.9,2.4c.8,0,1.6-.6,1.6-1.6,0,0,0-.1,0-.1s0,0,0,.1c0,.8-.7,1.8-1.9,1.8Z"/>
    <path d="M33.9,41.5h-4.2v-.2h.2c.6,0,.6,0,.6-.3v-3.8c0-.3,0-.3-.6-.3h-.2v-.2h4.1l.2,1.6h-.2c-.1-1-.3-1.4-1.4-1.4h-.9c-.3,0-.4,0-.4.3v1.7h.6c.7,0,.8-.2.8-.8h.2v1.9h-.2c0-.6,0-.8-.8-.8h-.6v1.9c0,.2,0,.3.4.3h1c1.2,0,1.4-.5,1.6-1.6h.2l-.3,1.9Z"/>
  </g>
  <path class="st3" d="M28,123.8"/>
  <path d="M31.6,127.6c-.3,0-.5-.3-.6-.6-.1.3-.5.6-.9.6s-1.2-.2-1.2-.8.2-.7.7-.9c.5-.2,1-.2,1.3-.3v-.3c0-.6-.4-.9-.8-.9s-.6,0-.8.3c.3,0,.4.2.4.3,0,.2-.1.3-.3.3s-.3-.1-.3-.3c0-.5.5-.8,1.1-.8s.7.1,1,.4c.3.3.3.5.3.9v1.4s0,.4.3.4.3,0,.3-.5v-.4h.2v.4c0,.6-.4.7-.6.7ZM31,125.8c-1.2,0-1.5.6-1.5,1s.3.6.6.6.8-.2.8-.9v-.7Z"/>
  <path class="st3" d="M28.5,157.7"/>
  <path d="M31.8,163.4v-.5c-.2.2-.5.5-1,.5-.8,0-1.5-.7-1.5-1.6s.8-1.6,1.6-1.6.7.2.9.4v-1.6c0-.4,0-.4-.6-.4v-.2h1c0,0,0,4.3,0,4.3,0,.4,0,.4.6.4v.2h-1.1ZM31.8,161c0-.1,0-.1,0-.3-.2-.3-.5-.4-.8-.4-.4,0-.7.2-.8.5-.2.3-.2.8-.2,1s0,.7.2,1c.2.3.4.5.8.5s.6-.2.9-.5c0-.1,0-.1,0-.3v-1.5Z"/>
  <path class="st3" d="M21.4,59.3"/>
  <line class="st2" x1="22" y1="60.3" x2="35.6" y2="60.3"/>
  <g>
    <path d="M28.6,62l-1.4,4.2c0,0,0,.1-.1.1s-.1,0-.1-.1l-1.2-3.7-1.2,3.7c0,0,0,.1-.1.1s-.1,0-.1-.1l-1.4-4.4c0-.3-.1-.3-.7-.3v-.2h.9c.3,0,.8,0,1,0v.2c-.2,0-.6,0-.6.2s0,0,0,0l1.2,3.6,1-3.1-.2-.5c0-.3-.2-.3-.6-.3v-.2h.9c.3,0,.8,0,1,0v.2c-.2,0-.6,0-.6.2s0,0,0,.1l1.2,3.5,1.1-3.3s0-.1,0-.1c0-.1-.1-.4-.6-.4v-.2h.9c.2,0,.4,0,.7,0v.2c-.3,0-.6,0-.7.5Z"/>
    <path d="M34.8,66.2h-4.2v-.2h.2c.6,0,.6,0,.6-.3v-3.8c0-.3,0-.3-.6-.3h-.2v-.2h4.1l.2,1.6h-.2c-.1-1-.3-1.4-1.4-1.4h-.9c-.3,0-.4,0-.4.3v1.7h.6c.7,0,.8-.2.8-.8h.2v1.9h-.2c0-.6,0-.8-.8-.8h-.6v1.9c0,.2,0,.3.4.3h1c1.2,0,1.4-.5,1.6-1.6h.2l-.3,1.9Z"/>
  </g>
  <path class="st3" d="M22,84.1"/>
  <line class="st2" x1="22.6" y1="85.2" x2="34.1" y2="85.2"/>
  <g>
    <path d="M25.4,91.2c-1.3,0-2.4-1.1-2.4-2.6s1.1-2.6,2.4-2.6,2.4,1.2,2.4,2.6-1.1,2.6-2.4,2.6ZM25.4,86.1c-.6,0-1.7.5-1.7,2.4s1,2.5,1.7,2.5,1.7-.6,1.7-2.5-1-2.4-1.7-2.4Z"/>
    <path d="M32.8,91h-4.2v-.2h.2c.6,0,.6,0,.6-.3v-3.8c0-.3,0-.3-.6-.3h-.2v-.2h4.1l.2,1.6h-.2c-.1-1-.3-1.4-1.4-1.4h-.9c-.3,0-.4,0-.4.3v1.7h.6c.7,0,.8-.2.8-.8h.2v1.9h-.2c0-.6,0-.8-.8-.8h-.6v1.9c0,.2,0,.3.4.3h1c1.2,0,1.4-.5,1.6-1.6h.2l-.3,1.9Z"/>
  </g>
  <path class="st3" d="M147.9,155.9"/>
  <g>
    <path d="M151.4,161.5h-2.6v-.2h.2c.6,0,.6,0,.6-.3v-3.8c0-.3,0-.3-.6-.3h-.2v-.2h2.6c1.2,0,2.2,1.1,2.2,2.5s-1,2.4-2.2,2.4ZM152.5,157.5c-.4-.5-.9-.7-1.3-.7h-.7c-.3,0-.4,0-.4.3v3.9c0,.2,0,.3.4.3h.7c.7,0,1.1-.4,1.3-.6.3-.4.4-.8.4-1.6s0-1.2-.4-1.6Z"/>
    <path d="M157,161.6c-.3,0-.5-.3-.6-.6-.1.3-.5.6-.9.6s-1.2-.2-1.2-.8.2-.7.7-.9c.5-.2,1-.2,1.3-.3v-.3c0-.6-.4-.9-.8-.9s-.6,0-.8.3c.3,0,.4.2.4.3,0,.2-.1.3-.3.3s-.3-.1-.3-.3c0-.5.5-.8,1.1-.8s.7.1,1,.4c.3.3.3.5.3.9v1.4s0,.4.3.4.3,0,.3-.5v-.4h.2v.4c0,.6-.4.7-.6.7ZM156.4,159.8c-1.2,0-1.5.6-1.5,1s.3.6.6.6.8-.2.8-.9v-.7Z"/>
    <path d="M159.3,161.6c-.3,0-.9,0-.9-1v-2h-.6v-.2c.7,0,.9-.8.9-1.4h.2v1.3h1v.2h-1v2c0,.1,0,.8.5.8s.5-.3.5-.8v-.4h.2v.4c0,.5-.2,1-.7,1Z"/>
    <path d="M163.4,161.6c-.3,0-.5-.3-.6-.6-.1.3-.5.6-.9.6s-1.2-.2-1.2-.8.2-.7.7-.9c.5-.2,1-.2,1.3-.3v-.3c0-.6-.4-.9-.8-.9s-.6,0-.8.3c.3,0,.4.2.4.3,0,.2-.1.3-.3.3s-.3-.1-.3-.3c0-.5.5-.8,1.1-.8s.7.1,1,.4c.3.3.3.5.3.9v1.4s0,.4.3.4.3,0,.3-.5v-.4h.2v.4c0,.6-.4.7-.6.7ZM162.8,159.8c-1.2,0-1.5.6-1.5,1s.3.6.6.6.8-.2.8-.9v-.7Z"/>
    <path d="M170.9,157.3l-1.6,4.2c0,.1,0,.1-.2.1s-.1,0-.2-.2l-1.7-4.4c-.1-.3-.2-.3-.7-.3v-.2h.9c.3,0,.8,0,1,0v.2c-.2,0-.6,0-.6.2,0,0,0,0,0,.1l1.4,3.6,1.3-3.5s0,0,0-.1c0-.2-.2-.4-.5-.4v-.2h.8c.2,0,.5,0,.7,0v.2c-.5,0-.7.2-.8.5Z"/>
    <path d="M174.2,161.6c-.3,0-.5-.3-.6-.6-.1.3-.5.6-.9.6s-1.2-.2-1.2-.8.2-.7.7-.9c.5-.2,1-.2,1.3-.3v-.3c0-.6-.4-.9-.8-.9s-.6,0-.8.3c.3,0,.4.2.4.3,0,.2-.1.3-.3.3s-.3-.1-.3-.3c0-.5.5-.8,1.1-.8s.7.1,1,.4c.3.3.3.5.3.9v1.4s0,.4.3.4.3,0,.3-.5v-.4h.2v.4c0,.6-.4.7-.6.7ZM173.6,159.8c-1.2,0-1.5.6-1.5,1s.3.6.6.6.8-.2.8-.9v-.7Z"/>
    <path d="M175.9,161.5h-.8s0-.2,0-.2c.5,0,.6,0,.6-.3v-3.8c0-.4,0-.4-.6-.4v-.2h1c0,0,0,4.4,0,4.4,0,.3,0,.3.6.3v.2h-.8Z"/>
    <path d="M177.9,161.5h-.8s0-.2,0-.2c.5,0,.6,0,.6-.3v-1.9c0-.4,0-.4-.5-.4v-.2h1c0,0,0,2.6,0,2.6,0,.3,0,.3.5.3v.2c-.2,0-.5,0-.8,0ZM177.8,157.6c-.2,0-.4-.2-.4-.4s.1-.4.4-.4.4.2.4.4-.1.4-.4.4Z"/>
    <path d="M181.6,161.6v-.5c-.2.2-.5.5-1,.5-.8,0-1.5-.7-1.5-1.6s.8-1.6,1.6-1.6.7.2.9.4v-1.6c0-.4,0-.4-.6-.4v-.2h1c0,0,0,4.3,0,4.3,0,.4,0,.4.6.4v.2h-1.1ZM181.6,159.2c0-.1,0-.1,0-.3-.2-.3-.5-.4-.8-.4-.4,0-.7.2-.8.5-.2.3-.2.8-.2,1s0,.7.2,1c.2.3.4.5.8.5s.6-.2.9-.5c0-.1,0-.1,0-.3v-1.5Z"/>
  </g>
  <path class="st3" d="M275.4,154.5"/>
  <path d="M277,162.4c-.1,0-.1-.1-.1-.2v-6.7c0-.1,0-.2.1-.2s.1.1.1.2v6.7c0,.1,0,.2-.1.2Z"/>
  <path d="M280.8,160.6v-.5c-.2.2-.5.5-1,.5-.8,0-1.5-.7-1.5-1.6s.8-1.6,1.6-1.6.7.2.9.4v-1.6c0-.4,0-.4-.6-.4v-.2h1c0,0,0,4.3,0,4.3,0,.4,0,.4.6.4v.2h-1.1ZM280.8,158.2c0-.1,0-.1,0-.3-.2-.3-.5-.4-.8-.4-.4,0-.7.2-.8.5-.2.3-.2.8-.2,1s0,.7.2,1c.2.3.4.5.8.5s.6-.2.9-.5c0-.1,0-.1,0-.3v-1.5Z"/>
  <path d="M282.8,162.4c-.1,0-.1-.1-.1-.2v-6.7c0-.1,0-.2.1-.2s.1.1.1.2v6.7c0,.1,0,.2-.1.2Z"/>
  <path class="st3" d="M274.6,123.1"/>
  <path d="M276.2,130.9c-.1,0-.1-.1-.1-.2v-6.7c0-.1,0-.2.1-.2s.1.1.1.2v6.7c0,.1,0,.2-.1.2Z"/>
  <path d="M280.1,129.1c-.3,0-.5-.3-.6-.6-.1.3-.5.6-.9.6s-1.2-.2-1.2-.8.2-.7.7-.9c.5-.2,1-.2,1.3-.3v-.3c0-.6-.4-.9-.8-.9s-.6,0-.8.3c.3,0,.4.2.4.3,0,.2-.1.3-.3.3s-.3-.1-.3-.3c0-.5.5-.8,1.1-.8s.7.1,1,.4c.3.3.3.5.3.9v1.4s0,.4.3.4.3,0,.3-.5v-.4h.2v.4c0,.6-.4.7-.6.7ZM279.5,127.3c-1.2,0-1.5.6-1.5,1s.3.6.7.6.8-.2.8-.9v-.7Z"/>
  <path d="M282,130.9c-.1,0-.1-.1-.1-.2v-6.7c0-.1,0-.2.1-.2s.1.1.1.2v6.7c0,.1,0,.2-.1.2Z"/>
  <path class="st3" d="M126.6,31.5"/>
  <path d="M129,36.6c-.3,0-.9,0-.9-1v-2h-.6v-.2c.7,0,.9-.8.9-1.4h.2v1.3h1v.2h-1v2c0,.1,0,.8.5.8s.5-.3.5-.8v-.4h.2v.4c0,.5-.2,1-.7,1Z"/>
  <g>
    <path d="M131.4,37.7c-.4,0-.6-.3-.6-.4h0v.9c0,.2,0,.2.4.2v.2h-.6s-.6,0-.6,0v-.2c.4,0,.4,0,.4-.2v-2.5c0-.2,0-.3-.4-.3v-.2h.8c0,0,0,.3,0,.3.1-.1.3-.3.7-.3.6,0,1.1.5,1.1,1.2s-.5,1.2-1.2,1.2ZM131.5,35.5c-.3,0-.5.2-.7.4v1.2c0,.1,0,.1,0,.2.1.2.3.3.6.3.4,0,.8-.4.8-1.1s-.3-1.1-.7-1.1Z"/>
    <path d="M134.5,35.9c-.1,0-.2,0-.2-.2s.1-.2.1-.2c0,0,0,0,0,0-.4,0-.6.5-.6,1v.8c0,.2,0,.2.4.2h.1v.2c-.2,0-.5,0-.7,0h-.6s0-.1,0-.1c.4,0,.4,0,.4-.2v-1.4c0-.3,0-.3-.4-.3v-.2h.7c0,0,0,.5,0,.5,0-.2.3-.6.6-.6s.4.2.4.3-.1.2-.2.2Z"/>
    <path d="M136.2,37.7c-.6,0-1.1-.5-1.1-1.2s.5-1.2,1.1-1.2.8.2.8.6-.1.2-.2.2-.2-.1-.2-.2,0-.2.2-.2c-.2-.2-.5-.2-.6-.2-.3,0-.7.2-.7,1.1s.5,1.1.7,1.1.5,0,.7-.6c0,0,0,0,0,0s0,0,0,0-.2.7-.9.7Z"/>
  </g>
  <path class="st3" d="M70.7,18.5"/>
  <path d="M73,23.7c-.3,0-.9,0-.9-1v-2h-.6v-.2c.7,0,.9-.8.9-1.4h.2v1.3h1v.2h-1v2c0,.1,0,.8.5.8s.5-.3.5-.8v-.4h.2v.4c0,.5-.2,1-.7,1Z"/>
  <g>
    <path d="M76.1,24.7c-.2,0-.4-.2-.4-.4-.1.2-.3.5-.7.5s-.8-.1-.8-.6.1-.5.5-.7c.3-.2.7-.2,1-.2v-.2c0-.5-.3-.7-.6-.7s-.4,0-.6.2c.2,0,.3.2.3.2,0,.1,0,.2-.2.2s-.2,0-.2-.2c0-.3.4-.6.8-.6s.5,0,.7.3c.2.2.2.4.2.6v1.1s0,.3.2.3.2,0,.2-.3v-.3h.1v.3c0,.4-.3.5-.4.5ZM75.6,23.4c-.9,0-1.1.5-1.1.8s.2.4.5.4.6-.2.6-.7v-.5Z"/>
    <path d="M77.6,24.7c-.1,0-.3,0-.6-.2,0,.1,0,.1-.1.1-.1.1-.1.1-.1.1,0,0,0,0,0-.1v-.7c0,0,0-.1,0-.1s0,0,0,0c.1.4.3.7.7.7s.6-.2.6-.5-.4-.5-.5-.5c-.4,0-.5-.1-.7-.2-.1-.1-.2-.3-.2-.4,0-.3.2-.6.8-.6s.3,0,.5.1c0,0,0,0,0,0,0,0,0,0,.1,0,0,0,0,0,0,.1v.5c0,0,0,.1,0,.1,0,0,0,0,0,0,0-.2,0-.6-.6-.6s-.6.2-.6.4c0,.3.4.4.6.4.2,0,.4,0,.6.3,0,0,.2.2.2.5s-.2.7-.8.7Z"/>
  </g>
  <path class="st3" d="M102.8,3.6"/>
  <path d="M105.1,8.7c-.3,0-.9,0-.9-1v-2h-.6v-.2c.7,0,.9-.8.9-1.4h.2v1.3h1v.2h-1v2c0,.1,0,.8.5.8s.5-.3.5-.8v-.4h.2v.4c0,.5-.2,1-.7,1Z"/>
  <g>
    <path d="M107.3,9.8c-.6,0-1.2-.5-1.2-1.2s.5-1.2,1.2-1.2,1.2.6,1.2,1.2-.5,1.2-1.2,1.2ZM107.9,7.9c-.1-.2-.4-.3-.6-.3s-.5.1-.6.4c-.1.2-.1.5-.1.7s0,.5.1.7c.1.2.4.4.6.4s.5-.2.6-.4c.1-.2.1-.5.1-.7s0-.5-.1-.7Z"/>
    <path d="M110.1,9.8c-.6,0-1.2-.5-1.2-1.2s.5-1.2,1.1-1.2.9.5.9,1,0,.1-.1.1h-1.5c0,.2,0,.5.2.8.1.2.3.4.6.4s.5,0,.7-.5c0,0,0,0,0,0s0,0,0,0c0,.1-.2.7-.9.7ZM110,7.5c-.2,0-.6.1-.7.9h1.2c0-.2,0-.9-.6-.9Z"/>
    <path d="M113.1,9.8v-.3c-.1.2-.4.3-.7.3-.6,0-1.1-.5-1.1-1.2s.6-1.2,1.2-1.2.5.1.7.3v-1.1c0-.3,0-.3-.4-.3v-.2h.8c0,0,0,3.1,0,3.1,0,.3,0,.3.4.3v.2h-.8ZM113.1,8.1c0,0,0-.1,0-.2-.2-.2-.4-.3-.6-.3-.3,0-.5.2-.6.3-.2.2-.2.6-.2.7s0,.5.2.7c.1.2.3.3.6.3s.5-.1.6-.4c0,0,0-.1,0-.2v-1.1Z"/>
  </g>
  <path class="st3" d="M167.1,12.3"/>
  <path d="M169.4,17.4c-.3,0-.9,0-.9-1v-2h-.6v-.2c.7,0,.9-.8.9-1.4h.2v1.3h1v.2h-1v2c0,.1,0,.8.5.8s.5-.3.5-.8v-.4h.2v.4c0,.5-.2,1-.7,1Z"/>
  <g>
    <path d="M171.7,18.6c-.6,0-1.2-.5-1.2-1.2s.5-1.2,1.2-1.2,1.2.6,1.2,1.2-.5,1.2-1.2,1.2ZM172.3,16.6c-.1-.2-.4-.3-.6-.3s-.5.1-.6.4c-.1.2-.1.5-.1.7s0,.5.1.7c.1.2.4.4.6.4s.5-.2.6-.4c.1-.2.1-.5.1-.7s0-.5-.1-.7Z"/>
    <path d="M175.2,18.5h-.6s0-.1,0-.1c.4,0,.4,0,.4-.2v-1.2c0-.3,0-.6-.4-.6s-.7.3-.7.8v1c0,.2,0,.2.4.2v.2h-.6s-.6,0-.6,0v-.2c.4,0,.4,0,.4-.2v-2.7c0-.3,0-.3-.4-.3v-.2h.8c0,0,0,1.8,0,1.8h0c0-.2.3-.5.8-.5s.5.1.6.2c.2.2.2.4.2.8v1c0,.2.1.2.4.2v.2h-.6Z"/>
    <path d="M176.7,18.5h-.6s0-.1,0-.1c.4,0,.4,0,.4-.2v-1.4c0-.3,0-.3-.4-.3v-.2h.7c0,0,0,1.9,0,1.9,0,.2,0,.2.4.2v.2c-.2,0-.4,0-.5,0ZM176.7,15.6c-.2,0-.3-.1-.3-.3s.1-.3.3-.3.3.1.3.3-.1.3-.3.3Z"/>
  </g>
  <path class="st3" d="M63.4,122.8"/>
  <g>
    <path d="M68.2,128.6c-.3,0-.8,0-1,0v-.2c.2,0,.6,0,.6-.2s0,0,0-.1l-.4-1.1h-1.8l-.3.9s0,0,0,.1c0,.2.2.4.5.4v.2h-.8s-.7,0-.7,0v-.2c.4,0,.7-.1.8-.5l1.5-4.3c0-.1,0-.1.2-.1s.1,0,.2.1l1.6,4.5c0,.2.2.3.6.3h.1v.2h-.9ZM66.5,124.4l-.8,2.3h1.6l-.8-2.3Z"/>
    <path d="M71.9,128.7v-.5c-.2.2-.5.5-1,.5-.8,0-1.5-.7-1.5-1.6s.8-1.6,1.6-1.6.7.2.9.4v-1.6c0-.4,0-.4-.6-.4v-.2h1c0,0,0,4.3,0,4.3,0,.4,0,.4.6.4v.2h-1.1ZM71.9,126.3c0-.1,0-.1,0-.3-.2-.3-.5-.4-.8-.4-.4,0-.7.2-.8.5-.2.3-.2.8-.2,1s0,.7.2,1c.2.3.4.5.8.5s.6-.2.9-.5c0-.1,0-.1,0-.3v-1.5Z"/>
    <path d="M75.9,128.7v-.5c-.2.2-.5.5-1,.5-.8,0-1.5-.7-1.5-1.6s.8-1.6,1.6-1.6.7.2.9.4v-1.6c0-.4,0-.4-.6-.4v-.2h1c0,0,0,4.3,0,4.3,0,.4,0,.4.6.4v.2h-1.1ZM75.9,126.3c0-.1,0-.1,0-.3-.2-.3-.5-.4-.8-.4-.4,0-.7.2-.8.5-.2.3-.2.8-.2,1s0,.7.2,1c.2.3.4.5.8.5s.6-.2.9-.5c0-.1,0-.1,0-.3v-1.5Z"/>
    <path d="M79.5,126.2c-.2,0-.3-.1-.3-.3s.1-.3.2-.3c0,0,0,0,0,0-.5,0-.9.6-.9,1.4v1.1c0,.3,0,.3.5.3h.2v.2c-.3,0-.6,0-.9,0h-.8s0-.2,0-.2c.5,0,.6,0,.6-.3v-1.9c0-.4,0-.4-.6-.4v-.2h1c0,0,0,.7,0,.7.1-.3.4-.8.9-.8s.5.2.5.4-.2.3-.3.3Z"/>
    <path d="M81.8,128.7c-.8,0-1.6-.7-1.6-1.7s.7-1.6,1.5-1.6,1.3.7,1.3,1.4,0,.2-.2.2h-2c0,.3,0,.7.2,1.1.2.3.5.5.8.5s.7,0,1-.7c0,0,0-.1,0-.1s0,0,0,0c0,.1-.3.9-1.2.9ZM81.7,125.5c-.2,0-.9.2-.9,1.3h1.7c0-.3,0-1.3-.8-1.3Z"/>
    <path d="M84.7,128.7c-.2,0-.5,0-.8-.3-.1.1-.1.2-.1.2-.1.1-.1.1-.2.1,0,0,0,0,0-.2v-1c0-.1,0-.2,0-.2s0,0,.1.1c.1.6.4,1,1,1s.8-.3.8-.7-.6-.6-.8-.7c-.5-.1-.7-.1-1-.3-.2-.2-.3-.4-.3-.6,0-.4.3-.9,1.2-.9s.4,0,.7.2c0,0,.1,0,.1-.1,0,0,.1,0,.1,0,0,0,0,0,0,.2v.7c0,.1,0,.2,0,.2,0,0,0,0,0,0,0-.2,0-.9-.8-.9s-.8.3-.8.5c0,.4.5.5.9.6.3,0,.6.1.8.3,0,0,.3.3.3.7s-.3,1-1.2,1Z"/>
    <path d="M87.5,128.7c-.2,0-.5,0-.8-.3-.1.1-.1.2-.1.2-.1.1-.1.1-.2.1,0,0,0,0,0-.2v-1c0-.1,0-.2,0-.2s0,0,.1.1c.1.6.4,1,1,1s.8-.3.8-.7-.6-.6-.8-.7c-.5-.1-.7-.1-1-.3-.2-.2-.3-.4-.3-.6,0-.4.3-.9,1.2-.9s.4,0,.7.2c0,0,.1,0,.1-.1,0,0,.1,0,.1,0,0,0,0,0,0,.2v.7c0,.1,0,.2,0,.2,0,0,0,0,0,0,0-.2,0-.9-.8-.9s-.8.3-.8.5c0,.4.5.5.9.6.3,0,.6.1.8.3,0,0,.3.3.3.7s-.3,1-1.2,1Z"/>
    <path d="M95.8,124.4l-1.6,4.2c0,.1,0,.1-.2.1s-.1,0-.2-.2l-1.7-4.4c-.1-.3-.2-.3-.7-.3v-.2h.9c.3,0,.8,0,1,0v.2c-.2,0-.6,0-.6.2,0,0,0,0,0,.1l1.4,3.6,1.3-3.5s0,0,0-.1c0-.2-.2-.4-.5-.4v-.2h.8c.2,0,.5,0,.7,0v.2c-.5,0-.7.2-.8.5Z"/>
    <path d="M99.1,128.6c-.3,0-.5-.3-.6-.6-.1.3-.5.6-.9.6s-1.2-.2-1.2-.8.2-.7.7-.9c.5-.2,1-.2,1.3-.3v-.3c0-.6-.4-.9-.8-.9s-.6,0-.8.3c.3,0,.4.2.4.3,0,.2-.1.3-.3.3s-.3-.1-.3-.3c0-.5.5-.8,1.1-.8s.7.1,1,.4c.3.3.3.5.3.9v1.4s0,.4.3.4.3,0,.3-.5v-.4h.2v.4c0,.6-.4.7-.6.7ZM98.5,126.9c-1.2,0-1.5.6-1.5,1s.3.6.6.6.8-.2.8-.9v-.7Z"/>
    <path d="M100.8,128.6h-.8s0-.2,0-.2c.5,0,.6,0,.6-.3v-3.8c0-.4,0-.4-.6-.4v-.2h1c0,0,0,4.4,0,4.4,0,.3,0,.3.6.3v.2h-.8Z"/>
    <path d="M102.8,128.6h-.8s0-.2,0-.2c.5,0,.6,0,.6-.3v-1.9c0-.4,0-.4-.5-.4v-.2h1c0,0,0,2.6,0,2.6,0,.3,0,.3.5.3v.2c-.2,0-.5,0-.8,0ZM102.7,124.6c-.2,0-.4-.2-.4-.4s.1-.4.4-.4.4.2.4.4-.1.4-.4.4Z"/>
    <path d="M106.5,128.7v-.5c-.2.2-.5.5-1,.5-.8,0-1.5-.7-1.5-1.6s.8-1.6,1.6-1.6.7.2.9.4v-1.6c0-.4,0-.4-.6-.4v-.2h1c0,0,0,4.3,0,4.3,0,.4,0,.4.6.4v.2h-1.1ZM106.5,126.3c0-.1,0-.1,0-.3-.2-.3-.5-.4-.8-.4-.4,0-.7.2-.8.5-.2.3-.2.8-.2,1s0,.7.2,1c.2.3.4.5.8.5s.6-.2.9-.5c0-.1,0-.1,0-.3v-1.5Z"/>
  </g>
  <path class="st3" d="M98.7,16.1"/>
  <path d="M101,21.2c-.3,0-.9,0-.9-1v-2h-.6v-.2c.7,0,.9-.8.9-1.4h.2v1.3h1v.2h-1v2c0,.1,0,.8.5.8s.5-.3.5-.8v-.4h.2v.4c0,.5-.2,1-.7,1Z"/>
  <g>
    <path d="M104.1,22.3c-.2,0-.4-.2-.4-.4-.1.2-.3.5-.7.5s-.8-.1-.8-.6.1-.5.5-.7c.3-.2.7-.2,1-.2v-.2c0-.5-.3-.7-.6-.7s-.4,0-.6.2c.2,0,.3.2.3.2,0,.1,0,.2-.2.2s-.2,0-.2-.2c0-.3.4-.6.8-.6s.5,0,.7.3c.2.2.2.4.2.6v1.1s0,.3.2.3.2,0,.2-.3v-.3h.1v.3c0,.4-.3.5-.4.5ZM103.6,21c-.9,0-1.1.5-1.1.8s.2.4.5.4.6-.2.6-.7v-.5Z"/>
    <path d="M106.8,22.3h-.6s0-.1,0-.1c.4,0,.4,0,.4-.2v-1.2c0-.3,0-.6-.4-.6s-.7.3-.7.8v1c0,.2,0,.2.4.2v.2h-.6s-.6,0-.6,0v-.2c.4,0,.4,0,.4-.2v-2.7c0-.3,0-.3-.4-.3v-.2h.8c0,0,0,1.8,0,1.8h0c0-.2.3-.5.8-.5s.5.1.6.2c.2.2.2.4.2.8v1c0,.2.1.2.4.2v.2h-.6Z"/>
  </g>
</svg>