<?xml version="1.0" encoding="UTF-8"?>
<svg id="Ebene_1" xmlns="http://www.w3.org/2000/svg" version="1.1" viewBox="0 0 310.6 176.7">
  <!-- Generator: Adobe Illustrator 30.0.0, SVG Export Plug-In . SVG Version: 2.1.1 Build 123)  -->
  <defs>
    <style>
      .st0, .st1, .st2 {
        fill: none;
      }

      .st3 {
        fill: #010101;
      }

      .st1 {
        stroke-dasharray: .6 1.7;
      }

      .st1, .st4, .st2 {
        stroke: #000;
        stroke-miterlimit: 10;
      }

      .st1, .st2 {
        stroke-width: .3px;
      }

      .st4, .st5 {
        fill: #fff;
      }
    </style>
  </defs>
  <rect class="st4" x="-212" y="-193" width="688" height="426"/>
  <rect class="st2" x="2.3" y="2.7" width="305.4" height="171.6"/>
  <rect class="st2" x="222" y="2.7" width="85.6" height="11"/>
  <line class="st2" x1="37.8" y1="37.3" x2="87.2" y2="37.3"/>
  <line class="st2" x1="87.2" y1="37.3" x2="102.2" y2="52.1"/>
  <line class="st2" x1="102.2" y1="52.1" x2="146.5" y2="52.1"/>
  <line class="st2" x1="160.3" y1="37.5" x2="146.5" y2="52.1"/>
  <line class="st2" x1="160.3" y1="37.5" x2="214" y2="37.5"/>
  <line class="st2" x1="214" y1="37.5" x2="227.5" y2="52.3"/>
  <line class="st2" x1="227.5" y1="52.3" x2="271.4" y2="52.3"/>
  <line class="st2" x1="38" y1="111.5" x2="272.2" y2="111.5"/>
  <line class="st2" x1="37.9" y1="113.9" x2="272.2" y2="113.9"/>
  <line class="st2" x1="38.1" y1="116.3" x2="272.1" y2="116.3"/>
  <line class="st2" x1="37.8" y1="119.2" x2="272.1" y2="119.2"/>
  <line class="st2" x1="37.7" y1="121.6" x2="272" y2="121.6"/>
  <line class="st2" x1="38" y1="124" x2="272.3" y2="124"/>
  <line class="st2" x1="38.1" y1="126.5" x2="272.4" y2="126.5"/>
  <line class="st2" x1="38" y1="128.9" x2="272.3" y2="128.9"/>
  <line class="st2" x1="38.2" y1="131.3" x2="272.2" y2="131.3"/>
  <line class="st2" x1="38.1" y1="134.2" x2="272.2" y2="134.2"/>
  <line class="st2" x1="38.1" y1="136.6" x2="272.1" y2="136.6"/>
  <line class="st2" x1="38.1" y1="139" x2="272.1" y2="139"/>
  <line class="st2" x1="38" y1="150.3" x2="272.3" y2="150.3"/>
  <line class="st2" x1="37.9" y1="152.7" x2="272.2" y2="152.7"/>
  <line class="st2" x1="37.8" y1="155.1" x2="272.4" y2="155"/>
  <line class="st2" x1="37.8" y1="158" x2="272.1" y2="158"/>
  <line class="st2" x1="37.7" y1="160.4" x2="272.1" y2="160.4"/>
  <line class="st2" x1="37.9" y1="162.6" x2="272.3" y2="162.7"/>
  <line class="st2" x1="37.8" y1="165.1" x2="272.4" y2="165.3"/>
  <line class="st2" x1="37.9" y1="167.7" x2="272.3" y2="167.7"/>
  <line class="st2" x1="37.9" y1="61.5" x2="67.1" y2="61.5"/>
  <line class="st2" x1="67.1" y1="61.5" x2="82.1" y2="76.4"/>
  <line class="st2" x1="82.1" y1="76.4" x2="185.1" y2="76.4"/>
  <line class="st2" x1="198.9" y1="61.7" x2="185.1" y2="76.4"/>
  <line class="st2" x1="198.9" y1="61.7" x2="214.2" y2="61.7"/>
  <line class="st2" x1="214.2" y1="61.7" x2="227.6" y2="76.6"/>
  <line class="st2" x1="227.6" y1="76.6" x2="271.5" y2="76.6"/>
  <line class="st2" x1="228" y1="101.1" x2="272.1" y2="101.1"/>
  <line class="st2" x1="214.5" y1="86.2" x2="228" y2="101.1"/>
  <line class="st2" x1="38" y1="86.2" x2="214.5" y2="86.2"/>
  <rect class="st5" x="55.5" y="111.5" width="59.5" height="27.6"/>
  <rect class="st2" x="55.5" y="111.5" width="59.5" height="27.6"/>
  <rect class="st5" x="124.3" y="150.2" width="76.2" height="17.5"/>
  <rect class="st2" x="124.3" y="150.2" width="76.2" height="17.5"/>
  <line class="st2" x1="274.7" y1="151.8" x2="274.7" y2="166.2"/>
  <g>
    <polygon class="st3" points="272.6 163.3 274.7 167.7 276.8 163.3 272.6 163.3"/>
    <polygon class="st0" points="272.6 163.3 274.7 167.7 276.8 163.3 272.6 163.3"/>
  </g>
  <g>
    <polygon class="st3" points="276.8 154.7 274.7 150.3 272.6 154.7 276.8 154.7"/>
    <polygon class="st0" points="276.8 154.7 274.7 150.3 272.6 154.7 276.8 154.7"/>
  </g>
  <line class="st2" x1="274.1" y1="113" x2="274" y2="137.5"/>
  <g>
    <polygon class="st3" points="271.9 134.6 274 139 276.1 134.6 271.9 134.6"/>
    <polygon class="st0" points="271.9 134.6 274 139 276.1 134.6 271.9 134.6"/>
  </g>
  <g>
    <polygon class="st3" points="276.2 115.9 274.1 111.5 272 115.9 276.2 115.9"/>
    <polygon class="st0" points="276.2 115.9 274.1 111.5 272 115.9 276.2 115.9"/>
  </g>
  <line class="st1" x1="55.5" y1="13.9" x2="55.5" y2="173.3"/>
  <line class="st1" x1="94.5" y1="27" x2="94.5" y2="173.3"/>
  <line class="st1" x1="124.2" y1="26.9" x2="124.2" y2="173.2"/>
  <line class="st1" x1="152.6" y1="21.2" x2="152.6" y2="174.3"/>
  <line class="st1" x1="115.1" y1="27.2" x2="114.9" y2="173.3"/>
  <line class="st1" x1="200.4" y1="13.9" x2="200.4" y2="174.3"/>
  <line class="st2" x1="57" y1="27" x2="93" y2="27"/>
  <g>
    <polygon class="st3" points="90.1 29.1 94.5 27 90.1 24.9 90.1 29.1"/>
    <polygon class="st0" points="90.1 29.1 94.5 27 90.1 24.9 90.1 29.1"/>
  </g>
  <g>
    <polygon class="st3" points="59.9 24.9 55.5 27 59.9 29.1 59.9 24.9"/>
    <polygon class="st0" points="59.9 24.9 55.5 27 59.9 29.1 59.9 24.9"/>
  </g>
  <line class="st2" x1="57" y1="13.9" x2="198.9" y2="13.9"/>
  <g>
    <polygon class="st3" points="196 16 200.4 13.9 196 11.8 196 16"/>
    <polygon class="st0" points="196 16 200.4 13.9 196 11.8 196 16"/>
  </g>
  <g>
    <polygon class="st3" points="59.9 11.8 55.5 13.9 59.9 16 59.9 11.8"/>
    <polygon class="st0" points="59.9 11.8 55.5 13.9 59.9 16 59.9 11.8"/>
  </g>
  <line class="st2" x1="125.7" y1="27" x2="151.1" y2="27"/>
  <g>
    <polygon class="st3" points="148.2 29.1 152.6 27 148.2 24.9 148.2 29.1"/>
    <polygon class="st0" points="148.2 29.1 152.6 27 148.2 24.9 148.2 29.1"/>
  </g>
  <g>
    <polygon class="st3" points="128.6 24.9 124.2 27 128.6 29.1 128.6 24.9"/>
    <polygon class="st0" points="128.6 24.9 124.2 27 128.6 29.1 128.6 24.9"/>
  </g>
  <line class="st2" x1="154.1" y1="21.2" x2="198.9" y2="21.2"/>
  <g>
    <polygon class="st3" points="195.9 23.3 200.4 21.2 195.9 19.1 195.9 23.3"/>
    <polygon class="st0" points="195.9 23.3 200.4 21.2 195.9 19.1 195.9 23.3"/>
  </g>
  <g>
    <polygon class="st3" points="157 19.1 152.6 21.2 157 23.3 157 19.1"/>
    <polygon class="st0" points="157 19.1 152.6 21.2 157 23.3 157 19.1"/>
  </g>
  <line class="st2" x1="96" y1="27" x2="113.7" y2="27.1"/>
  <g>
    <polygon class="st3" points="110.7 29.2 115.1 27.2 110.7 25 110.7 29.2"/>
    <polygon class="st0" points="110.7 29.2 115.1 27.2 110.7 25 110.7 29.2"/>
  </g>
  <g>
    <polygon class="st3" points="98.9 24.9 94.5 27 98.9 29.1 98.9 24.9"/>
    <polygon class="st0" points="98.9 24.9 94.5 27 98.9 29.1 98.9 24.9"/>
  </g>
  <line class="st2" x1="96.2" y1="40.6" x2="150.7" y2="40.6"/>
  <g>
    <polygon class="st3" points="147.8 42.7 152.2 40.6 147.8 38.5 147.8 42.7"/>
    <polygon class="st0" points="147.8 42.7 152.2 40.6 147.8 38.5 147.8 42.7"/>
  </g>
  <g>
    <polygon class="st3" points="99.2 38.5 94.8 40.6 99.2 42.7 99.2 38.5"/>
    <polygon class="st0" points="99.2 38.5 94.8 40.6 99.2 42.7 99.2 38.5"/>
  </g>
  <path class="st2" d="M223,4.5"/>
  <g>
    <path d="M225.8,10.5c-.6,0-1.1-.3-1.3-.5-.2.4-.3.4-.3.4h-.1v-1.8h0c0,.3,0,.7.4,1.1.4.4.9.4,1.1.4.6,0,1-.5,1-1s0-.5-.2-.7c-.2-.3-.4-.3-.6-.4-.5,0-.9-.2-1-.2-.6-.2-.9-.7-.9-1.3s.6-1.4,1.4-1.4.9.3,1.2.5l.3-.4h.1v1.9h0c0-.3-.2-1.5-1.4-1.5s-1,.4-1,.9.3.8.7.9l.9.2c.6,0,1.1.7,1.1,1.5s-.6,1.5-1.4,1.5h0Z"/>
    <path d="M232.3,10.5c-.2,0-.6,0-.9-.3-.3-.3-.3-.6-.3-1s0-.7-.3-1c-.3-.2-.6-.2-.7-.2h-.8v1.8q0,.3.6.3h.2v.2h-2.2v-.2h.2q.6,0,.6-.3v-3.8q0-.3-.6-.3h-.2v-.2h2.3c1.1,0,1.9.6,1.9,1.3s-.6,1-1.3,1.2c.4,0,.8.4.9.8v.6c.2.7.3,1,.6,1s.4-.1.5-.6h0q0-.1,0,0c0,.2-.1.8-.7.8h.2ZM229.9,5.6h-.4c-.2,0-.2,0-.2.3v1.9h.8c1.1,0,1.2-.6,1.2-1.1,0-1-.8-1.1-1.5-1.1h0Z"/>
    <path d="M237.2,10.3h-1v-.2c.2,0,.6,0,.6-.2s0,0,0-.1l-.4-1.1h-1.8l-.3.9h0c0,.3.2.5.5.5v.2h-1.5v-.2c.4,0,.7-.1.8-.5l1.5-4.3q0,0,.2,0c.2,0,.1,0,.2,0l1.6,4.5c0,.2.2.3.6.3h.1v.2h-1.1ZM235.5,6.1l-.8,2.3h1.6l-.8-2.3Z"/>
    <path d="M243.7,10.3h-1v-.2h.2q.6,0,.6-.3v-4.1h0l-1.8,4.6s0,.1-.1.1-.1,0-.1-.2l-1.7-4.5h0v3.9c0,.2,0,.5.7.5v.2h-1.6v-.2c.7,0,.7-.3.7-.5v-3.6q0-.3-.6-.3h-.2v-.2h1.2q.2,0,.3.2l1.6,4,1.6-4.1q0,0,.2,0h1.2v.2h-.2q-.6,0-.6.3v3.8q0,.3.6.3h.2v.2h-1.2Z"/>
  </g>
  <g>
    <path d="M245.1,9v-.4h1.9v.4h-1.9Z"/>
    <path d="M250.3,10.5c-1.3,0-2.5-1.1-2.5-2.6s1.2-2.6,2.5-2.6,1.1.4,1.3.6l.4-.5h.1v1.9q0,.2-.1.2t-.1,0c-.1-1.1-.8-1.7-1.6-1.7s-1.8.2-1.8,2.4,1.4,2.4,1.9,2.4c.8,0,1.6-.6,1.6-1.6h0q0-.1,0,0c0,.8-.7,1.8-1.9,1.8l.2-.2Z"/>
    <path d="M254.4,10.4c-.8,0-1.6-.7-1.6-1.6s.7-1.7,1.6-1.7,1.6.8,1.6,1.7-.7,1.6-1.6,1.6ZM255.2,7.7c-.2-.3-.5-.5-.8-.5s-.6.2-.8.5-.2.7-.2,1,0,.7.2,1,.5.5.8.5.7-.2.8-.5c.2-.3.2-.7.2-1s0-.7-.2-1Z"/>
    <path d="M261.3,10.3h-.8v-.2c.5,0,.6,0,.6-.3v-1.7c0-.4,0-.8-.5-.8s-1,.4-1,1.2v1.3q0,.3.6.3v.2h-1.6v-.2c.5,0,.6,0,.6-.3v-1.7c0-.4,0-.8-.5-.8s-1,.4-1,1.2v1.3q0,.3.6.3v.2h-1.6v-.2c.5,0,.6,0,.6-.3v-1.9q0-.4-.6-.4v-.2h1v.7c.2-.4.5-.8,1.1-.8s.9,0,1,.7c.1-.3.4-.7,1-.7s.7,0,.8.3c.2.3.2.5.2,1.1v1.4c0,.2.2.2.6.2v.2h-1.1Z"/>
    <path d="M264.4,10.4c-.5,0-.9-.4-.9-.5h0v1.3q0,.3.6.3v.2h-1.6v-.2c.5,0,.6,0,.6-.3v-3.4c0-.3,0-.4-.6-.4v-.2h1v.4c.1-.2.4-.5,1-.5s1.5.7,1.5,1.6-.8,1.6-1.6,1.6h0ZM264.4,7.3c-.4,0-.7.2-.9.6v1.6c0,.1,0,.2.1.3.2.3.5.4.8.4.5,0,1-.6,1-1.5s-.4-1.5-1-1.5h0Z"/>
    <path d="M269.2,10.3c-.3,0-.5-.3-.6-.6-.1.3-.5.6-.9.6s-1.2-.2-1.2-.8.2-.7.7-.9,1-.2,1.3-.3v-.3c0-.6-.4-.9-.8-.9s-.6,0-.8.3c.3,0,.4.2.4.3,0,.2-.1.3-.3.3s-.3,0-.3-.3c0-.5.5-.8,1.1-.8s.7,0,1,.4.3.5.3.9v1.4s0,.4.3.4.3,0,.3-.5v-.4h.2v.4c0,.6-.4.7-.6.7h-.1ZM268.6,8.6c-1.2,0-1.5.6-1.5,1s.3.6.7.6.8-.2.8-.9v-.7Z"/>
    <path d="M271.5,10.4c-.3,0-.9,0-.9-1v-2h-.6v-.2c.7,0,.9-.8.9-1.4h.2v1.3h1v.2h-1v2c0,.1,0,.8.5.8s.5-.3.5-.8v-.4h.2v.4c0,.5-.2,1-.7,1h-.1Z"/>
    <path d="M273.7,10.3h-.8v-.2c.5,0,.6,0,.6-.3v-1.9q0-.4-.5-.4v-.2h1v2.6q0,.3.5.3v.2h-.8ZM273.6,6.3c-.2,0-.4-.2-.4-.4s.1-.4.4-.4.4.2.4.4-.1.4-.4.4Z"/>
    <path d="M276.8,10.4c-.5,0-.8-.4-.9-.5l-.3.4h-.2v-4.3q0-.4-.6-.4v-.2h1v2.2c.1,0,.4-.5,1-.5s1.5.7,1.5,1.6-.8,1.6-1.6,1.6h.1ZM277.6,7.7c-.2-.3-.4-.5-.8-.5s-.6,0-.9.5v1.8c0,.1,0,.2.1.3.2.3.4.4.8.4s.7-.2.8-.5c.2-.3.2-.8.2-1s0-.7-.2-1Z"/>
    <path d="M279.7,10.3h-.8v-.2c.5,0,.6,0,.6-.3v-3.8q0-.4-.6-.4v-.2h1v4.4q0,.3.6.3v.2h-.8Z"/>
    <path d="M282.4,10.4c-.8,0-1.6-.7-1.6-1.7s.7-1.6,1.5-1.6,1.3.7,1.3,1.4,0,.2-.2.2h-2c0,.3,0,.7.2,1.1.2.3.5.5.8.5s.7,0,1-.7h0s-.3.8-1.2.8h.2ZM282.3,7.2c-.2,0-.9.2-.9,1.3h1.7c0-.3,0-1.3-.8-1.3h0Z"/>
    <path d="M292.8,6.1l-1.4,4.2s0,.1-.1.1-.1,0-.1-.1l-1.2-3.7-1.2,3.7s0,.1-.1.1-.1,0-.1-.1l-1.4-4.4c0-.3-.1-.3-.7-.3v-.2h1.9v.2c-.2,0-.6,0-.6.2s0,0,0,0l1.2,3.6,1-3.1-.2-.5c0-.3-.2-.3-.6-.3v-.2h1.9v.2c-.2,0-.6,0-.6.2s0,0,0,0l1.2,3.5,1.1-3.3h0c0-.2-.1-.5-.6-.5v-.2h1.6v.2c-.3,0-.6,0-.7.5h-.3Z"/>
    <path d="M295.4,7.9c-.2,0-.3,0-.3-.3s.1-.3.2-.3h0c-.5,0-.9.6-.9,1.4v1.1q0,.3.5.3h.2v.2h-1.7v-.2c.5,0,.6,0,.6-.3v-1.9q0-.4-.6-.4v-.2h1v.7c.1-.3.4-.8.9-.8s.5.2.5.4-.2.3-.3.3h-.1Z"/>
    <path d="M296.9,10.3h-.8v-.2c.5,0,.6,0,.6-.3v-1.9q0-.4-.5-.4v-.2h1v2.6q0,.3.5.3v.2h-.8ZM296.9,6.3c-.2,0-.4-.2-.4-.4s.1-.4.4-.4.4.2.4.4-.1.4-.4.4Z"/>
    <path d="M299.6,10.4c-.3,0-.9,0-.9-1v-2h-.6v-.2c.7,0,.9-.8.9-1.4h.2v1.3h1v.2h-1v2c0,.1,0,.8.5.8s.5-.3.5-.8v-.4h.2v.4c0,.5-.2,1-.7,1h-.1Z"/>
    <path d="M302.5,10.4c-.8,0-1.6-.7-1.6-1.7s.7-1.6,1.5-1.6,1.3.7,1.3,1.4,0,.2-.2.2h-2c0,.3,0,.7.2,1.1.2.3.5.5.8.5s.7,0,1-.7h0s-.3.8-1.2.8h.2ZM302.4,7.2c-.2,0-.9.2-.9,1.3h1.7c0-.3,0-1.3-.8-1.3h0Z"/>
  </g>
  <path class="st2" d="M23.2,34.5"/>
  <line class="st2" x1="23.8" y1="35.6" x2="35.3" y2="35.6"/>
  <g>
    <path d="M26.8,41.6c-1.3,0-2.5-1.1-2.5-2.6s1.2-2.6,2.5-2.6,1.1.4,1.3.6l.4-.5h.1v1.9q0,.2-.1.2t-.1,0c-.1-1.1-.8-1.7-1.6-1.7s-1.8.2-1.8,2.4,1.4,2.4,1.9,2.4c.8,0,1.6-.6,1.6-1.6h0q0,0,0,0c0,.8-.7,1.8-1.9,1.8l.2-.2Z"/>
    <path d="M34,41.4h-4.2v-.2h.2q.6,0,.6-.3v-3.8q0-.3-.6-.3h-.2v-.2h4.1l.2,1.6h-.2c0-1-.3-1.4-1.4-1.4h-.9c-.3,0-.4,0-.4.3v1.7h.6c.7,0,.8-.2.8-.8h.2v1.9h-.2c0-.6,0-.8-.8-.8h-.6v1.9c0,.2,0,.3.4.3h1c1.2,0,1.4-.5,1.6-1.6h.2l-.3,1.9v-.2Z"/>
  </g>
  <path class="st2" d="M28.1,123.8"/>
  <path d="M31.7,127.5c-.3,0-.5-.3-.6-.6,0,.3-.5.6-.9.6s-1.2-.2-1.2-.8.2-.7.7-.9c.5-.2,1-.2,1.3-.3v-.3c0-.6-.4-.9-.8-.9s-.6,0-.8.3c.3,0,.4.2.4.3,0,.2-.1.3-.3.3s-.3,0-.3-.3c0-.5.5-.8,1.1-.8s.7,0,1,.4.3.5.3.9v1.4s0,.4.3.4.3,0,.3-.5v-.4h.2v.4c0,.6-.4.7-.6.7h-.1ZM31.1,125.8c-1.2,0-1.5.6-1.5,1s.3.6.6.6.8-.2.8-.9v-.7h.1Z"/>
  <path class="st2" d="M28.6,157.6"/>
  <path d="M31.9,163.3v-.5c-.2.2-.5.5-1,.5-.8,0-1.5-.7-1.5-1.6s.8-1.6,1.6-1.6.7.2.9.4v-1.6q0-.4-.6-.4v-.2h1v4.3q0,.4.6.4v.2h-1.1,0ZM31.9,160.9v-.3c-.2-.3-.5-.4-.8-.4s-.7.2-.8.5c-.2.3-.2.8-.2,1s0,.7.2,1,.4.5.8.5.6-.2.9-.5v-1.8h-.1Z"/>
  <path class="st2" d="M21.5,59.2"/>
  <line class="st2" x1="22.1" y1="60.3" x2="35.7" y2="60.3"/>
  <g>
    <path d="M28.7,61.9l-1.4,4.2s0,0-.1,0-.1,0-.1,0l-1.2-3.7-1.2,3.7s0,0-.1,0-.1,0-.1,0l-1.4-4.4c0-.3-.1-.3-.7-.3v-.2h1.9v.2c-.2,0-.6,0-.6.2s0,0,0,0l1.2,3.6,1-3.1-.2-.5c0-.3-.2-.3-.6-.3v-.2h1.9v.2c-.2,0-.6,0-.6.2s0,0,0,0l1.2,3.5,1.1-3.3h0c0-.2-.1-.5-.6-.5v-.2h1.6v.2c-.3,0-.6,0-.7.5h-.3Z"/>
    <path d="M34.9,66.1h-4.2v-.2h.2q.6,0,.6-.3v-3.8q0-.3-.6-.3h-.2v-.2h4.1l.2,1.6h-.2c0-1-.3-1.4-1.4-1.4h-.9c-.3,0-.4,0-.4.3v1.7h.6c.7,0,.8-.2.8-.8h.2v1.9h-.2c0-.6,0-.8-.8-.8h-.6v1.9c0,.2,0,.3.4.3h1c1.2,0,1.4-.5,1.6-1.6h.2l-.3,1.9v-.2Z"/>
  </g>
  <path class="st2" d="M22.1,84.1"/>
  <line class="st2" x1="22.7" y1="85.1" x2="34.2" y2="85.1"/>
  <g>
    <path d="M25.5,91.1c-1.3,0-2.4-1.1-2.4-2.6s1.1-2.6,2.4-2.6,2.4,1.2,2.4,2.6-1.1,2.6-2.4,2.6ZM25.5,86c-.6,0-1.7.5-1.7,2.4s1,2.5,1.7,2.5,1.7-.6,1.7-2.5-1-2.4-1.7-2.4Z"/>
    <path d="M32.9,90.9h-4.2v-.2h.2q.6,0,.6-.3v-3.8q0-.3-.6-.3h-.2v-.2h4.1l.2,1.6h-.2c0-1-.3-1.4-1.4-1.4h-.9c-.3,0-.4,0-.4.3v1.7h.6c.7,0,.8-.2.8-.8h.2v1.9h-.2c0-.6,0-.8-.8-.8h-.6v1.9c0,.2,0,.3.4.3h1c1.2,0,1.4-.5,1.6-1.6h.2l-.3,1.9v-.2Z"/>
  </g>
  <path class="st2" d="M63.1,121.7"/>
  <g>
    <path d="M68,127.5h-1v-.2c.2,0,.6,0,.6-.2s0,0,0,0l-.4-1.1h-1.8l-.3.9h0c0,.3.2.5.5.5v.2h-1.5v-.2c.4,0,.7,0,.8-.5l1.5-4.3q0,0,.2,0c.2,0,0,0,.2,0l1.6,4.5c0,.2.2.3.6.3h0v.2h-1.1ZM66.2,123.3l-.8,2.3h1.6s-.8-2.3-.8-2.3Z"/>
    <path d="M71.7,127.6v-.5c-.2.2-.5.5-1,.5-.8,0-1.5-.7-1.5-1.6s.8-1.6,1.6-1.6.7.2.9.4v-1.6q0-.4-.6-.4v-.2h1v4.3q0,.4.6.4v.2h-1.1,0ZM71.7,125.2v-.3c-.2-.3-.5-.4-.8-.4s-.7.2-.8.5c-.2.3-.2.8-.2,1s0,.7.2,1,.4.5.8.5.6-.2.9-.5v-1.8h0Z"/>
    <path d="M75.7,127.6v-.5c-.2.2-.5.5-1,.5-.8,0-1.5-.7-1.5-1.6s.8-1.6,1.6-1.6.7.2.9.4v-1.6q0-.4-.6-.4v-.2h1v4.3q0,.4.6.4v.2h-1.1,0ZM75.7,125.2v-.3c-.2-.3-.5-.4-.8-.4s-.7.2-.8.5c-.2.3-.2.8-.2,1s0,.7.2,1,.4.5.8.5.6-.2.9-.5v-1.8h0Z"/>
    <path d="M79.3,125.1c-.2,0-.3,0-.3-.3s0-.3.2-.3h0c-.5,0-.9.6-.9,1.4v1.1q0,.3.5.3h.2v.2h-1.7v-.2c.5,0,.6,0,.6-.3v-1.9q0-.4-.6-.4v-.2h1v.7c0-.3.4-.8.9-.8s.5.2.5.4-.2.3-.3.3h0Z"/>
    <path d="M81.6,127.6c-.8,0-1.6-.7-1.6-1.7s.7-1.6,1.5-1.6,1.3.7,1.3,1.4,0,.2-.2.2h-2c0,.3,0,.7.2,1.1.2.3.5.5.8.5s.7,0,1-.7h0s-.3.8-1.2.8h.2ZM81.5,124.4c-.2,0-.9.2-.9,1.3h1.7c0-.3,0-1.3-.8-1.3Z"/>
    <path d="M84.4,127.6c-.2,0-.5,0-.8-.3,0,0,0,.2,0,.2q0,0-.2,0v-1.4h0c0,.7.4,1.1,1,1.1s.8-.3.8-.7-.6-.6-.8-.7c-.5,0-.7,0-1-.3-.2-.2-.3-.4-.3-.6,0-.4.3-.9,1.2-.9s.4,0,.7.2c0,0,0,0,0,0h0v1.1h0c0-.2,0-.9-.8-.9s-.8.3-.8.5c0,.4.5.5.9.6.3,0,.6,0,.8.3,0,0,.3.3.3.7s-.3,1-1.2,1h0Z"/>
    <path d="M87.3,127.6c-.2,0-.5,0-.8-.3,0,0,0,.2,0,.2q0,0-.2,0v-1.4h0c0,.7.4,1.1,1,1.1s.8-.3.8-.7-.6-.6-.8-.7c-.5,0-.7,0-1-.3-.2-.2-.3-.4-.3-.6,0-.4.3-.9,1.2-.9s.4,0,.7.2c0,0,0,0,0,0h0v1.1h0c0-.2,0-.9-.8-.9s-.8.3-.8.5c0,.4.5.5.9.6.3,0,.6,0,.8.3,0,0,.3.3.3.7s-.3,1-1.2,1h0Z"/>
    <path d="M95.5,123.3l-1.6,4.2q0,0-.2,0c-.2,0,0,0-.2-.2l-1.7-4.4c0-.3-.2-.3-.7-.3v-.2h1.9v.2c-.2,0-.6,0-.6.2h0c0,0,1.4,3.7,1.4,3.7l1.3-3.5h0c0-.3-.2-.5-.5-.5v-.2h1.5v.2c-.5,0-.7.2-.8.5l.2.2Z"/>
    <path d="M98.9,127.5c-.3,0-.5-.3-.6-.6,0,.3-.5.6-.9.6s-1.2-.2-1.2-.8.2-.7.7-.9c.5-.2,1-.2,1.3-.3v-.3c0-.6-.4-.9-.8-.9s-.6,0-.8.3c.3,0,.4.2.4.3,0,.2,0,.3-.3.3s-.3,0-.3-.3c0-.5.5-.8,1.1-.8s.7,0,1,.4.3.5.3.9v1.4s0,.4.3.4.3,0,.3-.5v-.4h.2v.4c0,.6-.4.7-.6.7h0ZM98.2,125.8c-1.2,0-1.5.6-1.5,1s.3.6.6.6.8-.2.8-.9v-.7h0Z"/>
    <path d="M100.5,127.5h-.8v-.2c.5,0,.6,0,.6-.3v-3.8q0-.4-.6-.4v-.2h1v4.4q0,.3.6.3v.2s-.8,0-.8,0Z"/>
    <path d="M102.5,127.5h-.8v-.2c.5,0,.6,0,.6-.3v-1.9q0-.4-.5-.4v-.2h1v2.6q0,.3.5.3v.2h-.8,0ZM102.5,123.5c-.2,0-.4-.2-.4-.4s0-.4.4-.4.4.2.4.4,0,.4-.4.4Z"/>
    <path d="M106.2,127.6v-.5c-.2.2-.5.5-1,.5-.8,0-1.5-.7-1.5-1.6s.8-1.6,1.6-1.6.7.2.9.4v-1.6q0-.4-.6-.4v-.2h1v4.3q0,.4.6.4v.2h-1.1,0ZM106.2,125.2v-.3c-.2-.3-.5-.4-.8-.4s-.7.2-.8.5c-.2.3-.2.8-.2,1s0,.7.2,1,.4.5.8.5.6-.2.9-.5v-1.8h0Z"/>
  </g>
  <path class="st2" d="M148,155.8"/>
  <g>
    <path d="M151.5,161.5h-2.6v-.2h.2q.6,0,.6-.3v-3.8q0-.3-.6-.3h-.2v-.2h2.6c1.2,0,2.2,1.1,2.2,2.5s-1,2.4-2.2,2.4h0ZM152.6,157.4c-.4-.5-.9-.7-1.3-.7h-.7c-.3,0-.4,0-.4.3v3.9c0,.2,0,.3.4.3h.7c.7,0,1.1-.4,1.3-.6.3-.4.4-.8.4-1.6s0-1.2-.4-1.6h0Z"/>
    <path d="M157.1,161.5c-.3,0-.5-.3-.6-.6-.1.3-.5.6-.9.6s-1.2-.2-1.2-.8.2-.7.7-.9,1-.2,1.3-.3v-.3c0-.6-.4-.9-.8-.9s-.6,0-.8.3c.3,0,.4.2.4.3,0,.2-.1.3-.3.3s-.3-.1-.3-.3c0-.5.5-.8,1.1-.8s.7.1,1,.4c.3.3.3.5.3.9v1.4s0,.4.3.4.3,0,.3-.5v-.4h.2v.4c0,.6-.4.7-.6.7h0ZM156.4,159.7c-1.2,0-1.5.6-1.5,1s.3.6.7.6.8-.2.8-.9v-.7h0Z"/>
    <path d="M159.4,161.5c-.3,0-.9,0-.9-1v-2h-.6v-.2c.7,0,.9-.8.9-1.4h.2v1.3h1v.2h-1v2c0,.1,0,.8.5.8s.5-.3.5-.8v-.4h.2v.4c0,.5-.2,1-.7,1h0Z"/>
    <path d="M163.5,161.5c-.3,0-.5-.3-.6-.6-.1.3-.5.6-.9.6s-1.2-.2-1.2-.8.2-.7.7-.9,1-.2,1.3-.3v-.3c0-.6-.4-.9-.8-.9s-.6,0-.8.3c.3,0,.4.2.4.3,0,.2-.1.3-.3.3s-.3-.1-.3-.3c0-.5.5-.8,1.1-.8s.7.1,1,.4c.3.3.3.5.3.9v1.4s0,.4.3.4.3,0,.3-.5v-.4h.2v.4c0,.6-.4.7-.6.7h0ZM162.9,159.7c-1.2,0-1.5.6-1.5,1s.3.6.7.6.8-.2.8-.9v-.7h0Z"/>
    <path d="M171,157.2l-1.6,4.2q0,.1-.2.1c-.2,0-.1,0-.2-.2l-1.7-4.4c-.1-.3-.2-.3-.7-.3v-.2h1.9v.2c-.2,0-.6,0-.6.2h0c0,.1,1.4,3.7,1.4,3.7l1.3-3.5h0c0-.3-.2-.5-.5-.5v-.2h1.5v.2c-.5,0-.7.2-.8.5l.2.2Z"/>
    <path d="M174.3,161.5c-.3,0-.5-.3-.6-.6-.1.3-.5.6-.9.6s-1.2-.2-1.2-.8.2-.7.7-.9,1-.2,1.3-.3v-.3c0-.6-.4-.9-.8-.9s-.6,0-.8.3c.3,0,.4.2.4.3,0,.2-.1.3-.3.3s-.3-.1-.3-.3c0-.5.5-.8,1.1-.8s.7.1,1,.4c.3.3.3.5.3.9v1.4s0,.4.3.4.3,0,.3-.5v-.4h.2v.4c0,.6-.4.7-.6.7h0ZM173.7,159.7c-1.2,0-1.5.6-1.5,1s.3.6.7.6.8-.2.8-.9v-.7h0Z"/>
    <path d="M176,161.4h-.8v-.2c.5,0,.6,0,.6-.3v-3.8q0-.4-.6-.4v-.2h1v4.4q0,.3.6.3v.2h-.8Z"/>
    <path d="M178,161.4h-.8v-.2c.5,0,.6,0,.6-.3v-1.9q0-.4-.5-.4v-.2h1v2.6q0,.3.5.3v.2h-.8ZM177.9,157.5c-.2,0-.4-.2-.4-.4s.1-.4.4-.4.4.2.4.4-.1.4-.4.4Z"/>
    <path d="M181.7,161.5v-.5c-.2.2-.5.5-1,.5-.8,0-1.5-.7-1.5-1.6s.8-1.6,1.6-1.6.7.2.9.4v-1.6q0-.4-.6-.4v-.2h1v4.3q0,.4.6.4v.2h-1.1.1ZM181.7,159.1v-.3c-.2-.3-.5-.4-.8-.4s-.7.2-.8.5c-.2.3-.2.8-.2,1s0,.7.2,1,.4.5.8.5.6-.2.9-.5v-1.8h0Z"/>
  </g>
  <path class="st2" d="M275.5,155"/>
  <path d="M277.1,162.8c-.1,0-.1-.1-.1-.2v-6.7c0-.1,0-.2.1-.2s.1.1.1.2v6.7c0,.1,0,.2-.1.2Z"/>
  <path d="M280.9,161.1v-.5c-.2.2-.5.5-1,.5-.8,0-1.5-.7-1.5-1.6s.8-1.6,1.6-1.6.7.2.9.4v-1.6q0-.4-.6-.4v-.2h1v4.3q0,.4.6.4v.2h-1.1.1ZM280.9,158.7v-.3c-.2-.3-.5-.4-.8-.4s-.7.2-.8.5c-.2.3-.2.8-.2,1s0,.7.2,1,.4.5.8.5.6-.2.9-.5v-1.8h-.1Z"/>
  <path d="M282.9,162.8c-.1,0-.1-.1-.1-.2v-6.7c0-.1,0-.2.1-.2s.1.1.1.2v6.7c0,.1,0,.2-.1.2Z"/>
  <path class="st2" d="M274.6,123"/>
  <path d="M276.3,130.8c-.1,0-.1-.1-.1-.2v-6.7c0,0,0-.2.1-.2s.1,0,.1.2v6.7c0,.1,0,.2-.1.2Z"/>
  <path d="M280.2,129.1c-.3,0-.5-.3-.6-.6-.1.3-.5.6-.9.6s-1.2-.2-1.2-.8.2-.7.7-.9c.5-.2,1-.2,1.3-.3v-.3c0-.6-.4-.9-.8-.9s-.6,0-.8.3c.3,0,.4.2.4.3,0,.2-.1.3-.3.3s-.3,0-.3-.3c0-.5.5-.8,1.1-.8s.7,0,1,.4.3.5.3.9v1.4s0,.4.3.4.3,0,.3-.5v-.4h.2v.4c0,.6-.4.7-.6.7h-.1ZM279.6,127.3c-1.2,0-1.5.6-1.5,1s.3.6.7.6.8-.2.8-.9v-.7Z"/>
  <path d="M282.1,130.8c-.1,0-.1-.1-.1-.2v-6.7c0,0,0-.2.1-.2s.1,0,.1.2v6.7c0,.1,0,.2-.1.2Z"/>
  <path class="st2" d="M68.7,18.3"/>
  <path d="M71,23.5c-.3,0-.9,0-.9-1v-2h-.6v-.2c.7,0,.9-.8.9-1.4h.2v1.3h1v.2h-1v2c0,.1,0,.8.5.8s.5-.3.5-.8v-.4h.2v.4c0,.5-.2,1-.7,1h0Z"/>
  <g>
    <path d="M74.1,24.5c-.2,0-.4-.2-.4-.4,0,.2-.3.5-.7.5s-.8-.1-.8-.6,0-.5.5-.7c.3-.2.7-.2,1-.2v-.2c0-.5-.3-.7-.6-.7s-.4,0-.6.2c.2,0,.3.2.3.2,0,.1,0,.2-.2.2s-.2,0-.2-.2c0-.3.4-.6.8-.6s.5,0,.7.3c.2.2.2.4.2.6v1.1s0,.3.2.3.2,0,.2-.3v-.3h0v.3c0,.4-.3.5-.4.5h0ZM73.7,23.2c-.9,0-1.1.5-1.1.8s.2.4.5.4.6-.2.6-.7c0,0,0-.5,0-.5Z"/>
    <path d="M75.6,24.5c0,0-.3,0-.6-.2q0,.1,0,.1h0q0,.1,0,0v-.7h0c0,.3.3.6.7.6s.6-.2.6-.5-.4-.5-.5-.5c-.4,0-.5-.1-.7-.2,0-.1-.2-.3-.2-.4,0-.3.2-.6.8-.6s.3,0,.5.1h0v.6h0c0-.1,0-.5-.6-.5s-.6.2-.6.4c0,.3.4.4.6.4s.4,0,.6.3c0,0,.2.2.2.5s-.2.7-.8.7h0Z"/>
  </g>
  <path class="st2" d="M109,5.5"/>
  <path d="M111.3,10.6c-.3,0-.9,0-.9-1v-2h-.6v-.2c.7,0,.9-.8.9-1.4h.2v1.3h1v.2h-1v2c0,.1,0,.8.5.8s.5-.3.5-.8v-.4h.2v.4c0,.5-.2,1-.7,1h0Z"/>
  <g>
    <path d="M115.4,9.9l-.6,1.7s0,.1,0,.1,0,0,0-.1l-.5-1.5-.5,1.5s0,.1,0,.1,0,0,0-.1l-.7-1.9c0-.2,0-.2-.4-.2v-.2h1.1v.2c0,0-.3,0-.3.1s0,0,0,0l.5,1.4.5-1.3c0-.1,0-.3,0-.3h-.3v-.2h1c0,.1-.3.1-.3.2s0,0,0,0l.5,1.5.5-1.3h0c0-.3,0-.3-.3-.4v-.2h.9v.2c-.2,0-.3,0-.4.3l-.2.4Z"/>
    <path d="M117.1,11.7c-.6,0-1.1-.5-1.1-1.2s.5-1.2,1.1-1.2.8.2.8.6,0,.2-.2.2-.2-.1-.2-.2,0-.2.2-.2c-.2-.2-.5-.2-.6-.2-.3,0-.7.2-.7,1.1s.5,1.1.7,1.1.5,0,.7-.6h0s-.2.7-.9.7h.2Z"/>
  </g>
  <path class="st2" d="M133.2,18.6"/>
  <path d="M135.5,23.7c-.3,0-.9,0-.9-1v-2h-.6v-.2c.7,0,.9-.8.9-1.4h.2v1.3h1v.2h-1v2c0,.1,0,.8.5.8s.5-.3.5-.8v-.4h.2v.4c0,.5-.2,1-.7,1h0Z"/>
  <g>
    <path d="M138.4,24.9v-.3c-.1.2-.4.3-.7.3-.6,0-1.1-.5-1.1-1.2s.6-1.2,1.2-1.2.5.1.7.3v-1.1q0-.3-.4-.3v-.2h.8v3.1q0,.3.4.3v.2h-.9ZM138.4,23.1v-.2c-.2-.2-.4-.3-.6-.3-.3,0-.5.2-.6.3-.2.2-.2.6-.2.7s0,.5.2.7c.1.2.3.3.6.3s.5-.1.6-.4v-1.3.2Z"/>
    <path d="M140.4,24.9c-.1,0-.3,0-.6-.2q0,.1-.1.1h-.1q0,.1,0,0v-.7h0c.1.3.3.6.7.6s.6-.2.6-.5-.4-.5-.5-.5c-.4,0-.5-.1-.7-.2-.1-.1-.2-.3-.2-.4,0-.3.2-.6.8-.6s.3,0,.5.1h.1v.6h0c0-.1,0-.5-.6-.5s-.6.2-.6.4c0,.3.4.4.6.4s.4,0,.6.3c0,0,.2.2.2.5s-.2.7-.8.7h.1Z"/>
  </g>
  <path class="st2" d="M172.4,13.4"/>
  <path d="M174.7,18.5c-.3,0-.9,0-.9-1v-2h-.6v-.2c.7,0,.9-.8.9-1.4h.2v1.3h1v.2h-1v2c0,.1,0,.8.5.8s.5-.3.5-.8v-.4h.2v.4c0,.5-.2,1-.7,1h0Z"/>
  <g>
    <path d="M177.6,19.7v-.3c-.1.2-.4.3-.7.3-.6,0-1.1-.5-1.1-1.2s.6-1.2,1.2-1.2.5.1.7.3v-1.1q0-.3-.4-.3v-.2h.8v3.1q0,.3.4.3v.2h-.9ZM177.6,17.9v-.2c-.2-.2-.4-.3-.6-.3-.3,0-.5.2-.6.3-.2.2-.2.6-.2.7s0,.5.2.7c.1.2.3.3.6.3s.5-.1.6-.4v-1.3.2Z"/>
    <path d="M180.8,19.6h-.6q.4-.1.4-.3v-1.2c0-.3,0-.6-.4-.6s-.7.3-.7.8v1q0,.2.4.2v.2h-1.2v-.2q.4,0,.4-.2v-2.7q0-.3-.4-.3v-.2h.8v1.8h0c0-.2.3-.5.8-.5s.5.1.6.2c.2.2.2.4.2.8v1c0,.2.1.2.4.2v.2h-.6v-.2Z"/>
  </g>
  <path class="st2" d="M98.6,18.2"/>
  <path d="M100.9,23.3c-.3,0-.9,0-.9-1v-2h-.6v-.2c.7,0,.9-.8.9-1.4h.2v1.3h1v.2h-1v2c0,.1,0,.8.5.8s.5-.3.5-.8v-.4h.2v.4c0,.5-.2,1-.7,1h0Z"/>
  <g>
    <path d="M104,24.4c-.2,0-.4-.2-.4-.4,0,.2-.3.5-.7.5s-.8-.1-.8-.6,0-.5.5-.7c.3-.2.7-.2,1-.2v-.2c0-.5-.3-.7-.6-.7s-.4,0-.6.2c.2,0,.3.2.3.2,0,.1,0,.2-.2.2s-.2,0-.2-.2c0-.3.4-.6.8-.6s.5,0,.7.3c.2.2.2.4.2.6v1.1s0,.3.2.3.2,0,.2-.3v-.3h0v.3c0,.4-.3.5-.4.5h0ZM103.5,23.1c-.9,0-1.1.5-1.1.8s.2.4.5.4.6-.2.6-.7c0,0,0-.5,0-.5Z"/>
    <path d="M106.7,24.4h-.6q.4-.1.4-.3v-1.2c0-.3,0-.6-.4-.6s-.7.3-.7.8v1q0,.2.4.2v.2h-1.2v-.2q.4,0,.4-.2v-2.7q0-.3-.4-.3v-.2h.8v1.8h0c0-.2.3-.5.8-.5s.5.1.6.2c.2.2.2.4.2.8v1c0,.2,0,.2.4.2v.2h-.6v-.2Z"/>
  </g>
  <path class="st2" d="M102,31.9"/>
  <path d="M104.3,37.1c-.3,0-.9,0-.9-1v-2h-.6v-.2c.7,0,.9-.8.9-1.4h.2v1.3h1v.2h-1v2c0,0,0,.8.5.8s.5-.3.5-.8v-.4h.2v.4c0,.5-.2,1-.7,1h0Z"/>
  <g>
    <path d="M106.8,38.1c-.4,0-.6-.3-.6-.4h0v.9q0,.2.4.2v.2h-1.2v-.2q.4,0,.4-.2v-2.5c0-.2,0-.3-.4-.3v-.2h.8v.3c0,0,.3-.3.7-.3.6,0,1.1.5,1.1,1.2s-.5,1.2-1.2,1.2h0ZM106.9,35.9c-.3,0-.5.2-.7.4v1.4c0,.2.3.3.6.3s.8-.4.8-1.1-.3-1.1-.7-1.1h0Z"/>
    <path d="M111.3,36.3l-.6,1.7s0,0,0,0,0,0,0,0l-.5-1.5-.5,1.5s0,0,0,0,0,0,0,0l-.7-1.9c0-.2,0-.2-.4-.2v-.2h1.1v.2c0,0-.3,0-.3,0s0,0,0,0l.5,1.4.5-1.3c0,0,0-.3,0-.3h-.3v-.2h1c0,0-.3,0-.3.2s0,0,0,0l.5,1.5.5-1.3h0c0-.3,0-.3-.3-.4v-.2h.9v.2c-.2,0-.3,0-.4.3l-.2.4Z"/>
    <path d="M113,38.1c-.6,0-1.1-.5-1.1-1.2s.5-1.2,1.1-1.2.8.2.8.6,0,.2-.2.2-.2,0-.2-.2,0-.2.2-.2c-.2-.2-.5-.2-.6-.2-.3,0-.7.2-.7,1.1s.5,1.1.7,1.1.5,0,.7-.6h0s-.2.7-.9.7h.2Z"/>
  </g>
</svg>