<?xml version="1.0" encoding="UTF-8"?>
<svg id="Ebene_1" xmlns="http://www.w3.org/2000/svg" xmlns:xlink="http://www.w3.org/1999/xlink" version="1.1" viewBox="0 0 417.1 156.7">
  <!-- Generator: Adobe Illustrator 30.0.0, SVG Export Plug-In . SVG Version: 2.1.1 Build 123)  -->
  <defs>
    <style>
      .st0, .st1, .st2, .st3, .st4 {
        fill: none;
      }

      .st1 {
        stroke-dasharray: .7 2;
      }

      .st1, .st5, .st2, .st3, .st4 {
        stroke: #000;
      }

      .st1, .st5, .st3 {
        stroke-miterlimit: 10;
      }

      .st1, .st3 {
        stroke-width: .6px;
      }

      .st6 {
        clip-path: url(#clippath-1);
      }

      .st7 {
        clip-path: url(#clippath-3);
      }

      .st8 {
        clip-path: url(#clippath-4);
      }

      .st9 {
        clip-path: url(#clippath-2);
      }

      .st10 {
        clip-path: url(#clippath-5);
      }

      .st11 {
        fill-rule: evenodd;
      }

      .st5, .st12 {
        fill: #fff;
      }

      .st2 {
        stroke-miterlimit: 10;
        stroke-width: .6px;
      }

      .st4 {
        stroke-miterlimit: 10;
        stroke-width: 1.2px;
      }

      .st13 {
        clip-path: url(#clippath);
      }
    </style>
    <clipPath id="clippath">
      <rect class="st0" x="29.5" y="8.1" width="27.1" height="26.9"/>
    </clipPath>
    <clipPath id="clippath-1">
      <rect class="st0" x="29.5" y="8.1" width="27.1" height="26.9"/>
    </clipPath>
    <clipPath id="clippath-2">
      <rect class="st0" x="28.2" y="67" width="27.1" height="26.9"/>
    </clipPath>
    <clipPath id="clippath-3">
      <rect class="st0" x="28.2" y="67" width="27.1" height="26.9"/>
    </clipPath>
    <clipPath id="clippath-4">
      <rect class="st0" x="28.1" y="115.4" width="27.1" height="26.9"/>
    </clipPath>
    <clipPath id="clippath-5">
      <rect class="st0" x="28.1" y="115.4" width="27.1" height="26.9"/>
    </clipPath>
  </defs>
  <path class="st3" d="M43,21.5"/>
  <rect class="st5" x="-40.3" y="-40.8" width="542.9" height="332.2"/>
  <g class="st13">
    <g>
      <g class="st6">
        <g>
          <path class="st11" d="M53.7,30.2h-22.9c-.8,0-1.3-.4-1.3-1v-7.1c0-.2.1-.3.3-.3h24.7c.2,0,.3.1.3.3v7.1c0,.4,0,1-1.2,1h.1ZM30.1,22.4v6.8c0,.3.4.3.7.3h22.9c.5,0,.5-.2.5-.3v-6.8s-24.1,0-24.1,0Z"/>
          <path class="st11" d="M35.3,22.4c-.2,0-.3-.1-.3-.3v-11.9c0-1.2,1-2.1,2.2-2.1h14c.4,0,.4.6,0,.6h-14c-.9,0-1.6.7-1.6,1.5v11.9c0,.2,0,.3-.3.3"/>
          <path class="st11" d="M54.3,34.9h-17.1c-1.2,0-2.2-.9-2.2-2.1v-3c0-.4.6-.4.6,0v3c0,.8.7,1.5,1.6,1.5h17.1c.9,0,1.5-.7,1.5-1.5v-3c0-.4.6-.4.6,0v3c0,1.2-1,2.1-2.2,2.1"/>
          <path class="st11" d="M56.2,31.5c-.2,0-.3-.3-.3-.6V13.6c0-.3,0-.6.3-.6s.3.3.3.6v17.4c0,.3,0,.6-.3.6"/>
          <path class="st11" d="M56.2,13.6h-3c-1.3,0-2.3-1-2.3-2.3v-2.9c0-.3.3-.4.5-.2l5,4.9c.2.2,0,.5-.2.5M51.5,9.1v2.2c0,.9.8,1.7,1.7,1.7h2.2l-3.9-3.8h0Z"/>
          <path class="st11" d="M52.5,15.9h-13.5c-.4,0-.4-.6,0-.6h13.5c.4,0,.4.6,0,.6"/>
          <path class="st11" d="M52.5,18h-13.5c-.4,0-.4-.6,0-.6h13.5c.4,0,.4.6,0,.6"/>
          <path class="st11" d="M52.5,20.1h-13.5c-.4,0-.4-.6,0-.6h13.5c.4,0,.4.6,0,.6"/>
        </g>
      </g>
      <g>
        <path d="M35,27.6c.2,0,.6,0,.6-.2v-1.1l-1.1-1.8c0-.2-.4-.2-.6-.2v-.2h1.5v.2s-.4,0-.4.1,0,0,0,0l1,1.6.9-1.4h0c0-.3-.2-.3-.3-.3v-.2h1.1v.2c-.3,0-.5,0-.7.3l-1,1.7v1.1c0,.2.4.2.6.2v.2h-1.6v-.2Z"/>
        <path d="M38,27.6c.2,0,.5,0,.6-.3l1.1-3.2h0l1.2,3.3c0,.2.4.2.5.2v.2h-1.5v-.2c0,0,.5,0,.5-.1s0,0,0,0l-.3-.8h-1.3l-.2.7h0c0,.2.2.3.4.3v.2h-1.1v-.2h0ZM40.3,26.4l-.6-1.7-.6,1.7s1.2,0,1.2,0Z"/>
        <path d="M42,27.6c.2,0,.6,0,.6-.3v-2.7c0-.2-.4-.2-.6-.2v-.2h1l1.2,3,1.2-3h1v.2c-.2,0-.6,0-.6.2v2.9c0,.2.4.2.6.2v.2h-1.6v-.2c.2,0,.6,0,.6-.2v-3.1l-1.3,3.3h0l-1.3-3.3v2.9c0,.3.3.3.6.3v.2h-1.2v-.2h-.2Z"/>
        <path d="M47,27.6c.2,0,.6,0,.6-.2v-2.9c0-.2-.4-.2-.6-.2v-.2h1.7v.2c-.2,0-.7,0-.7.2v2.9c0,.2,0,.2.3.2h.4c.8,0,1-.5,1.1-1.2h.2l-.2,1.4h-2.8s0-.2,0-.2Z"/>
      </g>
    </g>
  </g>
  <rect class="st3" x="115.3" y="5.1" width="296.8" height="81.4"/>
  <rect class="st3" x="227.9" y="62.5" width="63.6" height="18.7"/>
  <circle class="st12" cx="289.2" cy="72.2" r="10.2" transform="translate(163.6 342.5) rotate(-79.1)"/>
  <circle class="st4" cx="289.2" cy="72.2" r="10.2" transform="translate(163.6 342.5) rotate(-79.1)"/>
  <line class="st3" x1="289.2" y1="72.2" x2="292.9" y2="68.5"/>
  <line class="st3" x1="289.2" y1="72.2" x2="294.8" y2="76.3"/>
  <rect x="288" y="56.7" width="2.7" height="5.3"/>
  <rect class="st3" x="288" y="56.7" width="2.7" height="5.3"/>
  <rect x="293.9" y="61.6" width="2.8" height="1.7" transform="translate(93.1 286.6) rotate(-59.9)"/>
  <rect class="st2" x="293.9" y="61.6" width="2.8" height="1.7" transform="translate(93.1 286.6) rotate(-59.9)"/>
  <rect class="st3" x="127.8" y="62.4" width="63.6" height="18.7"/>
  <rect class="st3" x="327.7" y="49.7" width="63.6" height="31.5"/>
  <path class="st12" d="M390.3,47.5c8.3,0,15,2.7,15,6.1s-6.7,6.1-15,6.1-15-2.7-15-6.1,6.7-6.1,15-6.1M405.3,53.6v22.7c0,3.4-6.7,6.1-15,6.1s-15-2.7-15-6.1v-22.7"/>
  <path class="st3" d="M390.3,47.5c8.3,0,15,2.7,15,6.1s-6.7,6.1-15,6.1-15-2.7-15-6.1,6.7-6.1,15-6.1M405.3,53.6v22.7c0,3.4-6.7,6.1-15,6.1s-15-2.7-15-6.1v-22.7"/>
  <rect class="st3" x="127.6" y="22.6" width="63.6" height="18.7"/>
  <rect class="st3" x="166.9" y="125.1" width="98.3" height="13.8"/>
  <rect class="st1" x="163.9" y="104.2" width="102.6" height="37.5"/>
  <line class="st3" x1="200.1" y1="87.2" x2="200" y2="102.8"/>
  <g>
    <polygon points="197.5 99.2 200 104.7 202.7 99.3 197.5 99.2"/>
    <polygon class="st0" points="197.5 99.2 200 104.7 202.7 99.3 197.5 99.2"/>
  </g>
  <line class="st3" x1="219.8" y1="88.8" x2="219.6" y2="104.4"/>
  <g>
    <polygon points="222.3 92.4 219.8 87 217.1 92.4 222.3 92.4"/>
    <polygon class="st0" points="222.3 92.4 219.8 87 217.1 92.4 222.3 92.4"/>
  </g>
  <line class="st3" x1="272.5" y1="123.6" x2="300.5" y2="123.6"/>
  <g>
    <polygon points="296.9 126.2 302.4 123.6 296.9 121 296.9 126.2"/>
    <polygon class="st0" points="296.9 126.2 302.4 123.6 296.9 121 296.9 126.2"/>
  </g>
  <line class="st3" x1="274.7" y1="131.4" x2="300.3" y2="131.4"/>
  <g>
    <polygon points="278.3 128.8 272.9 131.4 278.3 134 278.3 128.8"/>
    <polygon class="st0" points="278.3 128.8 272.9 131.4 278.3 134 278.3 128.8"/>
  </g>
  <rect class="st3" x="305.6" y="121.3" width="61.9" height="13.8"/>
  <rect class="st3" x="228.8" y="12.7" width="63.6" height="31.5"/>
  <rect class="st3" x="328.3" y="11.5" width="63.6" height="31.5"/>
  <path class="st3" d="M41.8,80.4"/>
  <g class="st9">
    <g>
      <g class="st7">
        <g>
          <path class="st11" d="M52.5,89h-22.6c-.8,0-1.3-.4-1.3-1v-7.1c0-.2.1-.3.3-.3h24.4c.2,0,.3,0,.3.3v7.1c0,.4,0,1-1.2,1h.1ZM29.3,81.2v6.8c0,.3.4.3.7.3h22.6c.5,0,.5-.2.5-.3v-6.8h-23.8Z"/>
          <path class="st11" d="M34.4,81.2c-.2,0-.3,0-.3-.3v-11.9c0-1.2,1-2.1,2.2-2.1h13.8c.4,0,.4.6,0,.6h-13.8c-.8,0-1.5.7-1.5,1.5v11.9c0,.2,0,.3-.3.3"/>
          <path class="st11" d="M53.1,93.8h-16.9c-1.2,0-2.2-.9-2.2-2.1v-3c0-.4.6-.4.6,0v3c0,.8.7,1.5,1.5,1.5h16.9c.8,0,1.5-.7,1.5-1.5v-3c0-.4.6-.4.6,0v3c0,1.2-1,2.1-2.2,2.1"/>
          <path class="st11" d="M55,90.4c-.2,0-.3-.3-.3-.6v-17.4c0-.3,0-.6.3-.6s.3.3.3.6v17.4c0,.3,0,.6-.3.6"/>
          <path class="st11" d="M55,72.5h-3c-1.3,0-2.3-1-2.3-2.3v-2.9c0-.3.3-.4.5-.2l5,4.9c.2.2,0,.5-.2.5M50.3,68v2.2c0,.9.8,1.7,1.7,1.7h2.2l-3.9-3.8h0Z"/>
          <path class="st11" d="M51.4,74.7h-13.3c-.4,0-.4-.6,0-.6h13.3c.4,0,.4.6,0,.6"/>
          <path class="st11" d="M51.4,76.8h-13.3c-.4,0-.4-.6,0-.6h13.3c.4,0,.4.6,0,.6"/>
          <path class="st11" d="M51.4,79h-13.3c-.4,0-.4-.6,0-.6h13.3c.4,0,.4.6,0,.6"/>
        </g>
      </g>
      <g>
        <path d="M35,86.6c.4,0,.5-.4.5-.7v-2.5c0-.2-.6-.2-.7-.2v-.2h1.5v.2c-.2,0-.4,0-.4.2v2.5c0,.5-.5.9-1,.9s-.9-.3-.9-.7,0-.3.3-.3.3,0,.3.3,0,.3-.3.3h0c0,.2.4.3.6.3h.1Z"/>
        <path d="M37,85.5h0c0,.7.5,1.1,1.2,1.1s.7-.4.7-.7-.2-.6-.5-.7l-.7-.2c-.5,0-.8-.5-.8-1s.5-1,1-1,.6,0,.8.4l.2-.3h0v1.2h0c0-.3,0-.6-.3-.8-.2-.2-.4-.3-.7-.3s-.7.3-.7.7.2.6.5.7l.7.2c.5,0,.8.6.8,1.1s-.4,1.1-1,1.1-.7,0-1-.4l-.2.3h0v-1.4Z"/>
        <path d="M40,84.9c0-1,.7-1.9,1.8-1.9s1.8.9,1.8,1.9-.7,1.9-1.8,1.9-1.8-.9-1.8-1.9ZM41.8,86.6c.4,0,.7-.2.9-.5.3-.4.3-.8.3-1.3s0-.9-.3-1.2c-.2-.3-.5-.5-.9-.5s-.7.2-.9.5-.3.8-.3,1.2,0,.9.3,1.3c.2.3.5.5.9.5Z"/>
        <path d="M44,86.5c.2,0,.5,0,.5-.3v-2.9h-.5v-.2h1l1.9,2.7v-2.3c0-.3-.3-.3-.5-.3v-.2h1.2v.2c-.2,0-.5,0-.5.3v3h0l-2.2-3.2v2.8c0,.3.3.3.5.3v.2h-1.2v-.2h-.2Z"/>
      </g>
    </g>
  </g>
  <line class="st3" x1="61.3" y1="86.1" x2="103.5" y2="50.6"/>
  <g>
    <polygon points="102.4 54.9 104.9 49.4 99.1 50.9 102.4 54.9"/>
    <polygon class="st0" points="102.4 54.9 104.9 49.4 99.1 50.9 102.4 54.9"/>
  </g>
  <path class="st3" d="M41.7,128.8"/>
  <g class="st8">
    <g>
      <g class="st10">
        <g>
          <path class="st11" d="M52.4,137.5h-22.6c-.8,0-1.3-.4-1.3-1v-7.1c0-.2.1-.3.3-.3h24.4c.2,0,.3.1.3.3v7.1c0,.4,0,1-1.2,1h.1ZM29.2,129.7v6.8c0,.3.4.3.7.3h22.6c.5,0,.5-.2.5-.3v-6.8h-23.8Z"/>
          <path class="st11" d="M34.3,129.7c-.2,0-.3-.1-.3-.3v-11.9c0-1.2,1-2.1,2.2-2.1h13.8c.4,0,.4.6,0,.6h-13.8c-.8,0-1.5.7-1.5,1.5v11.9c0,.2,0,.3-.3.3"/>
          <path class="st11" d="M53,142.3h-16.9c-1.2,0-2.2-.9-2.2-2.1v-3c0-.4.6-.4.6,0v3c0,.8.7,1.5,1.5,1.5h16.9c.8,0,1.5-.7,1.5-1.5v-3c0-.4.6-.4.6,0v3c0,1.2-1,2.1-2.2,2.1"/>
          <path class="st11" d="M54.9,138.9c-.2,0-.3-.3-.3-.6v-17.4c0-.3,0-.6.3-.6s.3.3.3.6v17.4c0,.3,0,.6-.3.6"/>
          <path class="st11" d="M54.9,120.9h-3c-1.3,0-2.3-1-2.3-2.3v-2.9c0-.3.3-.4.5-.2l5,4.9c.2.2,0,.5-.2.5M50.2,116.5v2.2c0,.9.8,1.7,1.7,1.7h2.2l-3.9-3.8h0Z"/>
          <path class="st11" d="M51.3,123.2h-13.3c-.4,0-.4-.6,0-.6h13.3c.4,0,.4.6,0,.6"/>
          <path class="st11" d="M51.3,125.3h-13.3c-.4,0-.4-.6,0-.6h13.3c.4,0,.4.6,0,.6"/>
          <path class="st11" d="M51.3,127.4h-13.3c-.4,0-.4-.6,0-.6h13.3c.4,0,.4.6,0,.6"/>
        </g>
      </g>
      <g>
        <path d="M34.9,135.1c.4,0,.5-.4.5-.7v-2.5c0-.2-.6-.2-.7-.2v-.2h1.5v.2c-.2,0-.4,0-.4.2v2.5c0,.5-.5.9-1,.9s-.9-.3-.9-.7,0-.3.3-.3.3.1.3.3,0,.3-.3.3h0c0,.2.4.3.6.3h.1Z"/>
        <path d="M36.9,134h0c0,.7.5,1.1,1.2,1.1s.7-.4.7-.7-.2-.6-.5-.7l-.7-.2c-.5-.1-.8-.5-.8-1s.5-1,1-1,.6.1.8.4l.2-.3h0v1.2h0c0-.3,0-.6-.3-.8s-.4-.3-.7-.3-.7.3-.7.7.2.6.5.7l.7.2c.5.1.8.6.8,1.1s-.4,1.1-1,1.1-.7-.1-1-.4l-.2.3h0v-1.4Z"/>
        <path d="M39.9,133.3c0-1,.7-1.9,1.8-1.9s1.8.9,1.8,1.9-.7,1.9-1.8,1.9-1.8-.9-1.8-1.9ZM41.7,135.1c.4,0,.7-.2.9-.5.3-.4.3-.8.3-1.3s0-.9-.3-1.2c-.2-.3-.5-.5-.9-.5s-.7.2-.9.5-.3.8-.3,1.2,0,.9.3,1.3c.2.3.5.5.9.5Z"/>
        <path d="M43.9,134.9c.2,0,.5,0,.5-.3v-2.9h-.5v-.2h1l1.9,2.7v-2.3c0-.3-.3-.3-.5-.3v-.2h1.2v.2c-.2,0-.5,0-.5.3v3h0l-2.2-3.2v2.8c0,.3.3.3.5.3v.2h-1.2v-.2h-.2Z"/>
      </g>
    </g>
  </g>
  <line class="st3" x1="61.3" y1="133.4" x2="108.4" y2="88.6"/>
  <g>
    <polygon points="107.6 93 109.7 87.4 104 89.2 107.6 93"/>
    <polygon class="st0" points="107.6 93 109.7 87.4 104 89.2 107.6 93"/>
  </g>
  <line class="st3" x1="62.5" y1="23.5" x2="109.5" y2="23.5"/>
  <g>
    <polygon points="105.9 26.1 111.3 23.5 105.9 20.9 105.9 26.1"/>
    <polygon class="st0" points="105.9 26.1 111.3 23.5 105.9 20.9 105.9 26.1"/>
  </g>
  <rect class="st3" x="166.1" y="108.5" width="98.3" height="13.8"/>
  <rect class="st3" x="115.3" y="5.1" width="96" height="11"/>
  <path class="st3" d="M15.4,35.7"/>
  <g>
    <path d="M26.6,42.6h-5.1v-.3h.2q.7,0,.7-.4v-4.6c0-.3,0-.4-.7-.4h-.2v-.3h5l.2,2h-.2c-.1-1.2-.4-1.7-1.7-1.7h-1.1q-.4,0-.4.4v2.1h.8c.9,0,1-.3,1-1h.2v2.3h-.2c0-.8,0-1-1-1h-.8v2.4c0,.3,0,.4.4.4h1.2c1.5,0,1.7-.6,1.9-2h.2l-.4,2.3v-.2Z"/>
    <path d="M31,42.6h-1v-.2c.2,0,.3,0,.3-.2s-.1-.2-.2-.3l-.7-.9c-.5.6-.8.9-.8,1.1s0,.2.3.3v.3h-1.5v-.3c.2,0,.7,0,1.1-.5s.4-.5.8-1.1l-.9-1.1q-.4-.5-1-.5v-.3h1.8v.2c-.2,0-.3,0-.3.2v.2l.7.9.5-.7s.1-.2.1-.3,0-.3-.3-.3v-.3h1.5v.3c-.4,0-.8,0-1.1.5-.2.2-.5.7-.8,1l1.2,1.5c.2.3.4.3.8.3v.3h-.8.3Z"/>
    <path d="M34.6,42.7c-.7,0-1-.5-1.1-.6h0v1.6q0,.4.7.4v.3h-2v-.3c.6,0,.7,0,.7-.4v-4.1q0-.4-.7-.4v-.3h1.3v.5c.2-.2.5-.6,1.2-.6,1,0,1.8.9,1.8,2s-.9,2-2,2h0ZM34.6,38.9c-.5,0-.9.3-1.1.7v2q0,.2,0,.4c.2.4.6.5.9.5.7,0,1.3-.7,1.3-1.8s-.5-1.8-1.2-1.8Z"/>
    <path d="M39.3,42.7c-1,0-1.9-.9-1.9-2s.8-2,1.8-2,1.6.9,1.6,1.7,0,.2-.2.2h-2.5c0,.3,0,.9.3,1.3.2.3.6.6,1,.6s.9,0,1.2-.9c0,0,0,0,0,0s0,0,0,0c0,.2-.4,1.2-1.5,1.2h0ZM39.2,38.8c-.3,0-1,.2-1.1,1.5h2.1c0-.3,0-1.5-1-1.5Z"/>
    <path d="M43.9,39.6c-.2,0-.4,0-.4-.4s.2-.3.2-.3h0c-.7,0-1,.8-1,1.7v1.4c0,.3,0,.4.7.4h.2v.3h-2.1v-.2c.6,0,.7,0,.7-.4v-2.4c0-.4,0-.5-.7-.5v-.3h1.2v.9c0-.4.4-1,1.1-1s.7.3.7.5-.2.4-.4.4h-.2Z"/>
    <path d="M45.7,42.6h-1v-.2c.6,0,.7,0,.7-.4v-2.4c0-.4,0-.5-.7-.5v-.3h1.2v3.2c0,.3,0,.4.6.4v.3h-.9.1ZM45.7,37.7c-.3,0-.5-.2-.5-.5s.2-.5.5-.5.5.2.5.5-.2.5-.5.5Z"/>
    <path d="M53.1,42.6h-1v-.2c.6,0,.7,0,.7-.4v-2.1c0-.5,0-1-.7-1s-1.2.5-1.2,1.4v1.6q0,.4.7.4v.3h-2v-.3c.6,0,.7,0,.7-.4v-2.1c0-.5,0-1-.7-1s-1.2.5-1.2,1.4v1.6q0,.4.7.4v.3h-2v-.3c.6,0,.7,0,.7-.4v-2.4c0-.4,0-.5-.7-.5v-.3h1.2v.8c.2-.5.7-.9,1.3-.9s1.1,0,1.2.9c.2-.3.5-.9,1.3-.9s.8.2.9.3c.3.3.3.6.3,1.4v1.7c0,.3.2.3.7.3v.3h-1,0Z"/>
    <path d="M56.5,42.7c-1,0-1.9-.9-1.9-2s.8-2,1.8-2,1.6.9,1.6,1.7,0,.2-.2.2h-2.5c0,.3,0,.9.3,1.3.2.3.6.6,1,.6s.9,0,1.2-.9c0,0,0,0,0,0s0,0,0,0c0,.2-.4,1.2-1.5,1.2h0ZM56.4,38.8c-.3,0-1,.2-1.1,1.5h2.1c0-.3,0-1.5-1-1.5Z"/>
    <path d="M62,42.6h-1v-.2c.6,0,.7,0,.7-.4v-2.1c0-.5,0-1-.7-1s-1.2.5-1.2,1.4v1.6q0,.4.7.4v.3h-2v-.3c.6,0,.7,0,.7-.4v-2.4c0-.4,0-.5-.7-.5v-.3h1.2v.8c.2-.5.7-.9,1.3-.9s.8.2.9.3c.3.3.3.6.3,1.4v1.7c0,.3.2.3.7.3v.3h-1,0Z"/>
    <path d="M65,42.7c-.3,0-1.1,0-1.1-1.2v-2.4h-.8v-.2c.9,0,1.1-1,1.1-1.7h.2v1.6h1.3v.3h-1.3v2.5c0,.2,0,1,.6,1s.6-.3.6-1v-.5h.2v.5c0,.6-.2,1.2-.9,1.2h.1Z"/>
  </g>
  <path d="M20.8,53.8c-1.6,0-3.1-1.4-3.1-3.2s1.4-3.2,3.1-3.2,1.3.4,1.6.8l.4-.7c0,0,.1,0,.1,0v2.3q0,.2-.1.2t-.1-.2c-.2-1.3-1-2.1-1.9-2.1s-2.3.3-2.3,2.9,1.7,2.9,2.3,2.9c1,0,1.9-.7,2-2,0,0,0,0,.1,0s.1,0,.1.2c0,1-.9,2.3-2.3,2.3h0ZM25.8,53.7c-1,0-2-.8-2-2s.9-2.1,2-2.1,2,.9,2,2.1-.9,2-2,2ZM26.8,50.4c-.2-.4-.6-.6-1-.6s-.8.2-1,.6c-.2.4-.2.9-.2,1.2s0,.9.2,1.2c.2.4.6.6,1,.6s.8-.3,1-.7.2-.9.2-1.2,0-.8-.2-1.2h0ZM31.8,53.5h-1v-.2c.6,0,.7,0,.7-.4v-2.1c0-.5,0-1-.7-1s-1.2.5-1.2,1.4v1.6q0,.4.7.4v.3h-2v-.3c.6,0,.7,0,.7-.4v-2.4c0-.4,0-.5-.7-.5v-.3h1.2v.8c.2-.5.7-.9,1.3-.9s.8.2.9.3c.3.3.3.6.3,1.4v1.7c0,.3.2.3.7.3v.3h-1,.1ZM36.6,53.5h-1v-.2c.6,0,.7,0,.7-.4v-2.4c0-.4,0-.5-.5-.5h-1.4v2.9q0,.4.7.4v.3h-2v-.3c.6,0,.7,0,.7-.4v-2.9h-.7v-.3h.7v-1c0-1,1.1-1.4,1.9-1.4s1.1.4,1.1.9-.2.4-.4.4-.4,0-.4-.4,0-.4.4-.4c-.2-.2-.5-.3-.8-.3-.5,0-1.3.4-1.3,1.2v1h2.5v3.2q0,.4.7.4v.3h-1,0ZM41.9,50.3c0,0-.3,0-.3-.3s0-.2,0-.2h0c-.2,0-.5,0-.8.3.2.2.4.5.4.9,0,.7-.6,1.3-1.4,1.3s-.5,0-.9-.3c-.2.2-.2.4-.2.4,0,.3.2.6.5.6h.7c.5,0,1.1,0,1.5.2.5.2.6.7.6,1,0,.7-.9,1.1-2,1.1s-2-.5-2-1.1.3-.7.8-.9c-.3-.2-.4-.5-.4-.8s.2-.6.3-.7c-.2-.2-.4-.5-.4-.9,0-.7.6-1.3,1.4-1.3s.6,0,.9.3c.4-.4.8-.4.9-.4.3,0,.5.3.5.4s-.2.3-.3.3h.1ZM39.8,53.5h-.5c-.4,0-.7.4-.7.8s.6.9,1.5.9,1.5-.4,1.5-.9c0-.8-1-.8-1.8-.8ZM39.8,49.9c-.4,0-.6.2-.6.4,0,.2,0,.5,0,.7s0,1.1.8,1.1.6-.2.6-.4c0-.2,0-.5,0-.7s0-1.1-.8-1.1ZM45.8,53.7v-.8c-.3.5-.6.8-1.1.8-1.3,0-1.3-.8-1.3-1.5v-1.3q0-.8-.7-.8v-.3h1.3v2.8c0,.5,0,.9.8.9s1.1-.6,1.1-1.4v-1.6c0-.4,0-.5-.7-.5v-.3h1.3v3c0,.4,0,.5.7.5v.3h-1.3v.2ZM50.1,50.6c-.2,0-.4,0-.4-.4s.2-.3.2-.3h0c-.7,0-1,.8-1,1.7v1.4c0,.3,0,.4.7.4h.2v.3h-2.1v-.2c.6,0,.7,0,.7-.4v-2.4c0-.4,0-.5-.7-.5v-.3h1.2v.9c0-.4.4-1,1.1-1s.7.3.7.5-.2.4-.4.4h-.2ZM54.2,53.6c-.4,0-.7-.4-.7-.7-.2.4-.6.8-1.2.8s-1.4-.2-1.4-.9.2-.8.9-1.1c.6-.3,1.2-.3,1.6-.3v-.3c0-.8-.5-1.1-.9-1.1s-.7,0-1,.4c.4,0,.5.3.5.4,0,.2-.2.4-.4.4s-.4-.2-.4-.4c0-.6.6-1,1.3-1s.9,0,1.2.5c.3.3.3.7.3,1v1.8s0,.4.3.4.3,0,.3-.6v-.5h.2v.5c0,.7-.5.8-.7.8h.1ZM53.5,51.4c-1.5,0-1.8.8-1.8,1.3s.4.8.8.8,1-.3,1-1.1v-.9h0ZM57.2,53.7c-.3,0-1.1,0-1.1-1.2v-2.4h-.8v-.2c.9,0,1.1-1,1.1-1.7h.2v1.6h1.3v.3h-1.3v2.5c0,.2,0,1,.6,1s.6-.3.6-1v-.5h.2v.5c0,.6-.2,1.2-.9,1.2h.1ZM59.8,53.5h-1v-.2c.6,0,.7,0,.7-.4v-2.4c0-.4,0-.5-.7-.5v-.3h1.2v3.1c0,.3,0,.4.6.4v.3h-.9.1ZM59.8,48.7c-.3,0-.5-.2-.5-.5s.2-.5.5-.5.5.2.5.5-.2.5-.5.5ZM63.2,53.7c-1,0-2-.8-2-2s.9-2.1,2-2.1,2,.9,2,2.1-.9,2-2,2ZM64.2,50.4c-.2-.4-.6-.6-1-.6s-.8.2-1,.6c-.2.4-.2.9-.2,1.2s0,.9.2,1.2c.2.4.6.6,1,.6s.8-.3,1-.7c.2-.4.2-.9.2-1.2s0-.8-.2-1.2h0ZM69.2,53.5h-1v-.2c.6,0,.7,0,.7-.4v-2.1c0-.5,0-1-.7-1s-1.2.5-1.2,1.4v1.6q0,.4.7.4v.3h-2v-.3c.6,0,.7,0,.7-.4v-2.4c0-.4,0-.5-.7-.5v-.3h1.2v.8c.2-.5.7-.9,1.3-.9s.8.2.9.3c.3.3.3.6.3,1.4v1.7c0,.3.2.3.7.3v.3h-1,0Z"/>
  <path class="st3" d="M115.3,5.3"/>
  <g>
    <path d="M121.6,12.5h-5.1v-.3h.2q.7,0,.7-.4v-4.6c0-.3,0-.4-.7-.4h-.2v-.3h5l.2,2h-.2c0-1.2-.4-1.7-1.7-1.7h-1.1q-.4,0-.4.4v2.1h.8c.9,0,1-.3,1-1h.2v2.3h-.2c0-.8,0-1-1-1h-.8v2.4c0,.3,0,.4.4.4h1.2c1.5,0,1.7-.6,1.9-2h.2l-.4,2.3v-.2Z"/>
    <path d="M125.9,12.5h-1v-.2c.2,0,.3-.1.3-.2s0-.2-.2-.3l-.7-.9c-.5.6-.8.9-.8,1.1s0,.2.3.3v.3h-1.5v-.3c.2,0,.7,0,1.1-.5s.4-.5.8-1.1l-.9-1.1q-.4-.5-1-.5v-.3h1.8v.2c-.2,0-.3,0-.3.2v.2l.7.9.5-.7s0-.2,0-.3,0-.3-.3-.3v-.3h1.5v.3c-.4,0-.8.1-1.1.5-.2.2-.5.7-.8,1l1.2,1.5c.2.3.4.3.8.3v.3h-.8.3Z"/>
    <path d="M129.5,12.6c-.7,0-1-.5-1.1-.6h0v1.6q0,.4.7.4v.3h-2v-.3c.6,0,.7,0,.7-.4v-4.1q0-.4-.7-.4v-.3h1.3v.5c.2-.2.5-.6,1.2-.6,1,0,1.8.9,1.8,2s-.9,2-2,2h.1ZM129.6,8.8c-.5,0-.9.3-1.1.7v2q0,.2.1.4c.2.4.6.5.9.5.7,0,1.3-.7,1.3-1.8s-.5-1.8-1.2-1.8Z"/>
    <path d="M134.2,12.6c-1,0-1.9-.9-1.9-2s.8-2,1.8-2,1.6.9,1.6,1.7,0,.2-.2.2h-2.5c0,.3,0,.9.3,1.3.2.3.6.6,1,.6s.9,0,1.2-.9c0,0,0-.1.1-.1s.1,0,.1.1c0,.2-.4,1.2-1.5,1.2h0ZM134.1,8.7c-.3,0-1,.2-1.1,1.5h2.1c0-.3,0-1.5-1-1.5Z"/>
    <path d="M138.8,9.5c-.2,0-.4-.1-.4-.4s.2-.3.2-.3h0c-.7,0-1,.8-1,1.7v1.4c0,.3,0,.4.7.4h.2v.3h-2.1v-.2c.6,0,.7,0,.7-.4v-2.4c0-.4,0-.5-.7-.5v-.3h1.2v.9c.1-.4.4-1,1.1-1s.7.3.7.5-.2.4-.4.4h-.2Z"/>
    <path d="M140.7,12.5h-1v-.2c.6,0,.7,0,.7-.4v-2.4c0-.4,0-.5-.7-.5v-.3h1.2v3.2c0,.3,0,.4.6.4v.3h-.9,0ZM140.6,7.6c-.3,0-.5-.2-.5-.5s.2-.5.5-.5.5.2.5.5-.2.5-.5.5Z"/>
    <path d="M148.1,12.5h-1v-.2c.6,0,.7,0,.7-.4v-2.1c0-.5,0-1-.7-1s-1.2.5-1.2,1.4v1.6q0,.4.7.4v.3h-2v-.3c.6,0,.7,0,.7-.4v-2.1c0-.5,0-1-.7-1s-1.2.5-1.2,1.4v1.6q0,.4.7.4v.3h-2v-.3c.6,0,.7,0,.7-.4v-2.4c0-.4,0-.5-.7-.5v-.3h1.2v.8c.2-.5.7-.9,1.3-.9s1.1,0,1.2.9c.2-.3.5-.9,1.3-.9s.8.2.9.3c.3.3.3.6.3,1.4v1.7c0,.3.2.3.7.3v.3h-1,.1Z"/>
    <path d="M151.4,12.6c-1,0-1.9-.9-1.9-2s.8-2,1.8-2,1.6.9,1.6,1.7,0,.2-.2.2h-2.5c0,.3,0,.9.3,1.3.2.3.6.6,1,.6s.9,0,1.2-.9c0,0,0-.1.1-.1s.1,0,.1.1c0,.2-.4,1.2-1.5,1.2h0ZM151.3,8.7c-.3,0-1,.2-1.1,1.5h2.1c0-.3,0-1.5-1-1.5Z"/>
    <path d="M156.9,12.5h-1v-.2c.6,0,.7,0,.7-.4v-2.1c0-.5,0-1-.7-1s-1.2.5-1.2,1.4v1.6q0,.4.7.4v.3h-2v-.3c.6,0,.7,0,.7-.4v-2.4c0-.4,0-.5-.7-.5v-.3h1.2v.8c.2-.5.7-.9,1.3-.9s.8.2.9.3c.3.3.3.6.3,1.4v1.7c0,.3.2.3.7.3v.3h-1,.1Z"/>
    <path d="M159.9,12.6c-.3,0-1.1-.1-1.1-1.2v-2.4h-.8v-.2c.9,0,1.1-1,1.1-1.7h.2v1.6h1.3v.3h-1.3v2.5c0,.2,0,1,.6,1s.6-.3.6-1v-.5h.2v.5c0,.6-.2,1.2-.9,1.2h0Z"/>
    <path d="M166.9,12.7c-.8,0-1.4-.3-1.6-.6l-.3.5s0,.1-.1.1v-2q0-.2.1-.2h.1c0,.3,0,.9.5,1.4.5.4,1.1.5,1.4.5.7,0,1.2-.6,1.2-1.3s0-.6-.3-.8c-.2-.3-.5-.4-.8-.5-.6-.2-1.1-.3-1.2-.3-.7-.2-1.2-.9-1.2-1.6s.7-1.7,1.7-1.7,1.2.4,1.4.6l.3-.5q0,0,.1,0v2q0,.2-.1.2c-.1,0,0,0-.1-.1,0-.4-.2-1.9-1.7-1.9s-1.2.5-1.2,1.2.3,1,.9,1.1l1.1.3c.7.2,1.3.9,1.3,1.8s-.7,1.8-1.7,1.8h.2Z"/>
    <path d="M171.3,12.6c-1,0-1.9-.9-1.9-2s.8-2.1,1.9-2.1,1.4.3,1.4.9-.2.4-.4.4-.4-.2-.4-.4,0-.4.4-.4c-.3-.3-.9-.3-.9-.3-.5,0-1.2.4-1.2,1.8s.8,1.8,1.2,1.8.9-.1,1.2-.9h.2s-.3,1.2-1.5,1.2h0Z"/>
    <path d="M176.6,12.5h-1v-.2c.6,0,.7,0,.7-.4v-2.1c0-.5,0-1-.7-1s-1.2.5-1.2,1.4v1.6q0,.4.7.4v.3h-2v-.3c.6,0,.7,0,.7-.4v-4.6c0-.4,0-.5-.7-.5v-.3h1.3v3h0c.1-.3.5-.8,1.3-.8s.8.2.9.3c.3.3.3.6.3,1.4v1.7c0,.3.2.3.7.3v.3h-1Z"/>
    <path d="M179.9,12.6c-1,0-1.9-.9-1.9-2s.8-2,1.8-2,1.6.9,1.6,1.7,0,.2-.2.2h-2.5c0,.3,0,.9.3,1.3.2.3.6.6,1,.6s.9,0,1.2-.9c0,0,0-.1.1-.1s.1,0,.1.1c0,.2-.4,1.2-1.5,1.2h0ZM179.8,8.7c-.3,0-1,.2-1.1,1.5h2.1c0-.3,0-1.5-1-1.5Z"/>
    <path d="M185,12.6v-.6c-.2.3-.6.6-1.2.6-1,0-1.9-.9-1.9-2s.9-2,2-2,.9.2,1.1.5v-1.9c0-.4,0-.5-.7-.5v-.3h1.3v5.3c0,.4,0,.5.7.5v.3h-1.3ZM185,9.6v-.3c-.3-.4-.6-.5-1-.5s-.8.3-1,.6c-.3.4-.3.9-.3,1.3s0,.9.3,1.2c.2.3.5.6.9.6s.8-.2,1-.6v-2.3Z"/>
    <path d="M190.1,12.6v-.8c-.3.5-.6.8-1.1.8-1.3,0-1.3-.8-1.3-1.5v-1.3q0-.8-.7-.8v-.3h1.3v2.8c0,.5,0,.9.8.9s1.1-.6,1.1-1.4v-1.6c0-.4,0-.5-.7-.5v-.3h1.3v3c0,.4,0,.5.7.5v.3h-1.3v.2Z"/>
    <path d="M192.8,12.5h-1v-.2c.6,0,.7,0,.7-.4v-4.6c0-.4,0-.5-.7-.5v-.3h1.3v5.4q0,.4.7.4v.3h-1Z"/>
    <path d="M196.2,12.6c-1,0-1.9-.9-1.9-2s.8-2,1.8-2,1.6.9,1.6,1.7,0,.2-.2.2h-2.5c0,.3,0,.9.3,1.3.2.3.6.6,1,.6s.9,0,1.2-.9c0,0,0-.1.1-.1s.1,0,.1.1c0,.2-.4,1.2-1.5,1.2h0ZM196.1,8.7c-.3,0-1,.2-1.1,1.5h2.1c0-.3,0-1.5-1-1.5Z"/>
    <path d="M200.7,9.5c-.2,0-.4-.1-.4-.4s.2-.3.2-.3h0c-.7,0-1,.8-1,1.7v1.4c0,.3,0,.4.7.4h.2v.3h-2.1v-.2c.6,0,.7,0,.7-.4v-2.4c0-.4,0-.5-.7-.5v-.3h1.2v.9c.1-.4.4-1,1.1-1s.7.3.7.5-.2.4-.4.4h-.2Z"/>
  </g>
  <path class="st3" d="M329.8,53"/>
  <g>
    <path d="M334.2,57.2h-1.5v2.1c0,.3,0,.4.7.4h.2v.3h-2.6v-.3h.2q.7,0,.7-.4v-4.7c0-.3,0-.4-.7-.4h-.2v-.3h3.1c1.2,0,2.1.8,2.1,1.6s-1,1.6-2,1.6h0ZM333.9,54.2h-.8q-.4,0-.4.4v2.4h1.2c1.4,0,1.4-1,1.4-1.4s0-1.4-1.4-1.4h0Z"/>
    <path d="M338.7,60.1c-1,0-1.9-.9-1.9-2s.8-2,1.8-2,1.6.9,1.6,1.7,0,.2-.2.2h-2.5c0,.3,0,.9.3,1.3.2.3.6.6,1,.6s.9,0,1.2-.9c0,0,0,0,.1,0s.1,0,.1,0c0,.2-.4,1.2-1.5,1.2h0ZM338.6,56.2c-.3,0-1,.2-1.1,1.5h2.1c0-.3,0-1.5-1-1.5Z"/>
    <path d="M343.3,57c-.2,0-.4,0-.4-.4s.2-.3.2-.3h0c-.7,0-1,.8-1,1.7v1.4c0,.3,0,.4.7.4h.2v.3h-2.1v-.2c.6,0,.7,0,.7-.4v-2.4c0-.4,0-.5-.7-.5v-.3h1.2v.9c.1-.4.4-1,1.1-1s.7.3.7.5-.2.4-.4.4h-.2Z"/>
    <path d="M345.7,60.1c-.2,0-.6,0-1-.4l-.2.2-.2.2v-1.4q0-.2.1-.2c.1,0,0,0,.1.2.2.8.5,1.3,1.2,1.3s1-.4,1-.8-.7-.8-.9-.8c-.6,0-.9-.2-1.2-.4-.2-.2-.4-.4-.4-.8s.3-1.1,1.4-1.1.5,0,.8.2c0,0,.1,0,.2,0q.1,0,.2,0v1.1q0,.2-.1.2h-.1c0-.3,0-1.1-1-1.1s-1,.4-1,.7c0,.5.6.6,1.1.7.4,0,.7,0,1,.4.1,0,.4.4.4.8s-.4,1.2-1.4,1.2h0Z"/>
    <path d="M348.7,60h-1v-.2c.6,0,.7,0,.7-.4v-2.4c0-.4,0-.5-.7-.5v-.3h1.2v3.2c0,.3,0,.4.6.4v.3h-.9,0ZM348.6,55.1c-.3,0-.5-.2-.5-.5s.2-.5.5-.5.5.2.5.5-.2.5-.5.5Z"/>
    <path d="M351.6,60.1c-.2,0-.6,0-1-.4l-.2.2-.2.2v-1.4q0-.2.1-.2c.1,0,0,0,.1.2.2.8.5,1.3,1.2,1.3s1-.4,1-.8-.7-.8-.9-.8c-.6,0-.9-.2-1.2-.4-.2-.2-.4-.4-.4-.8s.3-1.1,1.4-1.1.5,0,.8.2c0,0,.1,0,.2,0q.1,0,.2,0v1.1q0,.2-.1.2h-.1c0-.3,0-1.1-1-1.1s-1,.4-1,.7c0,.5.6.6,1.1.7.4,0,.7,0,1,.4.1,0,.4.4.4.8s-.4,1.2-1.4,1.2h0Z"/>
    <path d="M355.4,60.1c-.3,0-1.1,0-1.1-1.2v-2.4h-.8v-.2c.9,0,1.1-1,1.1-1.7h.2v1.6h1.3v.3h-1.3v2.5c0,.2,0,1,.6,1s.6-.3.6-1v-.5h.2v.5c0,.6-.2,1.2-.9,1.2h0Z"/>
    <path d="M359,60.1c-1,0-1.9-.9-1.9-2s.8-2,1.8-2,1.6.9,1.6,1.7,0,.2-.2.2h-2.5c0,.3,0,.9.3,1.3.2.3.6.6,1,.6s.9,0,1.2-.9c0,0,0,0,.1,0s.1,0,.1,0c0,.2-.4,1.2-1.5,1.2h0ZM358.9,56.2c-.3,0-1,.2-1.1,1.5h2.1c0-.3,0-1.5-1-1.5Z"/>
    <path d="M364.5,60h-1v-.2c.6,0,.7,0,.7-.4v-2.1c0-.5,0-1-.7-1s-1.2.5-1.2,1.4v1.6q0,.4.7.4v.3h-2v-.3c.6,0,.7,0,.7-.4v-2.4c0-.4,0-.5-.7-.5v-.3h1.2v.8c.2-.5.7-.9,1.3-.9s.8.2.9.3c.3.3.3.6.3,1.4v1.7c0,.3.2.3.7.3v.3h-1,.1Z"/>
    <path d="M367.4,60.1c-.3,0-1.1,0-1.1-1.2v-2.4h-.8v-.2c.9,0,1.1-1,1.1-1.7h.2v1.6h1.3v.3h-1.3v2.5c0,.2,0,1,.6,1s.6-.3.6-1v-.5h.2v.5c0,.6-.2,1.2-.9,1.2h0Z"/>
  </g>
  <g>
    <path d="M333.4,71.2c-.8,0-1.4-.3-1.6-.6l-.3.5s0,0-.1,0v-2q0-.2.1-.2h.1c0,.3,0,.9.5,1.4.5.4,1.1.5,1.4.5.7,0,1.2-.6,1.2-1.3s0-.6-.3-.8c-.2-.3-.5-.4-.8-.5-.6-.2-1.1-.3-1.2-.3-.7-.2-1.2-.9-1.2-1.6s.7-1.7,1.7-1.7,1.2.4,1.4.6l.3-.5q0,0,.1,0v2q0,.2-.1.2c-.1,0,0,0-.1,0,0-.4-.2-1.8-1.7-1.8s-1.2.5-1.2,1.2.3,1,.9,1.1l1.1.3c.7.2,1.3.9,1.3,1.8s-.7,1.8-1.7,1.8h.2Z"/>
    <path d="M337.7,71.1c-.3,0-1.1,0-1.1-1.2v-2.4h-.8v-.2c.9,0,1.1-1,1.1-1.7h.2v1.6h1.3v.3h-1.3v2.5c0,.2,0,1,.6,1s.6-.3.6-1v-.5h.2v.5c0,.6-.2,1.2-.9,1.2h0Z"/>
    <path d="M341.3,71.1c-1,0-2-.8-2-2s.9-2.1,2-2.1,2,.9,2,2.1-.9,2-2,2ZM342.3,67.8c-.2-.4-.6-.6-1-.6s-.8.2-1,.6-.2.9-.2,1.2,0,.9.2,1.2c.2.4.6.6,1,.6s.8-.3,1-.7c.2-.4.2-.9.2-1.2s0-.8-.2-1.2h0Z"/>
    <path d="M346.4,68c-.2,0-.4,0-.4-.4s.2-.3.2-.3h0c-.7,0-1,.8-1,1.7v1.4c0,.3,0,.4.7.4h.2v.3h-2.1v-.2c.6,0,.7,0,.7-.4v-2.4c0-.4,0-.5-.7-.5v-.3h1.2v.9c.1-.4.4-1,1.1-1s.7.3.7.5-.2.4-.4.4h-.2Z"/>
    <path d="M350.6,71c-.4,0-.7-.4-.7-.7-.2.4-.6.8-1.2.8s-1.4-.2-1.4-.9.2-.8.9-1.2c.6-.3,1.2-.3,1.6-.3v-.3c0-.8-.5-1.1-.9-1.1s-.7,0-1,.4c.4,0,.5.3.5.4,0,.2-.2.4-.4.4s-.4-.2-.4-.4c0-.6.6-1,1.3-1s.9,0,1.2.5c.3.3.3.7.3,1v1.8s0,.4.3.4.3,0,.3-.6v-.5h.2v.5c0,.7-.5.8-.7.8h.1ZM349.9,68.9c-1.5,0-1.8.8-1.8,1.3s.4.8.8.8,1-.3,1-1.1v-.9h0Z"/>
    <path d="M355.4,67.7c-.1,0-.3,0-.3-.3s0-.2.1-.2h0c-.2,0-.5,0-.8.3.2.2.4.5.4.9,0,.7-.6,1.3-1.4,1.3s-.5,0-.9-.3c-.2.2-.2.4-.2.4,0,.3.2.6.5.6h.7c.5,0,1.1,0,1.5.2.5.2.6.7.6,1,0,.7-.9,1.1-2,1.1s-2-.5-2-1.1.3-.7.8-.9c-.3-.2-.4-.5-.4-.8s.2-.6.3-.7c-.2-.2-.4-.5-.4-.9,0-.7.6-1.3,1.4-1.3s.6,0,.9.3c.4-.4.8-.4.9-.4.3,0,.5.3.5.4s-.2.3-.3.3h0ZM353.4,70.9h-.5c-.4,0-.7.4-.7.8s.6.9,1.5.9,1.5-.4,1.5-.9c0-.8-1-.8-1.8-.8ZM353.4,67.3c-.4,0-.6.2-.6.4-.1.2-.1.5-.1.7s0,1.1.8,1.1.6-.2.6-.4c.1-.2.1-.5.1-.7s0-1.1-.8-1.1Z"/>
    <path d="M358,71.1c-1,0-1.9-.9-1.9-2s.8-2,1.8-2,1.6.9,1.6,1.7,0,.2-.2.2h-2.5c0,.3,0,.9.3,1.3.2.3.6.6,1,.6s.9,0,1.2-.9c0,0,0,0,.1,0s.1,0,.1,0c0,.2-.4,1.2-1.5,1.2h0ZM357.9,67.2c-.3,0-1,.2-1.1,1.5h2.1c0-.3,0-1.5-1-1.5Z"/>
  </g>
  <path class="st3" d="M230,65.8"/>
  <g>
    <path d="M233.6,73.1c-.8,0-1.4-.3-1.6-.6l-.3.5s0,0-.1,0v-2q0-.2.1-.2h.1c0,.3,0,.9.5,1.4.5.4,1.1.5,1.4.5.7,0,1.2-.6,1.2-1.3s0-.6-.3-.8c-.2-.3-.5-.4-.8-.5-.6-.2-1.1-.3-1.2-.3-.7-.2-1.2-.9-1.2-1.6s.7-1.7,1.7-1.7,1.2.4,1.4.6l.3-.5q0,0,.1,0v2q0,.2-.1.2c-.1,0,0,0-.1,0,0-.4-.2-1.9-1.7-1.9s-1.2.5-1.2,1.2.3,1,.9,1.1l1.1.3c.7.2,1.3.9,1.3,1.8s-.7,1.8-1.7,1.8h.2Z"/>
    <path d="M238,73c-1,0-1.9-.9-1.9-2s.8-2.1,1.9-2.1,1.4.3,1.4.9-.2.4-.4.4-.4-.2-.4-.4,0-.4.4-.4c-.3-.3-.9-.3-.9-.3-.5,0-1.2.4-1.2,1.8s.8,1.8,1.2,1.8.9,0,1.2-.9h.2s-.3,1.2-1.5,1.2h0Z"/>
    <path d="M243.3,72.9h-1v-.2c.6,0,.7,0,.7-.4v-2.1c0-.5,0-1-.7-1s-1.2.5-1.2,1.4v1.6q0,.4.7.4v.3h-2v-.3c.6,0,.7,0,.7-.4v-4.6c0-.4,0-.5-.7-.5v-.3h1.3v3h0c.1-.3.5-.8,1.3-.8s.8.2.9.3c.3.3.3.6.3,1.4v1.7c0,.3.2.3.7.3v.3h-1Z"/>
    <path d="M246.6,73c-1,0-1.9-.9-1.9-2s.8-2,1.8-2,1.6.9,1.6,1.7,0,.2-.2.2h-2.5c0,.3,0,.9.3,1.3.2.3.6.6,1,.6s.9,0,1.2-.9c0,0,0,0,.1,0s.1,0,.1,0c0,.2-.4,1.2-1.5,1.2h0ZM246.5,69.2c-.3,0-1,.2-1.1,1.5h2.1c0-.3,0-1.5-1-1.5Z"/>
    <path d="M251.7,73v-.6c-.2.3-.6.6-1.2.6-1,0-1.9-.9-1.9-2s.9-2,2-2,.9.2,1.1.5v-1.9c0-.4,0-.5-.7-.5v-.3h1.3v5.3c0,.4,0,.5.7.5v.3h-1.3ZM251.7,70.1v-.3c-.3-.4-.6-.5-1-.5s-.8.3-1,.6c-.3.4-.3.9-.3,1.3s0,.9.3,1.2c.2.3.5.6.9.6s.8-.2,1-.6v-2.3Z"/>
    <path d="M256.7,73v-.8c-.3.5-.6.8-1.1.8-1.3,0-1.3-.8-1.3-1.5v-1.3q0-.8-.7-.8v-.3h1.3v2.8c0,.5,0,.9.8.9s1.1-.6,1.1-1.4v-1.6c0-.4,0-.5-.7-.5v-.3h1.3v3c0,.4,0,.5.7.5v.3h-1.3v.2Z"/>
    <path d="M259.5,72.9h-1v-.2c.6,0,.7,0,.7-.4v-4.6c0-.4,0-.5-.7-.5v-.3h1.3v5.4q0,.4.7.4v.3h-1Z"/>
    <path d="M261.9,72.9h-1v-.2c.6,0,.7,0,.7-.4v-2.4c0-.4,0-.5-.7-.5v-.3h1.2v3.2c0,.3,0,.4.6.4v.3h-.9,0ZM261.9,68c-.3,0-.5-.2-.5-.5s.2-.5.5-.5.5.2.5.5-.2.5-.5.5Z"/>
    <path d="M266.9,72.9h-1v-.2c.6,0,.7,0,.7-.4v-2.1c0-.5,0-1-.7-1s-1.2.5-1.2,1.4v1.6q0,.4.7.4v.3h-2v-.3c.6,0,.7,0,.7-.4v-2.4c0-.4,0-.5-.7-.5v-.3h1.2v.8c.2-.5.7-.9,1.3-.9s.8.2.9.3c.3.3.3.6.3,1.4v1.7c0,.3.2.3.7.3v.3h-1,.1Z"/>
    <path d="M272.1,69.6c-.1,0-.3,0-.3-.3s0-.2.1-.2h0c-.2,0-.5,0-.8.3.2.2.4.5.4.9,0,.7-.6,1.3-1.4,1.3s-.5,0-.9-.3c-.2.2-.2.4-.2.4,0,.3.2.6.5.6h.7c.5,0,1.1,0,1.5.2.5.2.6.7.6,1,0,.7-.9,1.1-2,1.1s-2-.5-2-1.1.3-.7.8-.9c-.3-.2-.4-.5-.4-.8s.2-.6.3-.7c-.2-.2-.4-.5-.4-.9,0-.7.6-1.3,1.4-1.3s.6,0,.9.3c.4-.4.8-.4.9-.4.3,0,.5.3.5.4s-.2.3-.3.3h0ZM270,72.9h-.5c-.4,0-.7.4-.7.8s.6.9,1.5.9,1.5-.4,1.5-.9c0-.8-1-.8-1.8-.8ZM270,69.2c-.4,0-.6.2-.6.4-.1.2-.1.5-.1.7s0,1.1.8,1.1.6-.2.6-.4c.1-.2.1-.5.1-.7s0-1.1-.8-1.1Z"/>
  </g>
  <path class="st3" d="M230.3,16.7"/>
  <g>
    <path d="M235.4,20.8h-1.5v2.1c0,.3,0,.4.7.4h.2v.3h-2.6v-.3h.2q.7,0,.7-.4v-4.7c0-.3,0-.4-.7-.4h-.2v-.3h3.1c1.2,0,2.1.8,2.1,1.6s-1,1.6-2,1.6h0ZM235.1,17.9h-.8q-.4,0-.4.4v2.4h1.2c1.4,0,1.4-1,1.4-1.4s0-1.4-1.4-1.4Z"/>
    <path d="M243.3,18.6v3.4c-.2,1-.9,1.8-2,1.8s-2.2-1-2.2-2.2v-3.3c0-.3,0-.4-.7-.4h-.2v-.3h2.6v.3h-.2q-.7,0-.7.4v3.4c0,1.7,1,1.9,1.5,1.9.8,0,1.7-.7,1.7-2v-3.1c0-.2,0-.7-.9-.7v-.3h2.1v.3c-.9,0-.9.4-.9.7h-.1Z"/>
    <path d="M249.7,19.6c-.1-1.2-.4-1.7-1.7-1.7h-1.1q-.4,0-.4.4v2.2h.8c.8,0,.9-.3.9-1h.2v2.3h-.2c0-.8,0-1-.9-1h-.8v2.2c0,.3,0,.4.8.4h.3v.3h-2.8v-.3h.2q.7,0,.7-.4v-4.6c0-.3,0-.4-.7-.4h-.2v-.3h4.9l.2,2h-.2Z"/>
    <path d="M254.8,23.6h-1.3v-.3h.2q.7,0,.7-.4v-4.7c0-.3,0-.4-.7-.4h-.2v-.3h2.7v.3h-.2q-.7,0-.7.4v4.7c0,.3,0,.4.7.4h.2v.3h-1.4,0Z"/>
    <path d="M260.2,23.6h-1v-.2c.6,0,.7,0,.7-.4v-2.1c0-.5,0-1-.7-1s-1.2.5-1.2,1.4v1.6q0,.4.7.4v.3h-2v-.3c.6,0,.7,0,.7-.4v-2.4c0-.4,0-.5-.7-.5v-.3h1.2v.8c.2-.5.7-.9,1.3-.9s.8.2.9.3c.3.3.3.6.3,1.4v1.7c0,.3.2.3.7.3v.3h-1,.1Z"/>
    <path d="M263.1,23.7c-.2,0-.6,0-1-.4l-.2.2-.2.2v-1.4q0-.2.1-.2c.1,0,0,0,.1.2.2.8.5,1.3,1.2,1.3s1-.4,1-.8-.7-.8-.9-.8c-.6-.1-.9-.2-1.2-.4-.2-.2-.4-.4-.4-.8s.3-1.1,1.4-1.1.5,0,.8.2c0,0,.1-.1.2-.1q.1-.1.2-.1v1.1q0,.2-.1.2h-.1c0-.3,0-1.1-1-1.1s-1,.4-1,.7c0,.5.6.6,1.1.7.4,0,.7.1,1,.4.1.1.4.4.4.8s-.4,1.2-1.4,1.2Z"/>
    <path d="M266.9,23.7c-.3,0-1.1-.1-1.1-1.2v-2.4h-.8v-.2c.9,0,1.1-1,1.1-1.7h.2v1.6h1.3v.3h-1.3v2.5c0,.2,0,1,.6,1s.6-.3.6-1v-.5h.2v.5c0,.6-.2,1.2-.9,1.2h0Z"/>
    <path d="M271.9,23.7c-.4,0-.7-.4-.7-.7-.2.4-.6.8-1.2.8s-1.4-.2-1.4-.9.2-.8.9-1.2c.6-.3,1.2-.3,1.6-.3v-.3c0-.8-.5-1.1-.9-1.1s-.7,0-1,.4c.4,0,.5.3.5.4,0,.2-.2.4-.4.4s-.4-.2-.4-.4c0-.6.6-1,1.3-1s.9.1,1.2.5c.3.3.3.7.3,1v1.8s0,.4.3.4.3,0,.3-.6v-.5h.2v.5c0,.7-.5.8-.7.8h.1ZM271.1,21.5c-1.5,0-1.8.8-1.8,1.3s.4.8.8.8,1-.3,1-1.1v-.9h0Z"/>
    <path d="M276.4,23.6h-1v-.2c.6,0,.7,0,.7-.4v-2.1c0-.5,0-1-.7-1s-1.2.5-1.2,1.4v1.6q0,.4.7.4v.3h-2v-.3c.6,0,.7,0,.7-.4v-2.4c0-.4,0-.5-.7-.5v-.3h1.2v.8c.2-.5.7-.9,1.3-.9s.8.2.9.3c.3.3.3.6.3,1.4v1.7c0,.3.2.3.7.3v.3h-1,.1Z"/>
    <path d="M279.8,23.7c-1,0-1.9-.9-1.9-2s.8-2.1,1.9-2.1,1.4.3,1.4.9-.2.4-.4.4-.4-.2-.4-.4,0-.4.4-.4c-.3-.3-.9-.3-.9-.3-.5,0-1.2.4-1.2,1.8s.8,1.8,1.2,1.8.9-.1,1.2-.9h.2s-.3,1.2-1.5,1.2h0Z"/>
    <path d="M283.7,23.7c-1,0-1.9-.9-1.9-2s.8-2,1.8-2,1.6.9,1.6,1.7,0,.2-.2.2h-2.5c0,.3,0,.9.3,1.3.2.3.6.6,1,.6s.9,0,1.2-.9c0,0,0-.1.1-.1s.1,0,.1.1c0,.2-.4,1.2-1.5,1.2h0ZM283.6,19.9c-.3,0-1,.2-1.1,1.5h2.1c0-.3,0-1.5-1-1.5Z"/>
  </g>
  <g>
    <path d="M240.4,34.6h-1.3v-.3h.2q.7,0,.7-.4v-5.1h0l-2.2,5.6s0,.2-.2.2-.1,0-.2-.2l-2.1-5.5h0v4.8c0,.2,0,.7.9.7v.3h-2v-.3c.9,0,.9-.4.9-.7v-4.4c0-.3,0-.4-.7-.4h-.2v-.3h1.5q.2,0,.3.2l1.9,5,1.9-5q0-.2.3-.2h1.5v.3h-.2q-.7,0-.7.4v4.7c0,.3,0,.4.7.4h.2v.3h-1.3.1Z"/>
    <path d="M245.6,34.7c-.4,0-.7-.4-.7-.7-.2.4-.6.8-1.2.8s-1.4-.2-1.4-.9.2-.8.9-1.2c.6-.3,1.2-.3,1.6-.3v-.3c0-.8-.5-1.1-.9-1.1s-.7,0-1,.4c.4,0,.5.3.5.4,0,.2-.2.4-.4.4s-.4-.2-.4-.4c0-.6.6-1,1.3-1s.9.1,1.2.5c.3.3.3.7.3,1v1.8s0,.4.3.4.3,0,.3-.6v-.5h.2v.5c0,.7-.5.8-.7.8h0ZM244.8,32.5c-1.5,0-1.8.8-1.8,1.3s.4.8.8.8,1-.3,1-1.1v-.9h0Z"/>
    <path d="M250.1,34.6h-1v-.2c.6,0,.7,0,.7-.4v-2.1c0-.5,0-1-.7-1s-1.2.5-1.2,1.4v1.6q0,.4.7.4v.3h-2v-.3c.6,0,.7,0,.7-.4v-2.4c0-.4,0-.5-.7-.5v-.3h1.2v.8c.2-.5.7-.9,1.3-.9s.8.2.9.3c.3.3.3.6.3,1.4v1.7c0,.3.2.3.7.3v.3h-1,.1Z"/>
    <path d="M254.9,34.7c-.4,0-.7-.4-.7-.7-.2.4-.6.8-1.2.8s-1.4-.2-1.4-.9.2-.8.9-1.2c.6-.3,1.2-.3,1.6-.3v-.3c0-.8-.5-1.1-.9-1.1s-.7,0-1,.4c.4,0,.5.3.5.4,0,.2-.2.4-.4.4s-.4-.2-.4-.4c0-.6.6-1,1.3-1s.9.1,1.2.5c.3.3.3.7.3,1v1.8s0,.4.3.4.3,0,.3-.6v-.5h.2v.5c0,.7-.5.8-.7.8h0ZM254.2,32.5c-1.5,0-1.8.8-1.8,1.3s.4.8.8.8,1-.3,1-1.1v-.9h0Z"/>
    <path d="M259.8,31.3c-.1,0-.3-.1-.3-.3s0-.2.1-.2h0c-.2,0-.5,0-.8.3.2.2.4.5.4.9,0,.7-.6,1.3-1.4,1.3s-.5,0-.9-.3c-.2.2-.2.4-.2.4,0,.3.2.6.5.6h.7c.5,0,1.1,0,1.5.2.5.2.6.7.6,1,0,.7-.9,1.1-2,1.1s-2-.5-2-1.1.3-.7.8-.9c-.3-.2-.4-.5-.4-.8s.2-.6.3-.7c-.2-.2-.4-.5-.4-.9,0-.7.6-1.3,1.4-1.3s.6,0,.9.3c.4-.4.8-.4.9-.4.3,0,.5.3.5.4s-.2.3-.3.3h0ZM257.7,34.6h-.5c-.4,0-.7.4-.7.8s.6.9,1.5.9,1.5-.4,1.5-.9c0-.8-1-.8-1.8-.8ZM257.7,30.9c-.4,0-.6.2-.6.4-.1.2-.1.5-.1.7s0,1.1.8,1.1.6-.2.6-.4c.1-.2.1-.5.1-.7s0-1.1-.8-1.1Z"/>
    <path d="M262.3,34.7c-1,0-1.9-.9-1.9-2s.8-2,1.8-2,1.6.9,1.6,1.7,0,.2-.2.2h-2.5c0,.3,0,.9.3,1.3.2.3.6.6,1,.6s.9,0,1.2-.9c0,0,0,0,.1,0s.1,0,.1,0c0,.2-.4,1.2-1.5,1.2h0ZM262.2,30.9c-.3,0-1,.2-1.1,1.5h2.1c0-.3,0-1.5-1-1.5Z"/>
    <path d="M270.3,34.6h-1v-.2c.6,0,.7,0,.7-.4v-2.1c0-.5,0-1-.7-1s-1.2.5-1.2,1.4v1.6q0,.4.7.4v.3h-2v-.3c.6,0,.7,0,.7-.4v-2.1c0-.5,0-1-.7-1s-1.2.5-1.2,1.4v1.6q0,.4.7.4v.3h-2v-.3c.6,0,.7,0,.7-.4v-2.4c0-.4,0-.5-.7-.5v-.3h1.2v.8c.2-.5.7-.9,1.3-.9s1.1,0,1.2.9c.2-.3.5-.9,1.3-.9s.8.2.9.3c.3.3.3.6.3,1.4v1.7c0,.3.2.3.7.3v.3h-1,.1Z"/>
    <path d="M273.6,34.7c-1,0-1.9-.9-1.9-2s.8-2,1.8-2,1.6.9,1.6,1.7,0,.2-.2.2h-2.5c0,.3,0,.9.3,1.3.2.3.6.6,1,.6s.9,0,1.2-.9c0,0,0,0,.1,0s.1,0,.1,0c0,.2-.4,1.2-1.5,1.2h0ZM273.5,30.9c-.3,0-1,.2-1.1,1.5h2.1c0-.3,0-1.5-1-1.5Z"/>
    <path d="M279.1,34.6h-1v-.2c.6,0,.7,0,.7-.4v-2.1c0-.5,0-1-.7-1s-1.2.5-1.2,1.4v1.6q0,.4.7.4v.3h-2v-.3c.6,0,.7,0,.7-.4v-2.4c0-.4,0-.5-.7-.5v-.3h1.2v.8c.2-.5.7-.9,1.3-.9s.8.2.9.3c.3.3.3.6.3,1.4v1.7c0,.3.2.3.7.3v.3h-1,.1Z"/>
    <path d="M282.1,34.7c-.3,0-1.1,0-1.1-1.2v-2.4h-.8v-.2c.9,0,1.1-1,1.1-1.7h.2v1.6h1.3v.3h-1.3v2.5c0,.2,0,1,.6,1s.6-.3.6-1v-.5h.2v.5c0,.6-.2,1.2-.9,1.2h0Z"/>
  </g>
  <path class="st3" d="M136.9,65.8"/>
  <g>
    <path d="M143.2,72.8h-5.1v-.3h.2q.7,0,.7-.4v-4.6c0-.3,0-.4-.7-.4h-.2v-.3h5l.2,2h-.2c-.1-1.2-.4-1.7-1.7-1.7h-1.1q-.4,0-.4.4v2.1h.8c.9,0,1-.3,1-1h.2v2.3h-.2c0-.8,0-1-1-1h-.8v2.4c0,.3,0,.4.4.4h1.2c1.5,0,1.7-.6,1.9-2h.2l-.4,2.3v-.2Z"/>
    <path d="M147.5,69.9l-1.2,2.9s0,.2-.2.2-.1,0-.2-.2l-1.3-3.1c-.1-.3-.2-.3-.7-.3v-.3h1.9v.2c-.2,0-.5,0-.5.2v.2l1,2.5.9-2.3v-.2c0-.2,0-.4-.4-.4v-.3h1.5v.3c-.6,0-.7.4-.8.6h0Z"/>
    <path d="M151.6,72.9c-.4,0-.7-.4-.7-.7-.2.4-.6.8-1.2.8s-1.4-.2-1.4-.9.2-.8.9-1.2c.6-.3,1.2-.3,1.6-.3v-.3c0-.8-.5-1.1-.9-1.1s-.7,0-1,.4c.4,0,.5.3.5.4,0,.2-.2.4-.4.4s-.4-.2-.4-.4c0-.6.6-1,1.3-1s.9,0,1.2.5c.3.3.3.7.3,1v1.8s0,.4.3.4.3,0,.3-.6v-.5h.2v.5c0,.7-.5.8-.7.8h0ZM150.9,70.7c-1.5,0-1.8.8-1.8,1.3s.4.8.8.8,1-.3,1-1.1v-.9h0Z"/>
    <path d="M153.7,72.8h-1v-.2c.6,0,.7,0,.7-.4v-4.6c0-.4,0-.5-.7-.5v-.3h1.3v5.4q0,.4.7.4v.3h-1Z"/>
    <path d="M158.4,72.9v-.8c-.3.5-.6.8-1.1.8-1.3,0-1.3-.8-1.3-1.5v-1.3q0-.8-.7-.8v-.3h1.3v2.8c0,.5,0,.9.8.9s1.1-.6,1.1-1.4v-1.6c0-.4,0-.5-.7-.5v-.3h1.3v3c0,.4,0,.5.7.5v.3h-1.3v.2Z"/>
    <path d="M163.4,72.9c-.4,0-.7-.4-.7-.7-.2.4-.6.8-1.2.8s-1.4-.2-1.4-.9.2-.8.9-1.2c.6-.3,1.2-.3,1.6-.3v-.3c0-.8-.5-1.1-.9-1.1s-.7,0-1,.4c.4,0,.5.3.5.4,0,.2-.2.4-.4.4s-.4-.2-.4-.4c0-.6.6-1,1.3-1s.9,0,1.2.5c.3.3.3.7.3,1v1.8s0,.4.3.4.3,0,.3-.6v-.5h.2v.5c0,.7-.5.8-.7.8h0ZM162.7,70.7c-1.5,0-1.8.8-1.8,1.3s.4.8.8.8,1-.3,1-1.1v-.9h0Z"/>
    <path d="M166.3,72.9c-.3,0-1.1,0-1.1-1.2v-2.4h-.8v-.2c.9,0,1.1-1,1.1-1.7h.2v1.6h1.3v.3h-1.3v2.5c0,.2,0,1,.6,1s.6-.3.6-1v-.5h.2v.5c0,.6-.2,1.2-.9,1.2h0Z"/>
    <path d="M168.9,72.8h-1v-.2c.6,0,.7,0,.7-.4v-2.4c0-.4,0-.5-.7-.5v-.3h1.2v3.2c0,.3,0,.4.6.4v.3h-.9,0ZM168.9,67.9c-.3,0-.5-.2-.5-.5s.2-.5.5-.5.5.2.5.5-.2.5-.5.5Z"/>
    <path d="M172.3,72.9c-1,0-2-.8-2-2s.9-2.1,2-2.1,2,.9,2,2.1-.9,2-2,2ZM173.3,69.6c-.2-.4-.6-.6-1-.6s-.8.2-1,.6-.2.9-.2,1.2,0,.9.2,1.2c.2.4.6.6,1,.6s.8-.3,1-.7c.2-.4.2-.9.2-1.2s0-.8-.2-1.2h0Z"/>
    <path d="M178.3,72.8h-1v-.2c.6,0,.7,0,.7-.4v-2.1c0-.5,0-1-.7-1s-1.2.5-1.2,1.4v1.6q0,.4.7.4v.3h-2v-.3c.6,0,.7,0,.7-.4v-2.4c0-.4,0-.5-.7-.5v-.3h1.2v.8c.2-.5.7-.9,1.3-.9s.8.2.9.3c.3.3.3.6.3,1.4v1.7c0,.3.2.3.7.3v.3h-1,.1Z"/>
  </g>
  <path class="st3" d="M136.7,25.3"/>
  <g>
    <path d="M144.1,32.2h-1.3v-.3h.2q.7,0,.7-.4v-5.1h0l-2.2,5.6s0,.2-.2.2-.1,0-.2-.2l-2.1-5.5h0v4.8c0,.2,0,.7.9.7v.3h-2v-.3c.9,0,.9-.4.9-.7v-4.4c0-.3,0-.4-.7-.4h-.2v-.3h1.5q.2,0,.3.2l1.9,5,1.9-5q0-.2.3-.2h1.5v.3h-.2q-.7,0-.7.4v4.7c0,.3,0,.4.7.4h.2v.3h-1.3.1Z"/>
    <path d="M147.9,32.4c-1,0-2-.8-2-2s.9-2.1,2-2.1,2,.9,2,2.1-.9,2-2,2ZM148.9,29.1c-.2-.4-.6-.6-1-.6s-.8.2-1,.6-.2.9-.2,1.2,0,.9.2,1.2c.2.4.6.6,1,.6s.8-.3,1-.7c.2-.4.2-.9.2-1.2s0-.8-.2-1.2h0Z"/>
    <path d="M153.8,32.2h-1v-.2c.6,0,.7,0,.7-.4v-2.1c0-.5,0-1-.7-1s-1.2.5-1.2,1.4v1.6q0,.4.7.4v.3h-2v-.3c.6,0,.7,0,.7-.4v-2.4c0-.4,0-.5-.7-.5v-.3h1.2v.8c.2-.5.7-.9,1.3-.9s.8.2.9.3c.3.3.3.6.3,1.4v1.7c0,.3.2.3.7.3v.3h-1,.1Z"/>
    <path d="M156.3,32.2h-1v-.2c.6,0,.7,0,.7-.4v-2.4c0-.4,0-.5-.7-.5v-.3h1.2v3.2c0,.3,0,.4.6.4v.3h-.9,0ZM156.2,27.4c-.3,0-.5-.2-.5-.5s.2-.5.5-.5.5.2.5.5-.2.5-.5.5Z"/>
    <path d="M159.5,32.4c-.3,0-1.1,0-1.1-1.2v-2.4h-.8v-.2c.9,0,1.1-1,1.1-1.7h.2v1.6h1.3v.3h-1.3v2.5c0,.2,0,1,.6,1s.6-.3.6-1v-.5h.2v.5c0,.6-.2,1.2-.9,1.2h0Z"/>
    <path d="M163.1,32.4c-1,0-2-.8-2-2s.9-2.1,2-2.1,2,.9,2,2.1-.9,2-2,2ZM164.1,29.1c-.2-.4-.6-.6-1-.6s-.8.2-1,.6-.2.9-.2,1.2,0,.9.2,1.2c.2.4.6.6,1,.6s.8-.3,1-.7c.2-.4.2-.9.2-1.2s0-.8-.2-1.2h0Z"/>
    <path d="M168.2,29.3c-.2,0-.4-.1-.4-.4s.2-.3.2-.3h0c-.7,0-1,.8-1,1.7v1.4c0,.3,0,.4.7.4h.2v.3h-2.1v-.2c.6,0,.7,0,.7-.4v-2.4c0-.4,0-.5-.7-.5v-.3h1.2v.9c.1-.4.4-1,1.1-1s.7.3.7.5-.2.4-.4.4h-.2Z"/>
    <path d="M170.1,32.2h-1v-.2c.6,0,.7,0,.7-.4v-2.4c0-.4,0-.5-.7-.5v-.3h1.2v3.2c0,.3,0,.4.6.4v.3h-.9,0ZM170,27.4c-.3,0-.5-.2-.5-.5s.2-.5.5-.5.5.2.5.5-.2.5-.5.5Z"/>
    <path d="M175,32.2h-1v-.2c.6,0,.7,0,.7-.4v-2.1c0-.5,0-1-.7-1s-1.2.5-1.2,1.4v1.6q0,.4.7.4v.3h-2v-.3c.6,0,.7,0,.7-.4v-2.4c0-.4,0-.5-.7-.5v-.3h1.2v.8c.2-.5.7-.9,1.3-.9s.8.2.9.3c.3.3.3.6.3,1.4v1.7c0,.3.2.3.7.3v.3h-1,.1Z"/>
    <path d="M180.2,29c-.1,0-.3-.1-.3-.3s0-.2.1-.2h0c-.2,0-.5,0-.8.3.2.2.4.5.4.9,0,.7-.6,1.3-1.4,1.3s-.5,0-.9-.3c-.2.2-.2.4-.2.4,0,.3.2.6.5.6h.7c.5,0,1.1,0,1.5.2.5.2.6.7.6,1,0,.7-.9,1.1-2,1.1s-2-.5-2-1.1.3-.7.8-.9c-.3-.2-.4-.5-.4-.8s.2-.6.3-.7c-.2-.2-.4-.5-.4-.9,0-.7.6-1.3,1.4-1.3s.6,0,.9.3c.4-.4.8-.4.9-.4.3,0,.5.3.5.4s-.2.3-.3.3h0ZM178.1,32.2h-.5c-.4,0-.7.4-.7.8s.6.9,1.5.9,1.5-.4,1.5-.9c0-.8-1-.8-1.8-.8ZM178.1,28.6c-.4,0-.6.2-.6.4-.1.2-.1.5-.1.7s0,1.1.8,1.1.6-.2.6-.4c.1-.2.1-.5.1-.7s0-1.1-.8-1.1Z"/>
  </g>
  <path class="st3" d="M331.1,14.3"/>
  <g>
    <path d="M338.5,21.2h-1.3v-.3h.2q.7,0,.7-.4v-5.1h0l-2.2,5.6s0,.2-.2.2-.1,0-.2-.2l-2.1-5.5h0v4.8c0,.2,0,.7.9.7v.3h-2v-.3c.9,0,.9-.4.9-.7v-4.4c0-.3,0-.4-.7-.4h-.2v-.3h1.5q.2,0,.3.2l1.9,5,1.9-5q0-.2.3-.2h1.5v.3h-.2q-.7,0-.7.4v4.7c0,.3,0,.4.7.4h.2v.3h-1.3.1Z"/>
    <path d="M342.3,21.3c-1,0-1.9-.9-1.9-2s.8-2,1.8-2,1.6.9,1.6,1.7,0,.2-.2.2h-2.5c0,.3,0,.9.3,1.3.2.3.6.6,1,.6s.9,0,1.2-.9c0,0,0-.1.1-.1s.1,0,.1.1c0,.2-.4,1.2-1.5,1.2h0ZM342.2,17.4c-.3,0-1,.2-1.1,1.5h2.1c0-.3,0-1.5-1-1.5Z"/>
    <path d="M350.3,21.2h-1v-.2c.6,0,.7,0,.7-.4v-2.1c0-.5,0-1-.7-1s-1.2.5-1.2,1.4v1.6q0,.4.7.4v.3h-2v-.3c.6,0,.7,0,.7-.4v-2.1c0-.5,0-1-.7-1s-1.2.5-1.2,1.4v1.6q0,.4.7.4v.3h-2v-.3c.6,0,.7,0,.7-.4v-2.4c0-.4,0-.5-.7-.5v-.3h1.2v.8c.2-.5.7-.9,1.3-.9s1.1,0,1.2.9c.2-.3.5-.9,1.3-.9s.8.2.9.3c.3.3.3.6.3,1.4v1.7c0,.3.2.3.7.3v.3h-1,.1Z"/>
    <path d="M353.6,21.3c-1,0-2-.8-2-2s.9-2.1,2-2.1,2,.9,2,2.1-.9,2-2,2ZM354.6,18c-.2-.4-.6-.6-1-.6s-.8.2-1,.6-.2.9-.2,1.2,0,.9.2,1.2c.2.4.6.6,1,.6s.8-.3,1-.7c.2-.4.2-.9.2-1.2s0-.8-.2-1.2h0Z"/>
    <path d="M358.7,18.2c-.2,0-.4-.1-.4-.4s.2-.3.2-.3h0c-.7,0-1,.8-1,1.7v1.4c0,.3,0,.4.7.4h.2v.3h-2.1v-.2c.6,0,.7,0,.7-.4v-2.4c0-.4,0-.5-.7-.5v-.3h1.2v.9c.1-.4.4-1,1.1-1s.7.3.7.5-.2.4-.4.4h-.2Z"/>
    <path d="M363,18.2l-1.6,3.8c-.2.5-.6,1-1.1,1s-.8-.3-.8-.7.2-.4.4-.4.4.1.4.4,0,.3-.3.4c.2.2.4.2.4.2.6,0,.8-.6,1-1.1l.2-.5-1.3-3.2c-.1-.3-.3-.3-.7-.3v-.3h1.9v.2c-.2,0-.5,0-.5.2v.2l1,2.4.9-2.2v-.2c0-.2-.1-.4-.4-.4v-.3h1.5v.3c-.1,0-.6,0-.8.6h-.2Z"/>
    <path d="M372.8,17.2c-.1-1.4-.3-1.7-1.6-1.7s-.4,0-.5,0c-.2,0-.2.2-.2.3v4.7c0,.3,0,.4.9.4h.4v.3h-3.4v-.3h.4c.9,0,.9-.1.9-.4v-4.7c0-.2,0-.3-.2-.3h-.5c-1.3,0-1.5.3-1.6,1.7h-.2l.2-2h5.4l.2,2h-.2,0Z"/>
    <path d="M376.7,18.2l-1.6,3.8c-.2.5-.6,1-1.1,1s-.8-.3-.8-.7.2-.4.4-.4.4.1.4.4,0,.3-.3.4c.2.2.4.2.4.2.6,0,.8-.6,1-1.1l.2-.5-1.3-3.2c-.1-.3-.3-.3-.7-.3v-.3h1.9v.2c-.2,0-.5,0-.5.2v.2l1,2.4.9-2.2v-.2c0-.2-.1-.4-.4-.4v-.3h1.5v.3c-.1,0-.6,0-.8.6h-.2Z"/>
    <path d="M380.4,21.3c-.7,0-1-.5-1.1-.6h0v1.6q0,.4.7.4v.3h-2v-.3c.6,0,.7,0,.7-.4v-4.1q0-.4-.7-.4v-.3h1.3v.5c.2-.2.5-.6,1.2-.6,1,0,1.9.9,1.9,2s-.9,2-2,2h0ZM380.4,17.5c-.5,0-.9.3-1.1.7v2q0,.2.1.4c.2.4.6.5.9.5.7,0,1.3-.7,1.3-1.8s-.5-1.8-1.2-1.8h0Z"/>
    <path d="M385.1,21.3c-1,0-1.9-.9-1.9-2s.8-2,1.8-2,1.6.9,1.6,1.7,0,.2-.2.2h-2.5c0,.3,0,.9.3,1.3.2.3.6.6,1,.6s.9,0,1.2-.9c0,0,0-.1.1-.1s.1,0,.1.1c0,.2-.4,1.2-1.5,1.2h0ZM385,17.4c-.3,0-1,.2-1.1,1.5h2.1c0-.3,0-1.5-1-1.5Z"/>
  </g>
  <g>
    <path d="M341.1,32.2h-1.3v-.3h.2q.7,0,.7-.4v-5.1h0l-2.2,5.6s0,.2-.2.2-.1,0-.2-.2l-2.1-5.5h0v4.8c0,.2,0,.7.9.7v.3h-2v-.3c.9,0,.9-.4.9-.7v-4.4c0-.3,0-.4-.7-.4h-.2v-.3h1.5q.2,0,.3.2l1.9,5,1.9-5q0-.2.3-.2h1.5v.3h-.2q-.7,0-.7.4v4.7c0,.3,0,.4.7.4h.2v.3h-1.3.1Z"/>
    <path d="M346.4,32.3c-.4,0-.7-.4-.7-.7-.2.4-.6.8-1.2.8s-1.4-.2-1.4-.9.2-.8.9-1.2c.6-.3,1.2-.3,1.6-.3v-.3c0-.8-.5-1.1-.9-1.1s-.7,0-1,.4c.4,0,.5.3.5.4,0,.2-.2.4-.4.4s-.4-.2-.4-.4c0-.6.6-1,1.3-1s.9.1,1.2.5c.3.3.3.7.3,1v1.8s0,.4.3.4.3,0,.3-.6v-.5h.2v.5c0,.7-.5.8-.7.8h.1ZM345.6,30.1c-1.5,0-1.8.8-1.8,1.3s.4.8.8.8,1-.3,1-1.1v-.9h0Z"/>
    <path d="M350.9,32.2h-1v-.2c.6,0,.7,0,.7-.4v-2.1c0-.5,0-1-.7-1s-1.2.5-1.2,1.4v1.6q0,.4.7.4v.3h-2v-.3c.6,0,.7,0,.7-.4v-2.4c0-.4,0-.5-.7-.5v-.3h1.2v.8c.2-.5.7-.9,1.3-.9s.8.2.9.3c.3.3.3.6.3,1.4v1.7c0,.3.2.3.7.3v.3h-1,.1Z"/>
    <path d="M355.7,32.3c-.4,0-.7-.4-.7-.7-.2.4-.6.8-1.2.8s-1.4-.2-1.4-.9.2-.8.9-1.2c.6-.3,1.2-.3,1.6-.3v-.3c0-.8-.5-1.1-.9-1.1s-.7,0-1,.4c.4,0,.5.3.5.4,0,.2-.2.4-.4.4s-.4-.2-.4-.4c0-.6.6-1,1.3-1s.9.1,1.2.5c.3.3.3.7.3,1v1.8s0,.4.3.4.3,0,.3-.6v-.5h.2v.5c0,.7-.5.8-.7.8h.1ZM354.9,30.1c-1.5,0-1.8.8-1.8,1.3s.4.8.8.8,1-.3,1-1.1v-.9h0Z"/>
    <path d="M360.5,28.9c-.1,0-.3-.1-.3-.3s0-.2.1-.2h0c-.2,0-.5,0-.8.3.2.2.4.5.4.9,0,.7-.6,1.3-1.4,1.3s-.5,0-.9-.3c-.2.2-.2.4-.2.4,0,.3.2.6.5.6h.7c.5,0,1.1,0,1.5.2.5.2.6.7.6,1,0,.7-.9,1.1-2,1.1s-2-.5-2-1.1.3-.7.8-.9c-.3-.2-.4-.5-.4-.8s.2-.6.3-.7c-.2-.2-.4-.5-.4-.9,0-.7.6-1.3,1.4-1.3s.6,0,.9.3c.4-.4.8-.4.9-.4.3,0,.5.3.5.4s-.2.3-.3.3h0ZM358.4,32.1h-.5c-.4,0-.7.4-.7.8s.6.9,1.5.9,1.5-.4,1.5-.9c0-.8-1-.8-1.8-.8ZM358.4,28.5c-.4,0-.6.2-.6.4-.1.2-.1.5-.1.7s0,1.1.8,1.1.6-.2.6-.4c.1-.2.1-.5.1-.7s0-1.1-.8-1.1Z"/>
    <path d="M363.1,32.3c-1,0-1.9-.9-1.9-2s.8-2,1.8-2,1.6.9,1.6,1.7,0,.2-.2.2h-2.5c0,.3,0,.9.3,1.3.2.3.6.6,1,.6s.9,0,1.2-.9c0,0,0-.1.1-.1s.1,0,.1.1c0,.2-.4,1.2-1.5,1.2h0ZM363,28.4c-.3,0-1,.2-1.1,1.5h2.1c0-.3,0-1.5-1-1.5Z"/>
    <path d="M371,32.2h-1v-.2c.6,0,.7,0,.7-.4v-2.1c0-.5,0-1-.7-1s-1.2.5-1.2,1.4v1.6q0,.4.7.4v.3h-2v-.3c.6,0,.7,0,.7-.4v-2.1c0-.5,0-1-.7-1s-1.2.5-1.2,1.4v1.6q0,.4.7.4v.3h-2v-.3c.6,0,.7,0,.7-.4v-2.4c0-.4,0-.5-.7-.5v-.3h1.2v.8c.2-.5.7-.9,1.3-.9s1.1,0,1.2.9c.2-.3.5-.9,1.3-.9s.8.2.9.3c.3.3.3.6.3,1.4v1.7c0,.3.2.3.7.3v.3h-1,.1Z"/>
    <path d="M374.4,32.3c-1,0-1.9-.9-1.9-2s.8-2,1.8-2,1.6.9,1.6,1.7,0,.2-.2.2h-2.5c0,.3,0,.9.3,1.3.2.3.6.6,1,.6s.9,0,1.2-.9c0,0,0-.1.1-.1s.1,0,.1.1c0,.2-.4,1.2-1.5,1.2h0ZM374.3,28.4c-.3,0-1,.2-1.1,1.5h2.1c0-.3,0-1.5-1-1.5Z"/>
    <path d="M379.9,32.2h-1v-.2c.6,0,.7,0,.7-.4v-2.1c0-.5,0-1-.7-1s-1.2.5-1.2,1.4v1.6q0,.4.7.4v.3h-2v-.3c.6,0,.7,0,.7-.4v-2.4c0-.4,0-.5-.7-.5v-.3h1.2v.8c.2-.5.7-.9,1.3-.9s.8.2.9.3c.3.3.3.6.3,1.4v1.7c0,.3.2.3.7.3v.3h-1,.1Z"/>
    <path d="M382.9,32.3c-.3,0-1.1,0-1.1-1.2v-2.4h-.8v-.2c.9,0,1.1-1,1.1-1.7h.2v1.6h1.3v.3h-1.3v2.5c0,.2,0,1,.6,1s.6-.3.6-1v-.5h.2v.5c0,.6-.2,1.2-.9,1.2h0Z"/>
  </g>
  <path class="st3" d="M203.4,127.2"/>
  <g>
    <path d="M209,130.2c-.1-1.1-.3-1.6-1.5-1.6h-1q-.4,0-.4.3v2h.7c.8,0,.9-.3.9-.9h.2v2.1h-.2c0-.7,0-.9-.9-.9h-.7v2c0,.3,0,.4.8.4h.3v.2h-2.6v-.2h.2q.6,0,.6-.4v-4.2c0-.3,0-.4-.6-.4h-.2v-.2h4.4l.2,1.8h-.2Z"/>
    <path d="M212.7,131.3h-1.4v1.9c0,.3,0,.4.6.4h.2v.2h-2.4v-.2h.2q.6,0,.6-.4v-4.3c0-.3,0-.4-.6-.4h-.2v-.2h2.8c1.1,0,1.9.7,1.9,1.5s-.9,1.5-1.8,1.5h0ZM212.5,128.6h-.7q-.4,0-.4.3v2.2h1.1c1.3,0,1.3-.9,1.3-1.3s0-1.3-1.3-1.3h0Z"/>
    <path d="M220.4,132.3v1.6s-.4-.3-.5-.5c-.3.5-.9.7-1.5.7-1.5,0-2.8-1.3-2.8-2.9s1.3-2.9,2.8-2.9,1.2.4,1.5.7l.4-.6h.1v2.1q0,.2-.1.2t-.1-.1c-.2-1.2-.9-1.9-1.8-1.9s-2.1.3-2.1,2.7,1.6,2.7,2.1,2.7,1.3,0,1.3-1v-.5c0-.3,0-.4-.8-.4h-.3v-.2h2.3v.2c-.5,0-.6,0-.6.4v-.3Z"/>
    <path d="M226.1,133.8h-1.2v-.2c.2,0,.7,0,.7-.2s0,0,0-.1l-.4-1.2h-2l-.4,1.1h0c0,.3.2.5.6.5v.2h-1.7v-.2c.4,0,.8-.1.9-.5l1.7-4.8c0-.1,0-.2.2-.2s.1,0,.2.2l1.7,5c0,.3.2.3.7.3h.1v.2h-1.1ZM224.2,129.1l-.9,2.6h1.8l-.9-2.6h0Z"/>
  </g>
  <path class="st3" d="M201.7,89.9"/>
  <g>
    <path d="M205.3,97.2c-.8,0-1.4-.3-1.6-.6l-.3.5s0,0-.1,0v-2q0-.2.1-.2h.1c0,.3,0,.9.5,1.4.5.4,1.1.5,1.4.5.7,0,1.2-.6,1.2-1.3s0-.6-.3-.8c-.2-.3-.5-.4-.8-.5-.6-.2-1.1-.3-1.2-.3-.7-.2-1.2-.9-1.2-1.6s.7-1.7,1.7-1.7,1.2.4,1.4.6l.3-.5q0,0,.1,0v2q0,.2-.1.2c-.1,0,0,0-.1,0,0-.4-.2-1.8-1.7-1.8s-1.2.5-1.2,1.2.3,1,.9,1.1l1.1.3c.7.2,1.3.9,1.3,1.8s-.7,1.8-1.7,1.8h.2Z"/>
    <path d="M209.7,97.1c-1,0-1.9-.9-1.9-2s.8-2.1,1.9-2.1,1.4.3,1.4.9-.2.4-.4.4-.4-.2-.4-.4,0-.4.4-.4c-.3-.3-.9-.3-.9-.3-.5,0-1.2.4-1.2,1.8s.8,1.8,1.2,1.8.9,0,1.2-.9h.2s-.3,1.2-1.5,1.2h0Z"/>
  </g>
  <path class="st3" d="M225.5,90.4"/>
  <g>
    <path d="M229,97.7c-.8,0-1.4-.3-1.6-.6l-.3.5s0,0-.1,0v-2q0-.2.1-.2h.1c0,.3,0,.9.5,1.4.5.4,1.1.5,1.4.5.7,0,1.2-.6,1.2-1.3s0-.6-.3-.8c-.2-.3-.5-.4-.8-.5-.6-.2-1.1-.3-1.2-.3-.7-.2-1.2-.9-1.2-1.6s.7-1.7,1.7-1.7,1.2.4,1.4.6l.3-.5q0,0,.1,0v2q0,.2-.1.2c-.1,0,0,0-.1,0,0-.4-.2-1.8-1.7-1.8s-1.2.5-1.2,1.2.3,1,.9,1.1l1.1.3c.7.2,1.3.9,1.3,1.8s-.7,1.8-1.7,1.8h.2Z"/>
    <path d="M234.1,94.5c-.2,0-.4,0-.4-.4s.2-.3.2-.3h0c-.7,0-1,.8-1,1.7v1.4c0,.3,0,.4.7.4h.2v.3h-2.1v-.2c.6,0,.7,0,.7-.4v-2.4c0-.4,0-.5-.7-.5v-.3h1.2v.9c.1-.4.4-1,1.1-1s.7.3.7.5-.2.4-.4.4h-.2Z"/>
  </g>
  <path class="st3" d="M308.7,122.8"/>
  <g>
    <path d="M312.8,126.6h-1.4v1.9c0,.3,0,.4.6.4h.2v.2h-2.4v-.2h.2q.6,0,.6-.4v-4.3c0-.3,0-.4-.6-.4h-.2v-.2h2.8c1.1,0,1.9.7,1.9,1.5s-.9,1.5-1.8,1.5h.1ZM312.5,123.9h-.7q-.4,0-.4.3v2.2h1.1c1.3,0,1.3-.9,1.3-1.3s0-1.3-1.3-1.3h0Z"/>
    <path d="M320,124.6v3.2c-.1.9-.9,1.7-1.8,1.7s-2-.9-2-2v-3c0-.3,0-.4-.6-.4h-.2v-.2h2.4v.2h-.2q-.6,0-.6.4v3.1c0,1.5,1,1.7,1.3,1.7.8,0,1.5-.6,1.5-1.8v-2.8c0-.2,0-.6-.8-.6v-.2h2v.2c-.8,0-.8.4-.8.6h-.2Z"/>
    <path d="M325.9,125.5c-.1-1.1-.3-1.6-1.5-1.6h-1q-.4,0-.4.3v2h.7c.8,0,.9-.3.9-.9h.2v2.1h-.2c0-.7,0-.9-.9-.9h-.7v2c0,.3,0,.4.8.4h.3v.2h-2.6v-.2h.2q.6,0,.6-.4v-4.2c0-.3,0-.4-.6-.4h-.2v-.2h4.4l.2,1.8h-.2,0Z"/>
    <path d="M330.3,129.2h-.9v-.2c.5,0,.6,0,.6-.4v-2.2q0-.4-.6-.4v-.2h1.1v2.9c0,.3,0,.4.6.4v.2h-.8ZM330.2,124.7c-.2,0-.4-.2-.4-.4s.2-.4.4-.4.4.2.4.4-.2.4-.4.4Z"/>
    <path d="M334.8,129.2h-.9v-.2c.5,0,.6,0,.6-.4v-1.9c0-.5,0-.9-.6-.9s-1.1.5-1.1,1.3v1.5q0,.4.6.4v.2h-1.8v-.2c.5,0,.6,0,.6-.4v-2.2c0-.4,0-.5-.6-.5v-.2h1.1v.8c.2-.5.6-.8,1.2-.8s.7.2.8.3c.2.3.2.5.2,1.2v1.5c0,.2.2.2.6.2v.2h-.9.2Z"/>
    <path d="M337.5,129.3c-.2,0-.5,0-.9-.3q-.1.2-.2.2l-.2.2v-1.3c0,0,0-.2.1-.2s0,0,.1,0c.2.7.4,1.1,1.1,1.1s.9-.3.9-.7-.7-.7-.8-.7c-.6,0-.8-.2-1.1-.4-.2-.2-.3-.4-.3-.7,0-.5.3-1,1.3-1s.5,0,.8.2c0,0,.1,0,.1,0h.2v1q0,.2-.1.2h0c0-.2,0-1-.9-1s-.9.3-.9.6c0,.5.5.6,1,.7.3,0,.7,0,.9.4,0,0,.3.3.3.8s-.4,1.1-1.3,1.1v-.2Z"/>
    <path d="M340.9,129.3c-.3,0-1,0-1-1.1v-2.2h-.7v-.2c.8,0,1-.9,1-1.6h.2v1.5h1.2v.2h-1.2v2.2c0,.1,0,.9.5.9s.5-.3.5-.9v-.4h.2v.5c0,.5-.2,1.1-.8,1.1h0Z"/>
    <path d="M345.5,129.2c-.4,0-.6-.3-.6-.7-.2.4-.5.7-1.1.7s-1.3-.2-1.3-.9.2-.8.8-1c.5-.2,1.1-.3,1.5-.3v-.3c0-.7-.5-1-.9-1s-.7,0-.9.4c.4,0,.4.3.4.4,0,.2-.1.4-.4.4s-.4,0-.4-.4c0-.5.6-.9,1.2-.9s.8,0,1.1.4c.3.3.3.6.3,1v1.6s0,.4.3.4.3,0,.3-.5v-.5h.2v.5c0,.7-.5.8-.7.8h.2ZM344.8,127.3c-1.3,0-1.7.7-1.7,1.2s.3.7.7.7.9-.3.9-1v-.8h.1Z"/>
    <path d="M349.6,129.2h-.9v-.2c.5,0,.6,0,.6-.4v-1.9c0-.5,0-.9-.6-.9s-1.1.5-1.1,1.3v1.5q0,.4.6.4v.2h-1.8v-.2c.5,0,.6,0,.6-.4v-2.2c0-.4,0-.5-.6-.5v-.2h1.1v.8c.2-.5.6-.8,1.2-.8s.7.2.8.3c.2.3.2.5.2,1.2v1.5c0,.2.2.2.6.2v.2h-.9.2Z"/>
    <path d="M352.7,129.3c-.9,0-1.7-.8-1.7-1.8s.7-1.9,1.8-1.9,1.2.3,1.2.9-.2.4-.4.4-.4-.2-.4-.4,0-.3.4-.4c-.3-.3-.8-.3-.9-.3-.4,0-1.1.3-1.1,1.7s.7,1.6,1.1,1.6.8,0,1.1-.8h.2s-.3,1-1.3,1h0Z"/>
    <path d="M356.3,129.3c-.9,0-1.8-.8-1.8-1.9s.7-1.8,1.7-1.8,1.4.8,1.4,1.6,0,.2-.2.2h-2.3c0,.3,0,.8.2,1.2.2.3.5.5.9.5s.8,0,1.1-.8c0,0,0-.1.1-.1h.1c0,.2-.4,1-1.3,1h0ZM356.2,125.8c-.3,0-1,.2-1,1.4h1.9c0-.3,0-1.4-.9-1.4Z"/>
  </g>
  <path d="M361.3,129.2v-5.8h1.6c.7,0,1.2,0,1.5.4.3.2.5.6.5,1.2s-.2,1.1-.6,1.5-1,.5-1.8.5h-.4v2.3h-.8ZM362.1,126.2h.3c.5,0,.9,0,1.1-.3.3-.2.4-.5.4-1s-.1-.6-.3-.7c-.2-.2-.6-.2-1.1-.2h-.5v2.3h.1Z"/>
  <path class="st3" d="M282.5,110.8"/>
  <path d="M287,118.2c-1.6,0-3.1-1.4-3.1-3.2s1.4-3.2,3.1-3.2,1.3.4,1.6.8l.4-.7c0,0,.1,0,.1,0v2.3q0,.2-.1.2t-.1-.2c-.2-1.3-1-2.1-1.9-2.1s-2.3.3-2.3,2.9,1.7,2.9,2.3,2.9c1,0,1.9-.7,2-2,0,0,0,0,.1,0s.1,0,.1.2c0,1-.9,2.3-2.3,2.3h0Z"/>
  <path class="st3" d="M284.5,132.6"/>
  <path d="M291.1,139.8c-.3,0-.8,0-1.1-.4-.4-.3-.4-.7-.4-1.3s0-.9-.3-1.2-.7-.3-.8-.3h-1v2.2c0,.3,0,.4.7.4h.2v.3h-2.6v-.3h.2q.7,0,.7-.4v-4.7c0-.3,0-.4-.7-.4h-.2v-.3h2.8c1.3,0,2.3.7,2.3,1.6s-.7,1.2-1.5,1.4c.5.2.9.5,1.1,1v.7c.2.8.3,1.3.7,1.3s.5-.2.6-.8c0,0,0-.1.1-.1s.1,0,.1.2-.2,1-.8,1h-.1ZM288.1,133.8h-.5c-.2,0-.2.1-.2.3v2.3h1c1.3,0,1.5-.7,1.5-1.3,0-1.3-1-1.3-1.8-1.3Z"/>
  <path class="st3" d="M7.5,95.4"/>
  <g>
    <path d="M15,102.4h-1.3v-.3h.2q.7,0,.7-.4v-5.1h0l-2.2,5.6s0,.2-.2.2-.1,0-.2-.2l-2.1-5.5h0v4.8c0,.2,0,.7.9.7v.3h-2v-.3c.9,0,.9-.4.9-.7v-4.4c0-.3,0-.4-.7-.4h-.2v-.3h1.5q.2,0,.3.2l1.9,5,1.9-5q0-.2.3-.2h1.5v.3h-.2q-.7,0-.7.4v4.7c0,.3,0,.4.7.4h.2v.3h-1.3.1Z"/>
    <path d="M18.8,102.6c-1,0-1.9-.9-1.9-2s.8-2,1.8-2,1.6.9,1.6,1.7,0,.2-.2.2h-2.5c0,.3,0,.9.3,1.3.2.3.6.6,1,.6s.9,0,1.2-.9c0,0,0,0,.1,0s.1,0,.1,0c0,.2-.4,1.2-1.5,1.2h0ZM18.7,98.7c-.3,0-1,.2-1.1,1.5h2.1c0-.3,0-1.5-1-1.5Z"/>
    <path d="M26.7,102.4h-1v-.2c.6,0,.7,0,.7-.4v-2.1c0-.5,0-1-.7-1s-1.2.5-1.2,1.4v1.6q0,.4.7.4v.3h-2v-.3c.6,0,.7,0,.7-.4v-2.1c0-.5,0-1-.7-1s-1.2.5-1.2,1.4v1.6q0,.4.7.4v.3h-2v-.3c.6,0,.7,0,.7-.4v-2.4c0-.4,0-.5-.7-.5v-.3h1.2v.8c.2-.5.7-.9,1.3-.9s1.1,0,1.2.9c.2-.3.5-.9,1.3-.9s.8.2.9.3c.3.3.3.6.3,1.4v1.7c0,.3.2.3.7.3v.3h-1,.1Z"/>
    <path d="M30.1,102.6c-1,0-2-.8-2-2s.9-2.1,2-2.1,2,.9,2,2.1-.9,2-2,2ZM31.1,99.3c-.2-.4-.6-.6-1-.6s-.8.2-1,.6-.2.9-.2,1.2,0,.9.2,1.2c.2.4.6.6,1,.6s.8-.3,1-.7c.2-.4.2-.9.2-1.2s0-.8-.2-1.2h0Z"/>
    <path d="M35.1,99.5c-.2,0-.4,0-.4-.4s.2-.3.2-.3h0c-.7,0-1,.8-1,1.7v1.4c0,.3,0,.4.7.4h.2v.3h-2.1v-.2c.6,0,.7,0,.7-.4v-2.4c0-.4,0-.5-.7-.5v-.3h1.2v.9c0-.4.4-1,1.1-1s.7.3.7.5-.2.4-.4.4h-.2Z"/>
    <path d="M39.4,99.5l-1.6,3.8c-.2.5-.6,1-1.1,1s-.8-.3-.8-.7.2-.4.4-.4.4,0,.4.4,0,.3-.3.4c.2.2.4.2.4.2.6,0,.8-.6,1-1.1l.2-.5-1.3-3.2c0-.3-.3-.3-.7-.3v-.3h1.9v.2c-.2,0-.5,0-.5.2v.2l1,2.4.9-2.2v-.2c0-.2,0-.4-.4-.4v-.3h1.5v.3c0,0-.6,0-.8.6h-.2Z"/>
    <path d="M49.9,102.4h-1.3v-.3h.2q.7,0,.7-.4v-5.1h0l-2.2,5.6s0,.2-.2.2,0,0-.2-.2l-2.1-5.5h0v4.8c0,.2,0,.7.9.7v.3h-2v-.3c.9,0,.9-.4.9-.7v-4.4c0-.3,0-.4-.7-.4h-.2v-.3h1.5q.2,0,.3.2l1.9,5,1.9-5q0-.2.3-.2h1.5v.3h-.2q-.7,0-.7.4v4.7c0,.3,0,.4.7.4h.2v.3h-1.3,0Z"/>
    <path d="M53.7,102.6c-1,0-2-.8-2-2s.9-2.1,2-2.1,2,.9,2,2.1-.9,2-2,2ZM54.7,99.3c-.2-.4-.6-.6-1-.6s-.8.2-1,.6-.2.9-.2,1.2,0,.9.2,1.2c.2.4.6.6,1,.6s.8-.3,1-.7c.2-.4.2-.9.2-1.2s0-.8-.2-1.2h0Z"/>
    <path d="M59.5,102.6v-.6c-.2.3-.6.6-1.2.6-1,0-1.9-.9-1.9-2s.9-2,2-2,.9.2,1.1.5v-1.9c0-.4,0-.5-.7-.5v-.3h1.3v5.3c0,.4,0,.5.7.5v.3h-1.3,0ZM59.5,99.6v-.3c-.3-.4-.6-.5-1-.5s-.8.3-1,.6c-.3.4-.3.9-.3,1.3s0,.9.3,1.2c.2.3.5.6.9.6s.8-.2,1-.6v-2.3Z"/>
    <path d="M63.2,102.6c-1,0-1.9-.9-1.9-2s.8-2,1.8-2,1.6.9,1.6,1.7,0,.2-.2.2h-2.5c0,.3,0,.9.3,1.3.2.3.6.6,1,.6s.9,0,1.2-.9c0,0,0,0,0,0s0,0,0,0c0,.2-.4,1.2-1.5,1.2h0ZM63.1,98.7c-.3,0-1,.2-1.1,1.5h2.1c0-.3,0-1.5-1-1.5Z"/>
    <path d="M66.3,102.4h-1v-.2c.6,0,.7,0,.7-.4v-4.6c0-.4,0-.5-.7-.5v-.3h1.3v5.4q0,.4.7.4v.3h-1Z"/>
    <path d="M69.2,102.6c-.2,0-.6,0-1-.4l-.2.2-.2.2v-1.4q0-.2,0-.2c0,0,0,0,0,.2.2.8.5,1.3,1.2,1.3s1-.4,1-.8-.7-.8-.9-.8c-.6,0-.9-.2-1.2-.4-.2-.2-.4-.4-.4-.8s.3-1.1,1.4-1.1.5,0,.8.2c0,0,0,0,.2,0q0,0,.2,0v1.1q0,.2,0,.2h0c0-.3,0-1.1-1-1.1s-1,.4-1,.7c0,.5.6.6,1.1.7.4,0,.7,0,1,.4s.4.4.4.8-.4,1.2-1.4,1.2h0Z"/>
  </g>
  <path class="st3" d="M2.9,143.9"/>
  <g>
    <path d="M10.3,150.8h-1.3v-.3h.2q.7,0,.7-.4v-5.1h0l-2.2,5.6s0,.2-.2.2,0,0-.2-.2l-2.1-5.5h0v4.8c0,.2,0,.7.9.7v.3h-2v-.3c.9,0,.9-.4.9-.7v-4.4c0-.3,0-.4-.7-.4h-.2v-.3h1.5q.2,0,.3.2l1.9,5,1.9-5q0-.2.3-.2h1.5v.3h-.2q-.7,0-.7.4v4.7c0,.3,0,.4.7.4h.2v.3h-1.3,0Z"/>
    <path d="M14.1,150.9c-1,0-1.9-.9-1.9-2s.8-2,1.8-2,1.6.9,1.6,1.7,0,.2-.2.2h-2.5c0,.3,0,.9.3,1.3.2.3.6.6,1,.6s.9,0,1.2-.9c0,0,0-.1.1-.1s.1,0,.1.1c0,.2-.4,1.2-1.5,1.2h0ZM14,147.1c-.3,0-1,.2-1.1,1.5h2.1c0-.3,0-1.5-1-1.5Z"/>
    <path d="M22,150.8h-1v-.2c.6,0,.7,0,.7-.4v-2.1c0-.5,0-1-.7-1s-1.2.5-1.2,1.4v1.6q0,.4.7.4v.3h-2v-.3c.6,0,.7,0,.7-.4v-2.1c0-.5,0-1-.7-1s-1.2.5-1.2,1.4v1.6q0,.4.7.4v.3h-2v-.3c.6,0,.7,0,.7-.4v-2.4c0-.4,0-.5-.7-.5v-.3h1.2v.8c.2-.5.7-.9,1.3-.9s1.1,0,1.2.9c.2-.3.5-.9,1.3-.9s.8.2.9.3c.3.3.3.6.3,1.4v1.7c0,.3.2.3.7.3v.3h-1,.1Z"/>
    <path d="M25.4,150.9c-1,0-2-.8-2-2s.9-2.1,2-2.1,2,.9,2,2.1-.9,2-2,2ZM26.4,147.6c-.2-.4-.6-.6-1-.6s-.8.2-1,.6c-.2.4-.2.9-.2,1.2s0,.9.2,1.2c.2.4.6.6,1,.6s.8-.3,1-.7.2-.9.2-1.2,0-.8-.2-1.2h0Z"/>
    <path d="M30.5,147.9c-.2,0-.4-.1-.4-.4s.2-.3.2-.3h0c-.7,0-1,.8-1,1.7v1.4c0,.3,0,.4.7.4h.2v.3h-2.1v-.2c.6,0,.7,0,.7-.4v-2.4c0-.4,0-.5-.7-.5v-.3h1.2v.9c.1-.4.4-1,1.1-1s.7.3.7.5-.2.4-.4.4h-.2Z"/>
    <path d="M34.8,147.9l-1.6,3.8c-.2.5-.6,1-1.1,1s-.8-.3-.8-.7.2-.4.4-.4.4.1.4.4,0,.3-.3.4c.2.2.4.2.4.2.6,0,.8-.6,1-1.1l.2-.5-1.3-3.2c0-.3-.3-.3-.7-.3v-.3h1.9v.2c-.2,0-.5,0-.5.2v.2l1,2.4.9-2.2v-.2c0-.2,0-.4-.4-.4v-.3h1.5v.3c0,0-.6,0-.8.6h-.2Z"/>
    <path d="M40.3,150.8h-1.3v-.3h.2q.7,0,.7-.4v-4.7c0-.3,0-.4-.7-.4h-.2v-.3h2.7v.3h-.2q-.7,0-.7.4v4.7c0,.3,0,.4.7.4h.2v.3h-1.4Z"/>
    <path d="M45.6,150.8h-1v-.2c.6,0,.7,0,.7-.4v-2.1c0-.5,0-1-.7-1s-1.2.5-1.2,1.4v1.6q0,.4.7.4v.3h-2v-.3c.6,0,.7,0,.7-.4v-2.4c0-.4,0-.5-.7-.5v-.3h1.2v.8c.2-.5.7-.9,1.3-.9s.8.2.9.3c.3.3.3.6.3,1.4v1.7c0,.3.2.3.7.3v.3h-1,0Z"/>
    <path d="M48.6,150.9c-.2,0-.6,0-1-.4l-.2.2-.2.2v-1.4q0-.2,0-.2c0,0,0,0,0,.2.2.8.5,1.3,1.2,1.3s1-.4,1-.8-.7-.8-.9-.8c-.6-.1-.9-.2-1.2-.4-.2-.2-.4-.4-.4-.8s.3-1.1,1.4-1.1.5,0,.8.2c0,0,0-.1.2-.1q0-.1.2-.1v1.1q0,.2,0,.2h0c0-.3,0-1.1-1-1.1s-1,.4-1,.7c0,.5.6.6,1.1.7.4,0,.7.1,1,.4,0,.1.4.4.4.8s-.4,1.2-1.4,1.2h0Z"/>
    <path d="M52.4,150.9c-.3,0-1.1-.1-1.1-1.2v-2.4h-.8v-.2c.9,0,1.1-1,1.1-1.7h.2v1.6h1.3v.3h-1.3v2.5c0,.2,0,1,.6,1s.6-.3.6-1v-.5h.2v.5c0,.6-.2,1.2-.9,1.2h.1Z"/>
    <path d="M57.4,150.9c-.4,0-.7-.4-.7-.7-.2.4-.6.8-1.2.8s-1.4-.2-1.4-.9.2-.8.9-1.2c.6-.3,1.2-.3,1.6-.3v-.3c0-.8-.5-1.1-.9-1.1s-.7,0-1,.4c.4,0,.5.3.5.4,0,.2-.2.4-.4.4s-.4-.2-.4-.4c0-.6.6-1,1.3-1s.9.1,1.2.5c.3.3.3.7.3,1v1.8s0,.4.3.4.3,0,.3-.6v-.5h.2v.5c0,.7-.5.8-.7.8h.1ZM56.6,148.7c-1.5,0-1.8.8-1.8,1.3s.4.8.8.8,1-.3,1-1.1v-.9h0Z"/>
    <path d="M61.9,150.8h-1v-.2c.6,0,.7,0,.7-.4v-2.1c0-.5,0-1-.7-1s-1.2.5-1.2,1.4v1.6q0,.4.7.4v.3h-2v-.3c.6,0,.7,0,.7-.4v-2.4c0-.4,0-.5-.7-.5v-.3h1.2v.8c.2-.5.7-.9,1.3-.9s.8.2.9.3c.3.3.3.6.3,1.4v1.7c0,.3.2.3.7.3v.3h-1,0Z"/>
    <path d="M65.3,150.9c-1,0-1.9-.9-1.9-2s.8-2.1,1.9-2.1,1.4.3,1.4.9-.2.4-.4.4-.4-.2-.4-.4,0-.4.4-.4c-.3-.3-.9-.3-.9-.3-.5,0-1.2.4-1.2,1.8s.8,1.8,1.2,1.8.9-.1,1.2-.9h.2s-.3,1.2-1.5,1.2Z"/>
    <path d="M69.2,150.9c-1,0-1.9-.9-1.9-2s.8-2,1.8-2,1.6.9,1.6,1.7,0,.2-.2.2h-2.5c0,.3,0,.9.3,1.3.2.3.6.6,1,.6s.9,0,1.2-.9c0,0,0-.1,0-.1s0,0,0,.1c0,.2-.4,1.2-1.5,1.2h0ZM69.1,147.1c-.3,0-1,.2-1.1,1.5h2.1c0-.3,0-1.5-1-1.5Z"/>
    <path d="M72.7,150.9c-.2,0-.6,0-1-.4l-.2.2-.2.2v-1.4q0-.2,0-.2c0,0,0,0,0,.2.2.8.5,1.3,1.2,1.3s1-.4,1-.8-.7-.8-.9-.8c-.6-.1-.9-.2-1.2-.4-.2-.2-.4-.4-.4-.8s.3-1.1,1.4-1.1.5,0,.8.2c0,0,0-.1.2-.1q0-.1.2-.1v1.1q0,.2,0,.2h0c0-.3,0-1.1-1-1.1s-1,.4-1,.7c0,.5.6.6,1.1.7.4,0,.7.1,1,.4,0,.1.4.4.4.8s-.4,1.2-1.4,1.2h0Z"/>
  </g>
  <path class="st3" d="M190.1,109.4"/>
  <g>
    <path d="M194.2,113.4h-1.4v1.9c0,.3,0,.4.6.4h.2v.2h-2.4v-.2h.2q.6,0,.6-.4v-4.3c0-.3,0-.4-.6-.4h-.2v-.2h2.8c1.1,0,1.9.7,1.9,1.5s-.9,1.5-1.8,1.5h0ZM194,110.7h-.7q-.4,0-.4.3v2.2h1.1c1.3,0,1.3-.9,1.3-1.3s0-1.3-1.3-1.3h0Z"/>
    <path d="M199,116.2c-.7,0-1.2-.3-1.5-.6-.3.4-.3.5-.3.5,0,0,0,0-.1,0v-1.8c0,0,0-.2.1-.2s0,0,0,0c0,.3,0,.8.5,1.2.4.4,1,.4,1.3.4.7,0,1.1-.6,1.1-1.2s0-.5-.2-.7c-.2-.3-.5-.4-.7-.4-.6,0-1-.2-1.1-.3-.6-.2-1.1-.8-1.1-1.5s.7-1.6,1.6-1.6,1,.3,1.3.6l.3-.5s0,0,.1,0v1.8q0,.2-.1.2c-.1,0,0,0,0,0,0-.4-.2-1.7-1.6-1.7s-1.1.5-1.1,1.1.3.9.8,1l1,.2c.7.2,1.2.8,1.2,1.6s-.6,1.7-1.6,1.7v.2Z"/>
    <path d="M208.4,112.3c-.1-1.1-.3-1.6-1.5-1.6h-1q-.4,0-.4.3v2h.7c.8,0,.9-.3.9-.9h.2v2.1h-.2c0-.7,0-.9-.9-.9h-.7v2c0,.3,0,.4.8.4h.3v.2h-2.6v-.2h.2q.6,0,.6-.4v-4.2c0-.3,0-.4-.6-.4h-.2v-.2h4.4l.2,1.8h-.2Z"/>
    <path d="M210.1,116h-.9v-.2c.5,0,.6,0,.6-.4v-2.2q0-.4-.6-.4v-.2h1.1v2.9c0,.3,0,.4.6.4v.2h-.8ZM210.1,111.6c-.2,0-.4-.2-.4-.4s.2-.4.4-.4.4.2.4.4-.2.4-.4.4Z"/>
    <path d="M213.8,113.3c-.2,0-.3,0-.3-.3s.2-.3.2-.3h0c-.6,0-1,.7-1,1.5v1.2c0,.3,0,.4.6.4h.2v.2h-1.9v-.2c.5,0,.6,0,.6-.4v-2.2c0-.4,0-.5-.6-.5v-.2h1.1v.8c.1-.3.4-.9,1-.9s.6.2.6.5-.2.4-.3.4h-.2Z"/>
    <path d="M220,116h-.9v-.2c.5,0,.6,0,.6-.4v-1.9c0-.5,0-.9-.6-.9s-1.1.5-1.1,1.3v1.5q0,.4.6.4v.2h-1.8v-.2c.5,0,.6,0,.6-.4v-1.9c0-.5,0-.9-.6-.9s-1.1.5-1.1,1.3v1.5q0,.4.6.4v.2h-1.8v-.2c.5,0,.6,0,.6-.4v-2.2c0-.4,0-.5-.6-.5v-.2h1.1v.8c.2-.5.6-.8,1.2-.8s1,0,1.1.8c.1-.3.5-.8,1.2-.8s.7.2.8.3c.2.3.2.5.2,1.2v1.5c0,.2.2.2.6.2v.2h-.9.2Z"/>
    <path d="M225.9,113.3l-.9,2.6s0,.2-.2.2-.1,0-.2-.2l-.8-2.3-.8,2.3c0,0,0,.2-.2.2s-.1,0-.2-.2l-1-2.9c0-.3-.2-.3-.6-.3v-.2h1.7v.2c-.2,0-.5,0-.5.2s0,0,0,0l.8,2.2.7-2c0-.2-.1-.4-.2-.4,0,0-.2,0-.5,0v-.2h1.5v.2c-.2,0-.5,0-.5.2v.2l.8,2.3.7-2.1v-.2c0-.2-.2-.4-.5-.4v-.2h1.4v.2c-.3,0-.5,0-.7.5h.2Z"/>
    <path d="M229.8,116c-.4,0-.6-.3-.6-.7-.2.4-.5.7-1.1.7s-1.3-.2-1.3-.9.2-.8.8-1c.5-.2,1.1-.3,1.5-.3v-.3c0-.7-.5-1-.9-1s-.7,0-.9.4c.4,0,.4.3.4.4,0,.2-.1.4-.4.4s-.4,0-.4-.4c0-.5.6-.9,1.2-.9s.8,0,1.1.4.3.6.3,1v1.6s0,.4.3.4.3,0,.3-.5v-.5h.2v.5c0,.7-.5.8-.7.8h.2ZM229.1,114.1c-1.3,0-1.7.7-1.7,1.2s.3.7.7.7.9-.3.9-1v-.8h.1Z"/>
    <path d="M233.1,113.3c-.2,0-.3,0-.3-.3s.2-.3.2-.3h0c-.6,0-1,.7-1,1.5v1.2c0,.3,0,.4.6.4h.2v.2h-1.9v-.2c.5,0,.6,0,.6-.4v-2.2c0-.4,0-.5-.6-.5v-.2h1.1v.8c.1-.3.4-.9,1-.9s.6.2.6.5-.2.4-.3.4h-.2Z"/>
    <path d="M235.7,116.1c-.9,0-1.8-.8-1.8-1.9s.7-1.8,1.7-1.8,1.4.8,1.4,1.6,0,.2-.2.2h-2.3c0,.3,0,.8.2,1.2.2.3.5.5.9.5s.8,0,1.1-.8c0,0,0,0,.1,0h.1c0,.2-.4,1-1.3,1h.1ZM235.6,112.6c-.3,0-1,.2-1,1.4h1.9c0-.3,0-1.4-.9-1.4Z"/>
  </g>
</svg>