<?xml version="1.0" encoding="UTF-8"?>
<svg id="Ebene_1" xmlns="http://www.w3.org/2000/svg" xmlns:xlink="http://www.w3.org/1999/xlink" version="1.1" viewBox="0 0 704.8 216">
  <!-- Generator: Adobe Illustrator 30.0.0, SVG Export Plug-In . SVG Version: 2.1.1 Build 123)  -->
  <defs>
    <style>
      .st0, .st1, .st2 {
        fill: none;
      }

      .st3 {
        fill: #37577d;
      }

      .st1 {
        stroke-width: 7px;
      }

      .st1, .st2 {
        stroke: #5ab0dd;
      }

      .st2 {
        stroke-width: 3px;
      }

      .st4 {
        clip-path: url(#clippath-17);
      }

      .st5 {
        clip-path: url(#clippath-19);
      }

      .st6 {
        clip-path: url(#clippath-11);
      }

      .st7 {
        clip-path: url(#clippath-16);
      }

      .st8 {
        clip-path: url(#clippath-18);
      }

      .st9 {
        clip-path: url(#clippath-10);
      }

      .st10 {
        clip-path: url(#clippath-15);
      }

      .st11 {
        clip-path: url(#clippath-13);
      }

      .st12 {
        clip-path: url(#clippath-14);
      }

      .st13 {
        clip-path: url(#clippath-12);
      }

      .st14 {
        clip-path: url(#clippath-50);
      }

      .st15 {
        clip-path: url(#clippath-31);
      }

      .st16 {
        clip-path: url(#clippath-32);
      }

      .st17 {
        clip-path: url(#clippath-33);
      }

      .st18 {
        clip-path: url(#clippath-34);
      }

      .st19 {
        clip-path: url(#clippath-35);
      }

      .st20 {
        clip-path: url(#clippath-39);
      }

      .st21 {
        clip-path: url(#clippath-30);
      }

      .st22 {
        clip-path: url(#clippath-36);
      }

      .st23 {
        clip-path: url(#clippath-37);
      }

      .st24 {
        clip-path: url(#clippath-38);
      }

      .st25 {
        clip-path: url(#clippath-27);
      }

      .st26 {
        clip-path: url(#clippath-29);
      }

      .st27 {
        clip-path: url(#clippath-26);
      }

      .st28 {
        clip-path: url(#clippath-28);
      }

      .st29 {
        clip-path: url(#clippath-20);
      }

      .st30 {
        clip-path: url(#clippath-21);
      }

      .st31 {
        clip-path: url(#clippath-22);
      }

      .st32 {
        clip-path: url(#clippath-23);
      }

      .st33 {
        clip-path: url(#clippath-24);
      }

      .st34 {
        clip-path: url(#clippath-25);
      }

      .st35 {
        clip-path: url(#clippath-41);
      }

      .st36 {
        clip-path: url(#clippath-42);
      }

      .st37 {
        clip-path: url(#clippath-43);
      }

      .st38 {
        clip-path: url(#clippath-44);
      }

      .st39 {
        clip-path: url(#clippath-45);
      }

      .st40 {
        clip-path: url(#clippath-49);
      }

      .st41 {
        clip-path: url(#clippath-40);
      }

      .st42 {
        clip-path: url(#clippath-46);
      }

      .st43 {
        clip-path: url(#clippath-47);
      }

      .st44 {
        clip-path: url(#clippath-48);
      }

      .st45 {
        fill: #3c5777;
      }

      .st46 {
        clip-path: url(#clippath-1);
      }

      .st47 {
        clip-path: url(#clippath-3);
      }

      .st48 {
        clip-path: url(#clippath-4);
      }

      .st49 {
        clip-path: url(#clippath-2);
      }

      .st50 {
        clip-path: url(#clippath-7);
      }

      .st51 {
        clip-path: url(#clippath-6);
      }

      .st52 {
        clip-path: url(#clippath-9);
      }

      .st53 {
        clip-path: url(#clippath-8);
      }

      .st54 {
        clip-path: url(#clippath-5);
      }

      .st55 {
        fill: #62b2da;
      }

      .st56 {
        fill: #5cb2dd;
      }

      .st57 {
        clip-path: url(#clippath);
      }
    </style>
    <clipPath id="clippath">
      <rect class="st0" x="-318.8" y="-359.7" width="1920" height="1080"/>
    </clipPath>
    <clipPath id="clippath-1">
      <rect class="st0" x="26.7" y="21" width="174" height="174"/>
    </clipPath>
    <clipPath id="clippath-2">
      <rect class="st0" x="28" width="171.4" height="216"/>
    </clipPath>
    <clipPath id="clippath-3">
      <rect class="st0" x="48.3" y="194.8" width="11.1" height="19"/>
    </clipPath>
    <clipPath id="clippath-4">
      <rect class="st0" x="65.4" y="194.8" width="11.1" height="19"/>
    </clipPath>
    <clipPath id="clippath-5">
      <rect class="st0" x="82.5" y="194.8" width="11.1" height="19"/>
    </clipPath>
    <clipPath id="clippath-6">
      <rect class="st0" x="99.6" y="194.8" width="11.1" height="19"/>
    </clipPath>
    <clipPath id="clippath-7">
      <rect class="st0" x="116.7" y="194.8" width="11.1" height="19"/>
    </clipPath>
    <clipPath id="clippath-8">
      <rect class="st0" x="133.9" y="194.8" width="11.1" height="19"/>
    </clipPath>
    <clipPath id="clippath-9">
      <rect class="st0" x="151" y="194.8" width="11.1" height="19"/>
    </clipPath>
    <clipPath id="clippath-10">
      <rect class="st0" x="168.1" y="194.8" width="11.1" height="19"/>
    </clipPath>
    <clipPath id="clippath-11">
      <rect class="st0" x="48.3" y="2.1" width="11.1" height="19"/>
    </clipPath>
    <clipPath id="clippath-12">
      <rect class="st0" x="65.4" y="2.1" width="11.1" height="19"/>
    </clipPath>
    <clipPath id="clippath-13">
      <rect class="st0" x="82.5" y="2.1" width="11.1" height="19"/>
    </clipPath>
    <clipPath id="clippath-14">
      <rect class="st0" x="99.6" y="2.1" width="11.1" height="19"/>
    </clipPath>
    <clipPath id="clippath-15">
      <rect class="st0" x="116.7" y="2.1" width="11.1" height="19"/>
    </clipPath>
    <clipPath id="clippath-16">
      <rect class="st0" x="133.9" y="2.1" width="11.1" height="19"/>
    </clipPath>
    <clipPath id="clippath-17">
      <rect class="st0" x="151" y="2.1" width="11.1" height="19"/>
    </clipPath>
    <clipPath id="clippath-18">
      <rect class="st0" x="168.1" y="2.1" width="11.1" height="19"/>
    </clipPath>
    <clipPath id="clippath-19">
      <rect class="st0" x="199.8" y="162.3" width="19" height="11.1"/>
    </clipPath>
    <clipPath id="clippath-20">
      <rect class="st0" x="-327.8" y="-359.7" width="1920" height="1080"/>
    </clipPath>
    <clipPath id="clippath-21">
      <rect class="st0" x="199.8" y="145.2" width="19" height="11.1"/>
    </clipPath>
    <clipPath id="clippath-22">
      <rect class="st0" x="-327.8" y="-359.7" width="1920" height="1080"/>
    </clipPath>
    <clipPath id="clippath-23">
      <rect class="st0" x="199.8" y="128.1" width="19" height="11.1"/>
    </clipPath>
    <clipPath id="clippath-24">
      <rect class="st0" x="-327.8" y="-359.7" width="1920" height="1080"/>
    </clipPath>
    <clipPath id="clippath-25">
      <rect class="st0" x="199.8" y="111" width="19" height="11.1"/>
    </clipPath>
    <clipPath id="clippath-26">
      <rect class="st0" x="-327.8" y="-359.7" width="1920" height="1080"/>
    </clipPath>
    <clipPath id="clippath-27">
      <rect class="st0" x="199.8" y="93.9" width="19" height="11.1"/>
    </clipPath>
    <clipPath id="clippath-28">
      <rect class="st0" x="-327.8" y="-359.7" width="1920" height="1080"/>
    </clipPath>
    <clipPath id="clippath-29">
      <rect class="st0" x="199.8" y="76.8" width="19" height="11.1"/>
    </clipPath>
    <clipPath id="clippath-30">
      <rect class="st0" x="-327.8" y="-359.7" width="1920" height="1080"/>
    </clipPath>
    <clipPath id="clippath-31">
      <rect class="st0" x="199.8" y="59.7" width="19" height="11.1"/>
    </clipPath>
    <clipPath id="clippath-32">
      <rect class="st0" x="-327.8" y="-359.7" width="1920" height="1080"/>
    </clipPath>
    <clipPath id="clippath-33">
      <rect class="st0" x="199.8" y="42.6" width="19" height="11.1"/>
    </clipPath>
    <clipPath id="clippath-34">
      <rect class="st0" x="-327.8" y="-359.7" width="1920" height="1080"/>
    </clipPath>
    <clipPath id="clippath-35">
      <rect class="st0" x="8.7" y="162.3" width="19" height="11.1"/>
    </clipPath>
    <clipPath id="clippath-36">
      <rect class="st0" x="-327.8" y="-359.7" width="1920" height="1080"/>
    </clipPath>
    <clipPath id="clippath-37">
      <rect class="st0" x="8.7" y="145.2" width="19" height="11.1"/>
    </clipPath>
    <clipPath id="clippath-38">
      <rect class="st0" x="-327.8" y="-359.7" width="1920" height="1080"/>
    </clipPath>
    <clipPath id="clippath-39">
      <rect class="st0" x="8.7" y="128.1" width="19" height="11.1"/>
    </clipPath>
    <clipPath id="clippath-40">
      <rect class="st0" x="-327.8" y="-359.7" width="1920" height="1080"/>
    </clipPath>
    <clipPath id="clippath-41">
      <rect class="st0" x="8.7" y="111" width="19" height="11.1"/>
    </clipPath>
    <clipPath id="clippath-42">
      <rect class="st0" x="-327.8" y="-359.7" width="1920" height="1080"/>
    </clipPath>
    <clipPath id="clippath-43">
      <rect class="st0" x="8.7" y="93.9" width="19" height="11.1"/>
    </clipPath>
    <clipPath id="clippath-44">
      <rect class="st0" x="-327.8" y="-359.7" width="1920" height="1080"/>
    </clipPath>
    <clipPath id="clippath-45">
      <rect class="st0" x="8.7" y="76.8" width="19" height="11.1"/>
    </clipPath>
    <clipPath id="clippath-46">
      <rect class="st0" x="-327.8" y="-359.7" width="1920" height="1080"/>
    </clipPath>
    <clipPath id="clippath-47">
      <rect class="st0" x="8.7" y="59.7" width="19" height="11.1"/>
    </clipPath>
    <clipPath id="clippath-48">
      <rect class="st0" x="-327.8" y="-359.7" width="1920" height="1080"/>
    </clipPath>
    <clipPath id="clippath-49">
      <rect class="st0" x="8.7" y="42.6" width="19" height="11.1"/>
    </clipPath>
    <clipPath id="clippath-50">
      <rect class="st0" x="-327.8" y="-359.7" width="1920" height="1080"/>
    </clipPath>
  </defs>
  <g class="st57">
    <g>
      <path class="st56" d="M304.3,119.4l-7.7-33.4-9,28.5c-1,3.4-3.3,5-6.6,5h-4.2c-3.4,0-5.6-1.6-6.6-5l-9-29-7.7,34h-13.8l10.6-46.1c.9-4.3,3.3-5.9,6.8-5.9h5.8c3.3,0,5.6,1.6,6.6,5l9.4,31.1,9.4-31.1c1-3.4,3.3-5,6.6-5h5.8c3.5,0,5.9,1.6,6.9,5.9l10.6,46.1h-13.9Z"/>
      <path class="st56" d="M341.8,119.4c-12.4,0-21.4-8.2-21.4-20s9-19.9,21.4-19.9h10.2c9.2,0,13.7,5.3,13.7,12.8s-3.8,10.6-13,10.6h-14.2v-7.3h11.4c2.1,0,3.1-.9,3.1-2.8s-1-3-3-3h-8.2c-4.7,0-8.1,3.4-8.1,9.5s3.4,9.1,8.1,9.1h21.8v11h-21.7Z"/>
      <path class="st56" d="M424.9,119.4v-21c0-4.6-2.2-6.8-6.9-6.8h-6.4v27.8h-13.3v-27.8h-13.1v27.8h-13.4v-39.9h46.6c13.1,0,19.8,7,19.8,19v20.9h-13.3Z"/>
    </g>
    <g>
      <path class="st3" d="M462.4,119.4v-38.6h-19.1v-13.4h52.2v13.4h-19.1v38.6h-14Z"/>
      <path class="st3" d="M516.8,119.4c-12.4,0-21.4-8.2-21.4-20s9-19.9,21.4-19.9h10.2c9.2,0,13.7,5.3,13.7,12.8s-3.8,10.6-13,10.6h-14.2v-7.3h11.4c2.1,0,3.1-.9,3.1-2.8s-1-3-3-3h-8.2c-4.7,0-8.1,3.4-8.1,9.5s3.4,9.1,8.1,9.1h21.8v11h-21.7Z"/>
      <path class="st3" d="M545.3,119.4v-11h28.2c1.8,0,2.8-.9,2.8-2.6s-.9-2.5-2.8-2.5h-15.7c-8.2,0-13-5.2-13-12s5.5-11.9,12.9-11.9h29.4v11h-26.9c-1.7,0-2.7.9-2.7,2.5s.9,2.5,2.7,2.5h16c8.2,0,12.9,5,12.9,11.9s-5.4,12.1-12.9,12.1h-30.9Z"/>
      <path class="st3" d="M608.3,119.4c-9.6,0-14.6-5.4-14.6-14.6v-36.6h13.3v11.4h16v11h-16v13.2c0,3.1,1.5,4.7,4.7,4.7h10.9v11h-14.3Z"/>
      <path class="st3" d="M673.4,119.4l-15.4-17.9-15,17.9h-16.6l22.8-27.1-21-24.9h17.7l13.2,15.8,13.3-15.8h16.6l-21,25,23,27h-17.7Z"/>
    </g>
    <g>
      <path class="st45" d="M240,158.8v-24.3h4l5.4,14c1.5,4.1,2.3,6.4,2.4,7h0c.1-.8.9-3.2,2.4-7l5.4-14.1h4v24.3h-2.7v-21.8s-.4,1.3-.4,1.3l-2.1,5.7-5.4,14h-2.5l-5.2-13.6c-1.5-4.1-2.3-6.5-2.5-7.5v21.8h-2.7Z"/>
      <path class="st45" d="M268.3,150.9c0-2.3.7-4.3,2.1-5.8s3.1-2.4,4.9-2.4,1.4.1,2,.3c.6.2,1.3.6,1.9,1.1s1.2,1.3,1.6,2.3c.4,1,.7,2.3.7,3.7v1h-10.9c0,1.8.6,3.2,1.6,4.3,1,1.1,2.2,1.6,3.6,1.6s3.5-.6,5.3-1.9l.2,2.3c-1.8,1.2-3.6,1.8-5.5,1.8-2.2,0-4-.8-5.5-2.5-1.4-1.6-2.1-3.6-2.1-5.8ZM271,149.2h8.7c-.1-.9-.4-1.7-.8-2.3-.4-.6-.8-1.1-1.2-1.3-.5-.3-.9-.4-1.2-.5-.4,0-.7-.1-1-.1-1.2,0-2.2.5-2.9,1.4-.8.9-1.3,1.9-1.5,2.9Z"/>
      <path class="st45" d="M285.5,158.8v-15.8h2.5v2.5c1.4-1.8,3.1-2.7,5.1-2.7s3.7,1,4.4,2.9c1.4-1.9,3.2-2.9,5.3-2.9s1.6.1,2.3.4c.6.3,1.1.6,1.4,1,.3.4.6.9.7,1.5.2.6.3,1.1.3,1.5,0,.4,0,.9,0,1.4v10.1h-2.7v-10c0,0,0-.3,0-.6,0-.3-.1-.5-.2-.8,0-.2-.2-.5-.4-.8-.2-.3-.4-.6-.6-.8-.2-.2-.5-.4-.9-.6s-.8-.2-1.3-.2c-1.2,0-2.1.5-2.7,1.6-.6,1-.9,2.3-.9,3.8v8.4h-2.7v-9.8c0-.4,0-.7,0-.9,0-.2,0-.6-.2-1-.1-.4-.3-.8-.5-1-.2-.3-.6-.5-1-.7-.5-.2-1-.3-1.7-.3-1.2,0-2.1.5-2.7,1.6-.6,1-.8,2.3-.8,3.8v8.4h-2.7Z"/>
      <path class="st45" d="M311.5,151.1c0-2.4.8-4.4,2.3-6,1.5-1.6,3.3-2.4,5.4-2.4s4,.8,5.5,2.5c1.5,1.7,2.2,3.7,2.2,5.9s-.8,4.2-2.3,5.8c-1.5,1.5-3.3,2.3-5.4,2.3s-3.8-.8-5.4-2.3c-1.5-1.6-2.3-3.5-2.3-5.8ZM314.3,150.8c0,2.1.5,3.6,1.5,4.7s2.1,1.6,3.5,1.6,2.5-.5,3.5-1.6c1-1.1,1.5-2.6,1.5-4.6s-.5-3.4-1.5-4.4-2.1-1.5-3.5-1.5-2.4.5-3.4,1.5c-1,1-1.5,2.5-1.5,4.4Z"/>
      <path class="st45" d="M329.9,158.8v-15.8h2.4v3.1c.3-.4.6-.9,1-1.3.4-.4,1.1-.8,2-1.3.9-.5,2-.7,3.1-.7v2.3c-.6,0-1.2.1-1.8.3-.6.2-1.2.5-1.9,1-.7.4-1.2,1.1-1.6,2-.4.9-.6,1.9-.6,3.1v7.2h-2.6Z"/>
      <path class="st45" d="M339.5,143.3h2.8c1.5,3.4,2.6,6.1,3.4,8.1s1.2,3.2,1.3,3.7c.1.5.3,1.2.4,2.1,0-1.6,1.6-6.2,4.7-13.8h2.6l-7.6,18.7c-.7,1.6-1.3,2.6-1.9,3.2-.6.6-1.3.8-2.1.8s-1.8,0-2.5-.3l-.2-2.3c1.2.4,2.1.6,2.5.6s1.1-.2,1.4-.7c.3-.5.8-1.5,1.5-3.1.2-.4.3-.7.4-.9,0-.2.1-.4.1-.6s0-.4-.2-.6l-6.5-14.9Z"/>
      <path class="st45" d="M370.1,158.8v-24.3h8.3c2.1,0,3.9.5,5.4,1.4,1.1.7,1.9,1.5,2.5,2.5.6,1,.9,2,.9,3.2,0,1.8-.8,3.5-2.3,5s-3.6,2.2-6.4,2.2-.3,0-.6,0c-.3,0-.5,0-.6,0h-4.1v10.1h-3.1ZM373.1,146.7h4.6c1.2,0,2.3-.2,3.2-.5.9-.3,1.6-.8,2-1.3s.8-1.1,1-1.6c.2-.6.3-1.1.3-1.7s0-1-.3-1.6c-.2-.5-.5-1.1-.9-1.6-.4-.6-1.1-1-2-1.4-.9-.4-2-.5-3.3-.5h-4.6v10.2Z"/>
      <path class="st45" d="M392.4,150.3v-15.7h3.1v14.5c0,.1,0,.3,0,.6,0,.3,0,.5,0,.6,0,1.4.2,2.7.6,3.7.4,1,.9,1.8,1.5,2.3.6.5,1.2.9,1.8,1.1.6.2,1.2.3,1.8.3s1.3-.1,1.9-.4c.6-.2,1.3-.6,1.9-1.1.6-.5,1.1-1.3,1.5-2.3.4-1,.6-2.2.6-3.5s0-.2,0-.3c0-.1,0-.2,0-.3v-15.3h2.7v15.8c0,1.5-.3,2.8-.8,4.1-.5,1.2-1.2,2.2-2.1,2.9-.8.7-1.8,1.3-2.8,1.7-1,.4-2,.6-3,.6s-2-.2-3.1-.6c-1-.4-1.9-.9-2.8-1.6-.9-.7-1.6-1.7-2.1-2.9-.5-1.2-.8-2.6-.8-4.2Z"/>
      <path class="st45" d="M416.4,158.8v-24.2h15.1v2.3h-2.8s-8.1,0-8.1,0h-1.1s0,8.8,0,8.8h10.5v2.2h-10.5v11h-3.1Z"/>
      <path class="st45" d="M448,158.8v-24.2h15.6v2.3h-2.9s-8.4,0-8.4,0h-1.2s0,8.3,0,8.3h11.6v2.2h-11.6v9.1h3.8s6.8,0,6.8,0h.8s1.6,0,1.6,0v2.5h-16.1Z"/>
      <path class="st45" d="M466.1,143.3h2.7l3.3,8.5c1,2.8,1.6,4.6,1.7,5.3.2-1.2,1.8-5.8,4.9-13.8h2.6l-6,15.6h-3.1l-6-15.6Z"/>
      <path class="st45" d="M483.2,154.9c0-.9.3-1.6,1-2.3s1.5-1.1,2.6-1.4c1.1-.3,2.1-.5,3.1-.7,1-.2,2-.2,3-.2v-1.2c0-1.5-.3-2.6-.9-3.2-.6-.7-1.3-1-2.2-1-1.8,0-3.5.6-5.2,1.8l-.2-2.3c1.7-1,3.6-1.5,5.5-1.5s3,.5,4,1.6c1.1,1.1,1.7,2.3,1.8,3.9v10.7h-2.6v-1.2c0,0-.3.2-.7.5-.3.2-1,.5-2,.7-1,.3-2,.4-3.2.4s-2.3-.5-3-1.4c-.7-.9-1-1.9-1-2.9ZM485.8,154.8c0,.6.3,1.2.9,1.6.6.4,1.4.6,2.3.6s1.9-.2,2.7-.6c.8-.4,1.2-1.2,1.2-2.2v-2.2c-.7,0-1.5,0-2.2.1-.7,0-1.5.2-2.3.4-.8.2-1.4.5-1.9.9-.5.4-.7.9-.7,1.4Z"/>
      <path class="st45" d="M501.3,158.8v-25.3h2.6v25.3h-2.6Z"/>
      <path class="st45" d="M509.7,154.6v-11.3h2.7v11.7c0,.8.2,1.4.6,1.8.4.3,1.1.5,2.2.5s2.2-.3,2.9-1c.7-.6,1.2-1.4,1.2-2.2,0-.2,0-.6,0-1v-9.8h2.7v15.6h-2.7v-1.7c-1.6,1.4-3.6,2.1-6.1,2.1s-1.3-.1-1.8-.3c-.5-.2-.9-.5-1.1-.8-.2-.3-.4-.7-.6-1.2-.1-.5-.2-.9-.2-1.2,0-.3,0-.7,0-1.2Z"/>
      <path class="st45" d="M526.5,154.9c0-.9.3-1.6,1-2.3s1.5-1.1,2.6-1.4c1.1-.3,2.1-.5,3.1-.7,1-.2,2-.2,3-.2v-1.2c0-1.5-.3-2.6-.9-3.2-.6-.7-1.3-1-2.2-1-1.8,0-3.5.6-5.2,1.8l-.2-2.3c1.7-1,3.6-1.5,5.5-1.5s3,.5,4,1.6c1.1,1.1,1.7,2.3,1.8,3.9v10.7h-2.6v-1.2c0,0-.3.2-.7.5-.3.2-1,.5-2,.7-1,.3-2,.4-3.2.4s-2.3-.5-3-1.4c-.7-.9-1-1.9-1-2.9ZM529,154.8c0,.6.3,1.2.9,1.6.6.4,1.4.6,2.3.6s1.9-.2,2.7-.6c.8-.4,1.2-1.2,1.2-2.2v-2.2c-.7,0-1.5,0-2.2.1-.7,0-1.5.2-2.3.4-.8.2-1.4.5-1.9.9-.5.4-.7.9-.7,1.4Z"/>
      <path class="st45" d="M542.4,145.3v-2.1h3v-4.4h2.4v4.4h4.9v2.1h-4.9v8.6c0,2,.6,3,1.9,3s2-.4,3.1-1.1l.6,2.1c-1.7.9-3.4,1.3-5.2,1.3s-2.9-1.5-2.9-4.5v-9.4h-2.9Z"/>
      <path class="st45" d="M557,138.2v-3.1h3.1v3.1h-3.1ZM557.2,158.8v-15.6h2.4v15.6h-2.4Z"/>
      <path class="st45" d="M563.8,151.1c0-2.4.8-4.4,2.3-6,1.5-1.6,3.3-2.4,5.4-2.4s4,.8,5.5,2.5c1.5,1.7,2.2,3.7,2.2,5.9s-.8,4.2-2.3,5.8c-1.5,1.5-3.3,2.3-5.4,2.3s-3.8-.8-5.4-2.3c-1.5-1.6-2.3-3.5-2.3-5.8ZM566.5,150.8c0,2.1.5,3.6,1.5,4.7s2.1,1.6,3.5,1.6,2.5-.5,3.5-1.6c1-1.1,1.5-2.6,1.5-4.6s-.5-3.4-1.5-4.4-2.1-1.5-3.5-1.5-2.4.5-3.4,1.5c-1,1-1.5,2.5-1.5,4.4Z"/>
      <path class="st45" d="M583,158.8v-15.8h2.5v2.5c1.4-1.8,3.1-2.7,5.1-2.7s1.6.1,2.2.4c.6.3,1.1.6,1.4.9.3.4.6.8.8,1.4.2.6.3,1.1.3,1.5,0,.4,0,1,0,1.6v10.1h-2.7v-9.8c0-.4,0-.7,0-.9,0-.2,0-.6-.2-1-.1-.4-.3-.8-.5-1-.2-.3-.6-.5-1-.7-.5-.2-1-.3-1.7-.3-1.2,0-2.1.5-2.7,1.6-.6,1-.8,2.3-.8,3.8v8.4h-2.7Z"/>
      <path class="st45" d="M611.5,157.2l.5-2.9c2.4,1.9,4.9,2.9,7.4,2.9s2.8-.5,3.7-1.4,1.4-2,1.4-3.2-.3-1.7-.8-2.5c-.5-.8-1.3-1.3-2.2-1.7,0,0-1.5-.4-4.3-1.2-1.4-.4-2.7-1.1-3.8-2.3-1.1-1.2-1.6-2.6-1.6-4.3s.7-3.4,2.2-4.8c1.5-1.4,3.3-2.1,5.7-2.1s4.4.5,6.4,1.7l-.5,2.9c-1-.8-1.9-1.3-2.7-1.7-.8-.4-1.9-.6-3.2-.6s-2.7.4-3.7,1.2c-.9.8-1.4,1.8-1.4,2.9s.3,1.6.8,2.3c.5.7,1.2,1.2,2,1.5.3,0,1.2.3,2.6.6,1.4.3,2.3.6,2.7.8,1.3.5,2.4,1.4,3.3,2.6.9,1.2,1.4,2.6,1.4,4.2s-.7,3.7-2.2,5.2c-1.5,1.5-3.4,2.2-5.7,2.2s-5.4-.8-8-2.4Z"/>
      <path class="st45" d="M630.6,150.9c0-2.3.7-4.3,2.1-5.8,1.4-1.6,3.1-2.4,4.9-2.4s1.4.1,2,.3c.6.2,1.3.6,1.9,1.1s1.2,1.3,1.6,2.3.7,2.3.7,3.7v1h-10.9c0,1.8.6,3.2,1.6,4.3,1,1.1,2.2,1.6,3.6,1.6s3.5-.6,5.3-1.9l.2,2.3c-1.8,1.2-3.6,1.8-5.5,1.8-2.2,0-4-.8-5.5-2.5-1.4-1.6-2.1-3.6-2.1-5.8ZM633.2,149.2h8.7c-.1-.9-.4-1.7-.8-2.3s-.8-1.1-1.2-1.3-.9-.4-1.2-.5c-.4,0-.7-.1-1-.1-1.2,0-2.2.5-2.9,1.4-.8.9-1.3,1.9-1.5,2.9Z"/>
      <path class="st45" d="M645.5,145.3v-2.1h3v-4.4h2.4v4.4h4.9v2.1h-4.9v8.6c0,2,.6,3,1.9,3s2-.4,3.1-1.1l.6,2.1c-1.7.9-3.4,1.3-5.2,1.3s-2.9-1.5-2.9-4.5v-9.4h-2.9Z"/>
      <path class="st45" d="M660.3,154.6v-11.3h2.7v11.7c0,.8.2,1.4.6,1.8.4.3,1.1.5,2.2.5s2.2-.3,2.9-1c.7-.6,1.2-1.4,1.2-2.2,0-.2,0-.6,0-1v-9.8h2.7v15.6h-2.7v-1.7c-1.6,1.4-3.6,2.1-6.1,2.1s-1.3-.1-1.8-.3c-.5-.2-.9-.5-1.1-.8-.2-.3-.4-.7-.6-1.2-.1-.5-.2-.9-.2-1.2,0-.3,0-.7,0-1.2Z"/>
      <path class="st45" d="M678.4,165.7v-22.4h2.6v1.7c1.7-1.4,3.6-2.1,5.8-2.1s2.9.8,3.9,2.4c1,1.6,1.6,3.5,1.6,5.7s-.6,4.4-1.9,5.9c-1.3,1.5-2.8,2.3-4.5,2.3s-3.3-.7-4.7-2v8.5h-2.7ZM681.2,154.4c0,.5.3,1.1,1,1.7.7.6,1.5.9,2.4.9s2.5-.6,3.5-1.7c1-1.1,1.6-2.6,1.6-4.3s-.4-3-1.3-4.1-2-1.8-3.4-1.8-.5,0-.7,0-.5,0-.6.2-.4.2-.6.2c-.2,0-.3.2-.5.3-.2.1-.3.2-.4.3s-.2.2-.3.3c-.1.1-.2.2-.2.3,0,0-.1.1-.2.2h-.1v7.4Z"/>
    </g>
  </g>
  <g class="st46">
    <path class="st1" d="M69.1,25.5h89.3c11.1,0,17.8,0,22.2,1.9,6.4,2.3,11.4,7.4,13.8,13.8,1.9,4.4,1.9,11.1,1.9,22.2v89.3c0,11.1,0,17.8-1.9,22.2-2.3,6.4-7.4,11.4-13.8,13.8-4.4,1.9-11.1,1.9-22.2,1.9h-89.3c-11.1,0-17.8,0-22.2-1.9-6.4-2.3-11.4-7.4-13.8-13.8-1.9-4.4-1.9-11.1-1.9-22.2V63.3c0-11.1,0-17.8,1.9-22.2,2.3-6.4,7.4-11.4,13.8-13.8,4.4-1.9,11.1-1.9,22.2-1.9Z"/>
  </g>
  <g class="st49">
    <path class="st55" d="M135.2,147.2l-23-26.9-22.4,26.9h-25l34.2-40.7-31.4-37.3h26.5l19.8,23.6,19.9-23.6h25l-31.6,37.4,34.6,40.6h-26.5Z"/>
  </g>
  <g class="st47">
    <path class="st2" d="M53.9,197.3c.4,0,.7,0,1,.2.8.3,1.5,1,1.8,1.8.2.5.2,1.3.2,2.6v4.7c0,1.3,0,2.1-.2,2.6-.3.8-1,1.5-1.8,1.8-.3.1-.7.2-1,.2s-.7,0-1-.2c-.8-.3-1.5-1-1.8-1.8-.2-.5-.2-1.3-.2-2.6v-4.7c0-1.3,0-2.1.2-2.6.3-.8,1-1.5,1.8-1.8.3-.1.7-.2,1-.2Z"/>
  </g>
  <g class="st48">
    <path class="st2" d="M71,197.3c.4,0,.7,0,1,.2.8.3,1.5,1,1.8,1.8.2.5.2,1.3.2,2.6v4.7c0,1.3,0,2.1-.2,2.6-.3.8-1,1.5-1.8,1.8-.3.1-.7.2-1,.2s-.7,0-1-.2c-.8-.3-1.5-1-1.8-1.8-.2-.5-.2-1.3-.2-2.6v-4.7c0-1.3,0-2.1.2-2.6.3-.8,1-1.5,1.8-1.8.3-.1.7-.2,1-.2Z"/>
  </g>
  <g class="st54">
    <path class="st2" d="M88.1,197.3c.4,0,.7,0,1,.2.8.3,1.5,1,1.8,1.8.2.5.2,1.3.2,2.6v4.7c0,1.3,0,2.1-.2,2.6-.3.8-1,1.5-1.8,1.8-.3.1-.7.2-1,.2s-.7,0-1-.2c-.8-.3-1.5-1-1.8-1.8-.2-.5-.2-1.3-.2-2.6v-4.7c0-1.3,0-2.1.2-2.6.3-.8,1-1.5,1.8-1.8.3-.1.7-.2,1-.2Z"/>
  </g>
  <g class="st51">
    <path class="st2" d="M105.2,197.3c.4,0,.7,0,1,.2.8.3,1.5,1,1.8,1.8.2.5.2,1.3.2,2.6v4.7c0,1.3,0,2.1-.2,2.6-.3.8-1,1.5-1.8,1.8-.3.1-.7.2-1,.2s-.7,0-1-.2c-.8-.3-1.5-1-1.8-1.8-.2-.5-.2-1.3-.2-2.6v-4.7c0-1.3,0-2.1.2-2.6.3-.8,1-1.5,1.8-1.8.3-.1.7-.2,1-.2Z"/>
  </g>
  <g class="st50">
    <path class="st2" d="M122.3,197.3c.4,0,.7,0,1,.2.8.3,1.5,1,1.8,1.8.2.5.2,1.3.2,2.6v4.7c0,1.3,0,2.1-.2,2.6-.3.8-1,1.5-1.8,1.8-.3.1-.7.2-1,.2s-.7,0-1-.2c-.8-.3-1.5-1-1.8-1.8-.2-.5-.2-1.3-.2-2.6v-4.7c0-1.3,0-2.1.2-2.6.3-.8,1-1.5,1.8-1.8.3-.1.7-.2,1-.2Z"/>
  </g>
  <g class="st53">
    <path class="st2" d="M139.4,197.3c.4,0,.7,0,1,.2.8.3,1.5,1,1.8,1.8.2.5.2,1.3.2,2.6v4.7c0,1.3,0,2.1-.2,2.6-.3.8-1,1.5-1.8,1.8-.3.1-.7.2-1,.2s-.7,0-1-.2c-.8-.3-1.5-1-1.8-1.8-.2-.5-.2-1.3-.2-2.6v-4.7c0-1.3,0-2.1.2-2.6.3-.8,1-1.5,1.8-1.8.3-.1.7-.2,1-.2Z"/>
  </g>
  <g class="st52">
    <path class="st2" d="M156.5,197.3c.4,0,.7,0,1,.2.8.3,1.5,1,1.8,1.8.2.5.2,1.3.2,2.6v4.7c0,1.3,0,2.1-.2,2.6-.3.8-1,1.5-1.8,1.8-.3.1-.7.2-1,.2s-.7,0-1-.2c-.8-.3-1.5-1-1.8-1.8-.2-.5-.2-1.3-.2-2.6v-4.7c0-1.3,0-2.1.2-2.6.3-.8,1-1.5,1.8-1.8.3-.1.7-.2,1-.2Z"/>
  </g>
  <g class="st9">
    <path class="st2" d="M173.6,197.3c.4,0,.7,0,1,.2.8.3,1.5,1,1.8,1.8.2.5.2,1.3.2,2.6v4.7c0,1.3,0,2.1-.2,2.6-.3.8-1,1.5-1.8,1.8-.3.1-.7.2-1,.2s-.7,0-1-.2c-.8-.3-1.5-1-1.8-1.8-.2-.5-.2-1.3-.2-2.6v-4.7c0-1.3,0-2.1.2-2.6.3-.8,1-1.5,1.8-1.8.3-.1.7-.2,1-.2Z"/>
  </g>
  <g class="st6">
    <path class="st2" d="M53.9,4.6c.4,0,.7,0,1,.2.8.3,1.5,1,1.8,1.8.2.5.2,1.3.2,2.6v4.7c0,1.3,0,2.1-.2,2.6-.3.8-1,1.5-1.8,1.8-.3.1-.7.2-1,.2s-.7,0-1-.2c-.8-.3-1.5-1-1.8-1.8-.2-.5-.2-1.3-.2-2.6v-4.7c0-1.3,0-2.1.2-2.6.3-.8,1-1.5,1.8-1.8.3-.1.7-.2,1-.2Z"/>
  </g>
  <g class="st13">
    <path class="st2" d="M71,4.6c.4,0,.7,0,1,.2.8.3,1.5,1,1.8,1.8.2.5.2,1.3.2,2.6v4.7c0,1.3,0,2.1-.2,2.6-.3.8-1,1.5-1.8,1.8-.3.1-.7.2-1,.2s-.7,0-1-.2c-.8-.3-1.5-1-1.8-1.8-.2-.5-.2-1.3-.2-2.6v-4.7c0-1.3,0-2.1.2-2.6.3-.8,1-1.5,1.8-1.8.3-.1.7-.2,1-.2Z"/>
  </g>
  <g class="st11">
    <path class="st2" d="M88.1,4.6c.4,0,.7,0,1,.2.8.3,1.5,1,1.8,1.8.2.5.2,1.3.2,2.6v4.7c0,1.3,0,2.1-.2,2.6-.3.8-1,1.5-1.8,1.8-.3.1-.7.2-1,.2s-.7,0-1-.2c-.8-.3-1.5-1-1.8-1.8-.2-.5-.2-1.3-.2-2.6v-4.7c0-1.3,0-2.1.2-2.6.3-.8,1-1.5,1.8-1.8.3-.1.7-.2,1-.2Z"/>
  </g>
  <g class="st12">
    <path class="st2" d="M105.2,4.6c.4,0,.7,0,1,.2.8.3,1.5,1,1.8,1.8.2.5.2,1.3.2,2.6v4.7c0,1.3,0,2.1-.2,2.6-.3.8-1,1.5-1.8,1.8-.3.1-.7.2-1,.2s-.7,0-1-.2c-.8-.3-1.5-1-1.8-1.8-.2-.5-.2-1.3-.2-2.6v-4.7c0-1.3,0-2.1.2-2.6.3-.8,1-1.5,1.8-1.8.3-.1.7-.2,1-.2Z"/>
  </g>
  <g class="st10">
    <path class="st2" d="M122.3,4.6c.4,0,.7,0,1,.2.8.3,1.5,1,1.8,1.8.2.5.2,1.3.2,2.6v4.7c0,1.3,0,2.1-.2,2.6-.3.8-1,1.5-1.8,1.8-.3.1-.7.2-1,.2s-.7,0-1-.2c-.8-.3-1.5-1-1.8-1.8-.2-.5-.2-1.3-.2-2.6v-4.7c0-1.3,0-2.1.2-2.6.3-.8,1-1.5,1.8-1.8.3-.1.7-.2,1-.2Z"/>
  </g>
  <g class="st7">
    <path class="st2" d="M139.4,4.6c.4,0,.7,0,1,.2.8.3,1.5,1,1.8,1.8.2.5.2,1.3.2,2.6v4.7c0,1.3,0,2.1-.2,2.6-.3.8-1,1.5-1.8,1.8-.3.1-.7.2-1,.2s-.7,0-1-.2c-.8-.3-1.5-1-1.8-1.8-.2-.5-.2-1.3-.2-2.6v-4.7c0-1.3,0-2.1.2-2.6.3-.8,1-1.5,1.8-1.8.3-.1.7-.2,1-.2Z"/>
  </g>
  <g class="st4">
    <path class="st2" d="M156.5,4.6c.4,0,.7,0,1,.2.8.3,1.5,1,1.8,1.8.2.5.2,1.3.2,2.6v4.7c0,1.3,0,2.1-.2,2.6-.3.8-1,1.5-1.8,1.8-.3.1-.7.2-1,.2s-.7,0-1-.2c-.8-.3-1.5-1-1.8-1.8-.2-.5-.2-1.3-.2-2.6v-4.7c0-1.3,0-2.1.2-2.6.3-.8,1-1.5,1.8-1.8.3-.1.7-.2,1-.2Z"/>
  </g>
  <g class="st8">
    <path class="st2" d="M173.6,4.6c.4,0,.7,0,1,.2.8.3,1.5,1,1.8,1.8.2.5.2,1.3.2,2.6v4.7c0,1.3,0,2.1-.2,2.6-.3.8-1,1.5-1.8,1.8-.3.1-.7.2-1,.2s-.7,0-1-.2c-.8-.3-1.5-1-1.8-1.8-.2-.5-.2-1.3-.2-2.6v-4.7c0-1.3,0-2.1.2-2.6.3-.8,1-1.5,1.8-1.8.3-.1.7-.2,1-.2Z"/>
  </g>
  <g class="st5">
    <g class="st29">
      <path class="st2" d="M202.3,167.9c0-.4,0-.7.2-1,.3-.8,1-1.5,1.8-1.8.5-.2,1.3-.2,2.6-.2h4.7c1.3,0,2.1,0,2.6.2.8.3,1.5,1,1.8,1.8.1.3.2.7.2,1s0,.7-.2,1c-.3.8-1,1.5-1.8,1.8-.5.2-1.3.2-2.6.2h-4.7c-1.3,0-2.1,0-2.6-.2-.8-.3-1.5-1-1.8-1.8-.1-.3-.2-.7-.2-1Z"/>
    </g>
  </g>
  <g class="st30">
    <g class="st31">
      <path class="st2" d="M202.3,150.8c0-.4,0-.7.2-1,.3-.8,1-1.5,1.8-1.8.5-.2,1.3-.2,2.6-.2h4.7c1.3,0,2.1,0,2.6.2.8.3,1.5,1,1.8,1.8.1.3.2.7.2,1s0,.7-.2,1c-.3.8-1,1.5-1.8,1.8-.5.2-1.3.2-2.6.2h-4.7c-1.3,0-2.1,0-2.6-.2-.8-.3-1.5-1-1.8-1.8-.1-.3-.2-.7-.2-1Z"/>
    </g>
  </g>
  <g class="st32">
    <g class="st33">
      <path class="st2" d="M202.3,133.7c0-.4,0-.7.2-1,.3-.8,1-1.5,1.8-1.8.5-.2,1.3-.2,2.6-.2h4.7c1.3,0,2.1,0,2.6.2.8.3,1.5,1,1.8,1.8.1.3.2.7.2,1s0,.7-.2,1c-.3.8-1,1.5-1.8,1.8-.5.2-1.3.2-2.6.2h-4.7c-1.3,0-2.1,0-2.6-.2-.8-.3-1.5-1-1.8-1.8-.1-.3-.2-.7-.2-1Z"/>
    </g>
  </g>
  <g class="st34">
    <g class="st27">
      <path class="st2" d="M202.3,116.6c0-.4,0-.7.2-1,.3-.8,1-1.5,1.8-1.8.5-.2,1.3-.2,2.6-.2h4.7c1.3,0,2.1,0,2.6.2.8.3,1.5,1,1.8,1.8.1.3.2.7.2,1s0,.7-.2,1c-.3.8-1,1.5-1.8,1.8-.5.2-1.3.2-2.6.2h-4.7c-1.3,0-2.1,0-2.6-.2-.8-.3-1.5-1-1.8-1.8-.1-.3-.2-.7-.2-1Z"/>
    </g>
  </g>
  <g class="st25">
    <g class="st28">
      <path class="st2" d="M202.3,99.4c0-.4,0-.7.2-1,.3-.8,1-1.5,1.8-1.8.5-.2,1.3-.2,2.6-.2h4.7c1.3,0,2.1,0,2.6.2.8.3,1.5,1,1.8,1.8.1.3.2.7.2,1s0,.7-.2,1c-.3.8-1,1.5-1.8,1.8-.5.2-1.3.2-2.6.2h-4.7c-1.3,0-2.1,0-2.6-.2-.8-.3-1.5-1-1.8-1.8-.1-.3-.2-.7-.2-1Z"/>
    </g>
  </g>
  <g class="st26">
    <g class="st21">
      <path class="st2" d="M202.3,82.3c0-.4,0-.7.2-1,.3-.8,1-1.5,1.8-1.8.5-.2,1.3-.2,2.6-.2h4.7c1.3,0,2.1,0,2.6.2.8.3,1.5,1,1.8,1.8.1.3.2.7.2,1s0,.7-.2,1c-.3.8-1,1.5-1.8,1.8-.5.2-1.3.2-2.6.2h-4.7c-1.3,0-2.1,0-2.6-.2-.8-.3-1.5-1-1.8-1.8-.1-.3-.2-.7-.2-1Z"/>
    </g>
  </g>
  <g class="st15">
    <g class="st16">
      <path class="st2" d="M202.3,65.2c0-.4,0-.7.2-1,.3-.8,1-1.5,1.8-1.8.5-.2,1.3-.2,2.6-.2h4.7c1.3,0,2.1,0,2.6.2.8.3,1.5,1,1.8,1.8.1.3.2.7.2,1s0,.7-.2,1c-.3.8-1,1.5-1.8,1.8-.5.2-1.3.2-2.6.2h-4.7c-1.3,0-2.1,0-2.6-.2-.8-.3-1.5-1-1.8-1.8-.1-.3-.2-.7-.2-1Z"/>
    </g>
  </g>
  <g class="st17">
    <g class="st18">
      <path class="st2" d="M202.3,48.1c0-.4,0-.7.2-1,.3-.8,1-1.5,1.8-1.8.5-.2,1.3-.2,2.6-.2h4.7c1.3,0,2.1,0,2.6.2.8.3,1.5,1,1.8,1.8.1.3.2.7.2,1s0,.7-.2,1c-.3.8-1,1.5-1.8,1.8-.5.2-1.3.2-2.6.2h-4.7c-1.3,0-2.1,0-2.6-.2-.8-.3-1.5-1-1.8-1.8-.1-.3-.2-.7-.2-1Z"/>
    </g>
  </g>
  <g class="st19">
    <g class="st22">
      <path class="st2" d="M11.2,167.9c0-.4,0-.7.2-1,.3-.8,1-1.5,1.8-1.8.5-.2,1.3-.2,2.6-.2h4.7c1.3,0,2.1,0,2.6.2.8.3,1.5,1,1.8,1.8.1.3.2.7.2,1s0,.7-.2,1c-.3.8-1,1.5-1.8,1.8-.5.2-1.3.2-2.6.2h-4.7c-1.3,0-2.1,0-2.6-.2-.8-.3-1.5-1-1.8-1.8-.1-.3-.2-.7-.2-1Z"/>
    </g>
  </g>
  <g class="st23">
    <g class="st24">
      <path class="st2" d="M11.2,150.8c0-.4,0-.7.2-1,.3-.8,1-1.5,1.8-1.8.5-.2,1.3-.2,2.6-.2h4.7c1.3,0,2.1,0,2.6.2.8.3,1.5,1,1.8,1.8.1.3.2.7.2,1s0,.7-.2,1c-.3.8-1,1.5-1.8,1.8-.5.2-1.3.2-2.6.2h-4.7c-1.3,0-2.1,0-2.6-.2-.8-.3-1.5-1-1.8-1.8-.1-.3-.2-.7-.2-1Z"/>
    </g>
  </g>
  <g class="st20">
    <g class="st41">
      <path class="st2" d="M11.2,133.7c0-.4,0-.7.2-1,.3-.8,1-1.5,1.8-1.8.5-.2,1.3-.2,2.6-.2h4.7c1.3,0,2.1,0,2.6.2.8.3,1.5,1,1.8,1.8.1.3.2.7.2,1s0,.7-.2,1c-.3.8-1,1.5-1.8,1.8-.5.2-1.3.2-2.6.2h-4.7c-1.3,0-2.1,0-2.6-.2-.8-.3-1.5-1-1.8-1.8-.1-.3-.2-.7-.2-1Z"/>
    </g>
  </g>
  <g class="st35">
    <g class="st36">
      <path class="st2" d="M11.2,116.6c0-.4,0-.7.2-1,.3-.8,1-1.5,1.8-1.8.5-.2,1.3-.2,2.6-.2h4.7c1.3,0,2.1,0,2.6.2.8.3,1.5,1,1.8,1.8.1.3.2.7.2,1s0,.7-.2,1c-.3.8-1,1.5-1.8,1.8-.5.2-1.3.2-2.6.2h-4.7c-1.3,0-2.1,0-2.6-.2-.8-.3-1.5-1-1.8-1.8-.1-.3-.2-.7-.2-1Z"/>
    </g>
  </g>
  <g class="st37">
    <g class="st38">
      <path class="st2" d="M11.2,99.4c0-.4,0-.7.2-1,.3-.8,1-1.5,1.8-1.8.5-.2,1.3-.2,2.6-.2h4.7c1.3,0,2.1,0,2.6.2.8.3,1.5,1,1.8,1.8.1.3.2.7.2,1s0,.7-.2,1c-.3.8-1,1.5-1.8,1.8-.5.2-1.3.2-2.6.2h-4.7c-1.3,0-2.1,0-2.6-.2-.8-.3-1.5-1-1.8-1.8-.1-.3-.2-.7-.2-1Z"/>
    </g>
  </g>
  <g class="st39">
    <g class="st42">
      <path class="st2" d="M11.2,82.3c0-.4,0-.7.2-1,.3-.8,1-1.5,1.8-1.8.5-.2,1.3-.2,2.6-.2h4.7c1.3,0,2.1,0,2.6.2.8.3,1.5,1,1.8,1.8.1.3.2.7.2,1s0,.7-.2,1c-.3.8-1,1.5-1.8,1.8-.5.2-1.3.2-2.6.2h-4.7c-1.3,0-2.1,0-2.6-.2-.8-.3-1.5-1-1.8-1.8-.1-.3-.2-.7-.2-1Z"/>
    </g>
  </g>
  <g class="st43">
    <g class="st44">
      <path class="st2" d="M11.2,65.2c0-.4,0-.7.2-1,.3-.8,1-1.5,1.8-1.8.5-.2,1.3-.2,2.6-.2h4.7c1.3,0,2.1,0,2.6.2.8.3,1.5,1,1.8,1.8.1.3.2.7.2,1s0,.7-.2,1c-.3.8-1,1.5-1.8,1.8-.5.2-1.3.2-2.6.2h-4.7c-1.3,0-2.1,0-2.6-.2-.8-.3-1.5-1-1.8-1.8-.1-.3-.2-.7-.2-1Z"/>
    </g>
  </g>
  <g class="st40">
    <g class="st14">
      <path class="st2" d="M11.2,48.1c0-.4,0-.7.2-1,.3-.8,1-1.5,1.8-1.8.5-.2,1.3-.2,2.6-.2h4.7c1.3,0,2.1,0,2.6.2.8.3,1.5,1,1.8,1.8.1.3.2.7.2,1s0,.7-.2,1c-.3.8-1,1.5-1.8,1.8-.5.2-1.3.2-2.6.2h-4.7c-1.3,0-2.1,0-2.6-.2-.8-.3-1.5-1-1.8-1.8-.1-.3-.2-.7-.2-1Z"/>
    </g>
  </g>
</svg>