<?xml version="1.0" encoding="UTF-8"?>
<svg id="Ebene_1" xmlns="http://www.w3.org/2000/svg" xmlns:xlink="http://www.w3.org/1999/xlink" version="1.1" viewBox="0 0 595.3 420.4">
  <!-- Generator: Adobe Illustrator 29.4.0, SVG Export Plug-In . SVG Version: 2.1.0 Build 152)  -->
  <defs>
    <style>
      .st0, .st1, .st2, .st3 {
        fill: none;
      }

      .st4, .st5 {
        fill: gray;
      }

      .st5 {
        fill-rule: evenodd;
      }

      .st1 {
        stroke-width: 1.3px;
      }

      .st1, .st2, .st3 {
        stroke: #999;
        stroke-miterlimit: 2.6;
      }

      .st2 {
        stroke-width: .7px;
      }

      .st3 {
        stroke-width: .6px;
      }

      .st6 {
        clip-path: url(#clippath);
      }
    </style>
    <clipPath id="clippath">
      <rect class="st0" x="47.1" y="7.9" width="498.6" height="412.9"/>
    </clipPath>
  </defs>
  <g class="st6">
    <rect class="st1" x="222.6" y="104.6" width="147.6" height="279.7"/>
    <g>
      <path class="st4" d="M260.8,206.7h.9c0,.3.1.6.3.8.2.2.4.4.7.6s.7.2,1.1.2.7,0,1-.2.5-.3.6-.5c.1-.2.2-.4.2-.6s0-.4-.2-.6-.4-.3-.7-.4c-.2,0-.6-.2-1.3-.4-.7-.2-1.2-.3-1.4-.5-.4-.2-.6-.4-.8-.7-.2-.3-.3-.6-.3-.9s.1-.7.3-1,.5-.6.9-.7c.4-.2.9-.3,1.4-.3s1,0,1.5.3.7.4,1,.8c.2.3.3.7.4,1.2h-.9c0-.4-.2-.8-.5-1-.3-.2-.7-.4-1.3-.4s-1,.1-1.3.3-.4.5-.4.8,0,.5.3.7c.2.2.7.3,1.5.5.8.2,1.3.3,1.6.5.4.2.8.5,1,.8.2.3.3.7.3,1.1s-.1.8-.3,1.1c-.2.3-.6.6-1,.8-.4.2-.9.3-1.4.3s-1.2,0-1.7-.3-.8-.5-1.1-.9c-.3-.4-.4-.8-.4-1.3Z"/>
      <path class="st4" d="M268,209.1v-7.4h1l3.9,5.8v-5.8h.9v7.4h-1l-3.9-5.8v5.8h-.9Z"/>
      <path class="st4" d="M275.2,202.6v-.9h4.8v.7c-.5.5-.9,1.2-1.4,2s-.8,1.7-1.1,2.6c-.2.6-.3,1.3-.3,2h-.9c0-.6.1-1.3.3-2.1s.5-1.6.9-2.4c.4-.8.8-1.4,1.3-1.9h-3.6Z"/>
      <path class="st4" d="M283.8,209.1v-1.8h-3.2v-.8l3.4-4.8h.7v4.8h1v.8h-1v1.8h-.9ZM283.8,206.5v-3.3l-2.3,3.3h2.3Z"/>
      <path class="st4" d="M286.2,209.1l2.8-7.4h1.1l3,7.4h-1.1l-.9-2.2h-3.1l-.8,2.2h-1ZM288.3,206h2.5l-.8-2.1c-.2-.6-.4-1.1-.5-1.5,0,.5-.2.9-.4,1.4l-.8,2.2Z"/>
      <path class="st4" d="M296,209.1l-2.9-7.4h1.1l1.9,5.4c.2.4.3.8.4,1.2.1-.4.2-.8.4-1.2l2-5.4h1l-2.9,7.4h-1Z"/>
      <path class="st4" d="M306.1,206.5l1,.2c-.2.8-.6,1.4-1.1,1.8-.5.4-1.2.6-2,.6s-1.5-.2-2-.5c-.5-.3-.9-.8-1.1-1.4-.3-.6-.4-1.3-.4-2s.1-1.4.4-2c.3-.6.7-1,1.3-1.3.5-.3,1.1-.4,1.8-.4s1.4.2,1.9.6c.5.4.9.9,1.1,1.6l-1,.2c-.2-.5-.4-.9-.7-1.2s-.7-.4-1.2-.4-1,.1-1.4.4c-.4.3-.7.6-.8,1.1-.2.5-.2.9-.2,1.4s0,1.2.3,1.7c.2.5.5.8.9,1.1s.8.3,1.3.3,1-.2,1.4-.5c.4-.3.6-.8.8-1.4Z"/>
      <path class="st4" d="M309.3,205.1c-.4-.1-.7-.3-.8-.6-.2-.3-.3-.6-.3-.9,0-.5.2-1,.6-1.4.4-.4.9-.6,1.5-.6s1.2.2,1.6.6.6.8.6,1.4,0,.6-.3.9-.5.5-.8.6c.5.1.8.4,1,.7.2.3.4.7.4,1.2s-.2,1.2-.7,1.6c-.4.4-1,.6-1.8.6s-1.3-.2-1.8-.7-.7-1-.7-1.6.1-.9.4-1.2c.2-.3.6-.5,1-.7ZM308.9,206.9c0,.3,0,.5.2.8.1.2.3.4.5.6.2.1.5.2.8.2.4,0,.8-.1,1.1-.4s.4-.6.4-1.1-.1-.8-.4-1.1c-.3-.3-.7-.4-1.1-.4s-.8.1-1.1.4c-.3.3-.4.6-.4,1.1ZM309.2,203.5c0,.4.1.6.3.9.2.2.5.3.9.3s.6-.1.9-.3c.2-.2.3-.5.3-.8s-.1-.6-.3-.8-.5-.3-.9-.3-.6.1-.9.3-.3.5-.3.8Z"/>
      <path class="st4" d="M316,209.1v-6.5h-2.4v-.9h5.9v.9h-2.5v6.5h-1Z"/>
      <path class="st4" d="M324.8,208.2v.9h-4.9c0-.2,0-.4.1-.6.1-.3.3-.7.6-1,.3-.3.7-.7,1.2-1.1.8-.7,1.4-1.2,1.6-1.6.3-.4.4-.8.4-1.1s-.1-.7-.4-.9-.6-.4-1-.4-.8.1-1.1.4c-.3.3-.4.6-.4,1.1h-.9c0-.8.3-1.3.7-1.7.4-.4,1-.5,1.7-.5s1.3.2,1.7.6c.4.4.6.9.6,1.5s0,.6-.2.9c-.1.3-.3.6-.6.9-.3.3-.8.8-1.4,1.3-.5.5-.9.8-1.1.9-.2.2-.3.3-.4.5h3.6Z"/>
      <path class="st4" d="M328.7,209.1v-1.8h-3.2v-.8l3.4-4.8h.7v4.8h1v.8h-1v1.8h-.9ZM328.7,206.5v-3.3l-2.3,3.3h2.3Z"/>
      <path class="st4" d="M331.6,207.1h1c0,.4.2.7.5,1,.3.2.6.4.9.4s.8-.2,1.1-.5c.3-.3.5-.8.5-1.3s-.1-.9-.4-1.2c-.3-.3-.7-.5-1.1-.5s-.6,0-.8.2c-.2.1-.4.3-.6.5h-.9c0-.1.7-3.9.7-3.9h3.7v.9h-3l-.4,2c.4-.3.9-.5,1.4-.5s1.2.2,1.6.7c.4.4.7,1,.7,1.7s-.2,1.3-.6,1.7c-.5.6-1.1.9-1.9.9s-1.2-.2-1.7-.6c-.4-.4-.7-.9-.7-1.5Z"/>
    </g>
    <g>
      <path class="st4" d="M231.5,159.7c0-1,.3-1.8.8-2.4.6-.6,1.3-.9,2.1-.9s1.1.1,1.5.4c.5.3.8.7,1,1.1.2.5.4,1,.4,1.7s-.1,1.2-.4,1.7c-.3.5-.6.9-1.1,1.1-.5.3-1,.4-1.5.4s-1.1-.1-1.6-.4c-.5-.3-.8-.7-1-1.2-.2-.5-.4-1-.4-1.5ZM232.4,159.7c0,.7.2,1.3.6,1.8s.9.6,1.5.6,1.1-.2,1.5-.6c.4-.4.6-1,.6-1.8s0-.9-.3-1.3-.4-.7-.7-.9c-.3-.2-.7-.3-1.1-.3-.6,0-1.1.2-1.5.6-.4.4-.6,1.1-.6,2Z"/>
      <path class="st4" d="M238.5,162.7v-6.2h4.5v.7h-3.7v1.9h3.4v.7h-3.4v2.1h3.8v.7h-4.6Z"/>
    </g>
    <g>
      <path class="st4" d="M231.8,138.5v-6.2h2.1c.5,0,.8,0,1.1,0,.4,0,.7.2.9.4.3.3.6.6.7,1.1s.2.9.2,1.5,0,.9-.2,1.2c-.1.4-.2.7-.4.9-.2.2-.4.4-.6.6-.2.1-.4.2-.7.3s-.6.1-1,.1h-2.2ZM232.6,137.7h1.3c.4,0,.7,0,1-.1.2,0,.4-.2.6-.3.2-.2.3-.5.5-.8s.2-.7.2-1.2-.1-1.1-.3-1.5c-.2-.3-.5-.6-.8-.7-.2,0-.6-.1-1.1-.1h-1.3v4.7Z"/>
      <path class="st4" d="M238.1,138.5v-6.2h.8v6.2h-.8Z"/>
      <path class="st4" d="M240.4,138.5v-6.2h2.7c.6,0,1,0,1.3.2s.5.3.7.6.3.6.3.9-.1.8-.4,1.1c-.3.3-.7.5-1.3.6.2.1.4.2.5.3.2.2.5.5.7.8l1.1,1.7h-1l-.8-1.3c-.2-.4-.4-.7-.6-.9-.2-.2-.3-.3-.4-.4-.1,0-.2-.1-.4-.2,0,0-.2,0-.5,0h-.9v2.7h-.8ZM241.2,135h1.8c.4,0,.7,0,.9-.1s.4-.2.5-.4c.1-.2.2-.4.2-.6,0-.3-.1-.5-.3-.7s-.5-.3-1-.3h-2v2Z"/>
    </g>
    <g>
      <path class="st4" d="M231.1,244.4l2.4-6.2h.9l2.5,6.2h-.9l-.7-1.9h-2.6l-.7,1.9h-.9ZM232.9,241.9h2.1l-.6-1.7c-.2-.5-.3-.9-.4-1.3,0,.4-.2.8-.3,1.2l-.7,1.8Z"/>
      <path class="st4" d="M240.1,244.4h-.8v-4.8c-.2.2-.4.3-.7.5-.3.2-.6.3-.8.4v-.7c.4-.2.8-.4,1.1-.7.3-.3.5-.6.7-.8h.5v6.2Z"/>
    </g>
    <g>
      <path class="st4" d="M231.1,260.9l2.4-6.2h.9l2.5,6.2h-.9l-.7-1.9h-2.6l-.7,1.9h-.9ZM232.9,258.4h2.1l-.6-1.7c-.2-.5-.3-.9-.4-1.3,0,.4-.2.8-.3,1.2l-.7,1.8Z"/>
      <path class="st4" d="M241.2,260.2v.7h-4.1c0-.2,0-.4,0-.5.1-.3.3-.6.5-.8.2-.3.6-.6,1-.9.7-.6,1.1-1,1.4-1.3.2-.3.4-.6.4-.9s-.1-.6-.3-.8c-.2-.2-.5-.3-.8-.3s-.7.1-.9.3c-.2.2-.3.5-.3.9h-.8c0-.7.3-1.1.6-1.4.3-.3.8-.5,1.4-.5s1.1.2,1.4.5c.3.3.5.7.5,1.2s0,.5-.2.7c-.1.2-.3.5-.5.8-.2.3-.6.6-1.2,1.1-.5.4-.7.6-.9.8-.1.1-.2.3-.3.4h3Z"/>
    </g>
    <g>
      <path class="st4" d="M231.3,276.4l2.4-6.2h.9l2.5,6.2h-.9l-.7-1.9h-2.6l-.7,1.9h-.9ZM233.1,273.9h2.1l-.6-1.7c-.2-.5-.3-.9-.4-1.3,0,.4-.2.8-.3,1.2l-.7,1.8Z"/>
      <path class="st4" d="M237.4,274.8h.8c0,.3.2.6.4.8.2.2.5.3.8.3s.7-.1.9-.4c.2-.2.4-.6.4-.9s-.1-.6-.3-.9c-.2-.2-.5-.3-.9-.3s-.3,0-.5,0v-.7c.1,0,.2,0,.2,0,.3,0,.6,0,.9-.3.3-.2.4-.4.4-.8s0-.5-.3-.7c-.2-.2-.4-.3-.7-.3s-.5,0-.7.3-.3.5-.4.8h-.8c0-.6.3-1,.6-1.3s.7-.4,1.2-.4.6,0,.9.2c.3.1.5.3.7.6.2.3.2.5.2.8s0,.5-.2.7c-.1.2-.4.4-.6.5.4,0,.6.3.9.5.2.3.3.6.3,1s-.2,1-.6,1.4-.9.6-1.5.6-1-.2-1.4-.5-.6-.7-.6-1.3Z"/>
    </g>
    <g>
      <path class="st4" d="M231.3,292l2.4-6.2h.9l2.5,6.2h-.9l-.7-1.9h-2.6l-.7,1.9h-.9ZM233.1,289.4h2.1l-.6-1.7c-.2-.5-.3-.9-.4-1.3,0,.4-.2.8-.3,1.2l-.7,1.8Z"/>
      <path class="st4" d="M239.9,292v-1.5h-2.7v-.7l2.8-4h.6v4h.8v.7h-.8v1.5h-.8ZM239.9,289.8v-2.8l-1.9,2.8h1.9Z"/>
    </g>
    <rect class="st1" x="47.7" y="104.6" width="93.2" height="279.7"/>
    <g>
      <path class="st4" d="M77.3,202.6v-8.7h5.8v1h-4.7v2.7h4.1v1h-4.1v3.9h-1.1Z"/>
      <path class="st4" d="M84.6,202.6v-8.7h1.7l2,6.1c.2.6.3,1,.4,1.3,0-.3.3-.8.5-1.4l2.1-6h1.5v8.7h-1.1v-7.2l-2.5,7.2h-1l-2.5-7.4v7.4h-1.1Z"/>
      <path class="st4" d="M100.8,199.6l1.1.3c-.2.9-.7,1.7-1.3,2.2-.6.5-1.4.7-2.3.7s-1.7-.2-2.3-.6c-.6-.4-1-.9-1.3-1.6-.3-.7-.5-1.5-.5-2.3s.2-1.7.5-2.4c.3-.7.8-1.2,1.5-1.5.6-.3,1.3-.5,2.1-.5s1.6.2,2.2.7c.6.4,1,1.1,1.2,1.9l-1.1.3c-.2-.6-.5-1.1-.9-1.4-.4-.3-.9-.4-1.4-.4s-1.2.2-1.7.5c-.4.3-.8.7-.9,1.3-.2.5-.3,1.1-.3,1.7s.1,1.4.3,1.9.5,1,1,1.2c.5.3.9.4,1.5.4s1.2-.2,1.6-.6c.4-.4.7-.9.9-1.6Z"/>
    </g>
    <g>
      <path class="st4" d="M66.4,217.1v-1.1l4.4-5.5c.3-.4.6-.7.9-1h-4.8v-1h6.2v1l-4.9,6-.5.6h5.5v1h-6.8Z"/>
      <path class="st4" d="M80.7,214.1l1.1.3c-.2.9-.7,1.7-1.3,2.2-.6.5-1.4.7-2.3.7s-1.7-.2-2.3-.6c-.6-.4-1-.9-1.3-1.6-.3-.7-.5-1.5-.5-2.3s.2-1.7.5-2.4c.3-.7.8-1.2,1.5-1.5.6-.3,1.3-.5,2.1-.5s1.6.2,2.2.7c.6.4,1,1.1,1.2,1.9l-1.1.3c-.2-.6-.5-1.1-.9-1.4-.4-.3-.9-.4-1.4-.4s-1.2.2-1.7.5c-.4.3-.8.7-.9,1.3-.2.5-.3,1.1-.3,1.7s.1,1.4.3,1.9.5,1,1,1.2c.5.3.9.4,1.5.4s1.2-.2,1.6-.6c.4-.4.7-.9.9-1.6Z"/>
      <path class="st4" d="M88.9,208.5h1.1v5c0,.9,0,1.6-.3,2.1-.2.5-.6.9-1.1,1.2-.5.3-1.2.5-2,.5s-1.5-.1-2-.4c-.5-.3-.9-.7-1.1-1.2s-.3-1.3-.3-2.2v-5h1.1v5c0,.8,0,1.3.2,1.7.1.4.4.6.7.8.3.2.8.3,1.2.3.8,0,1.4-.2,1.8-.6.4-.4.5-1.1.5-2.2v-5Z"/>
      <path class="st4" d="M95.5,217.1h-1.1v-6.8c-.3.2-.6.5-1,.7-.4.2-.8.4-1.1.5v-1c.6-.3,1.1-.6,1.6-1,.4-.4.8-.8.9-1.2h.7v8.7Z"/>
      <path class="st4" d="M98.3,212.8c0-1,.1-1.8.3-2.5.2-.6.5-1.1.9-1.4.4-.3.9-.5,1.6-.5s.9,0,1.2.3c.4.2.6.5.9.8.2.4.4.8.5,1.3.1.5.2,1.2.2,2s-.1,1.8-.3,2.5c-.2.6-.5,1.1-.9,1.4-.4.3-.9.5-1.6.5s-1.5-.3-2-.9c-.6-.7-.9-1.9-.9-3.5ZM99.4,212.8c0,1.4.2,2.4.5,2.8.3.5.7.7,1.2.7s.9-.2,1.2-.7c.3-.5.5-1.4.5-2.8s-.2-2.4-.5-2.8c-.3-.5-.7-.7-1.2-.7s-.9.2-1.2.6c-.4.5-.5,1.5-.5,2.9Z"/>
      <path class="st4" d="M110.6,216.1v1h-5.7c0-.3,0-.5.1-.7.1-.4.4-.8.7-1.2.3-.4.8-.8,1.4-1.3.9-.8,1.6-1.4,1.9-1.8.3-.5.5-.9.5-1.3s-.2-.8-.5-1.1c-.3-.3-.7-.4-1.2-.4s-.9.2-1.2.5c-.3.3-.5.7-.5,1.3h-1.1c0-.9.4-1.5.8-2,.5-.4,1.1-.6,2-.6s1.5.2,2,.7c.5.5.7,1,.7,1.7s0,.7-.2,1c-.1.3-.4.7-.7,1.1s-.9.9-1.6,1.5c-.6.5-1,.9-1.2,1.1-.2.2-.3.4-.4.6h4.2Z"/>
    </g>
    <line class="st3" x1="140.9" y1="160" x2="216.5" y2="160"/>
    <polygon class="st5" points="216 157.8 222.5 160 216 162.2 216 157.8"/>
    <line class="st3" x1="179.8" y1="160" x2="222.5" y2="160"/>
    <line class="st3" x1="140.9" y1="241.1" x2="216.5" y2="241.1"/>
    <polygon class="st5" points="216 239 222.5 241.1 216 243.3 216 239"/>
    <line class="st3" x1="140.9" y1="257.2" x2="216.5" y2="257.2"/>
    <polygon class="st5" points="216 255 222.5 257.2 216 259.3 216 255"/>
    <line class="st3" x1="140.9" y1="272.7" x2="216.5" y2="272.7"/>
    <polygon class="st5" points="216 270.5 222.5 272.7 216 274.9 216 270.5"/>
    <line class="st3" x1="140.9" y1="288.3" x2="216.5" y2="288.3"/>
    <polygon class="st5" points="216 286 222.5 288.3 216 290.4 216 286"/>
    <path class="st4" d="M260.7,119l-2.4-6.2h.9l1.6,4.5c.1.4.2.7.3,1,0-.3.2-.7.3-1l1.7-4.5h.8l-2.4,6.2h-.8Z"/>
    <g>
      <path class="st4" d="M266,119h-.5v-2.9c-.1.1-.3.2-.4.3-.2.1-.3.2-.5.2v-.4c.3-.1.5-.3.7-.4.2-.2.3-.3.4-.5h.3v3.7Z"/>
      <path class="st4" d="M267.4,119v-.5h.5v.5h-.5Z"/>
      <path class="st4" d="M269.3,117c-.2,0-.3-.2-.4-.3,0-.1-.1-.3-.1-.5,0-.3,0-.5.3-.7.2-.2.5-.3.8-.3s.6,0,.8.3.3.4.3.7,0,.3-.1.4c0,.1-.2.2-.4.3.2,0,.4.2.5.4.1.2.2.4.2.6s-.1.6-.3.8c-.2.2-.5.3-.9.3s-.7-.1-.9-.3-.3-.5-.3-.8,0-.4.2-.6c.1-.2.3-.3.5-.3ZM269,118c0,.1,0,.3,0,.4,0,.1.2.2.3.3.1,0,.3,0,.4,0,.2,0,.4,0,.5-.2.1-.1.2-.3.2-.5s0-.4-.2-.5c-.1-.1-.3-.2-.5-.2s-.4,0-.5.2c-.1.1-.2.3-.2.5ZM269.2,116.3c0,.2,0,.3.2.4.1.1.3.2.4.2s.3,0,.4-.2c.1-.1.2-.2.2-.4s0-.3-.2-.4c-.1-.1-.3-.2-.4-.2s-.3,0-.4.2-.2.2-.2.4Z"/>
      <path class="st4" d="M272.7,119l-1.4-3.7h.5l1,2.7c0,.2.1.4.2.6,0-.2.1-.4.2-.6l1-2.7h.5l-1.5,3.7h-.5Z"/>
    </g>
    <path class="st4" d="M328.8,119l-2.4-6.2h.9l1.6,4.5c.1.4.2.7.3,1,0-.3.2-.7.3-1l1.7-4.5h.8l-2.4,6.2h-.8Z"/>
    <g>
      <path class="st4" d="M332.6,119v-3.7h1.6c.3,0,.6,0,.8,0,.2,0,.3.2.4.4.1.2.2.4.2.6s0,.5-.3.7c-.2.2-.4.3-.8.3.1,0,.2.1.3.2.1.1.3.3.4.5l.6,1h-.6l-.5-.8c-.1-.2-.3-.4-.4-.5,0-.1-.2-.2-.2-.2s-.1,0-.2,0c0,0-.1,0-.3,0h-.6v1.6h-.5ZM333.1,117h1.1c.2,0,.4,0,.5,0,.1,0,.2-.1.3-.2,0-.1,0-.2,0-.3,0-.2,0-.3-.2-.4-.1-.1-.3-.2-.6-.2h-1.2v1.2Z"/>
      <path class="st4" d="M336.3,119v-3.7h2.7v.4h-2.2v1.1h2.1v.4h-2.1v1.3h2.3v.4h-2.8Z"/>
      <path class="st4" d="M339.8,119v-3.7h2.5v.4h-2v1.1h1.7v.4h-1.7v1.7h-.5Z"/>
    </g>
    <g>
      <path class="st4" d="M350.3,244.4v-6.2h2.3c.5,0,.9,0,1.1.2s.5.3.7.6c.2.3.2.5.2.8s0,.5-.2.7c-.1.2-.4.4-.6.6.4.1.7.3.9.6.2.3.3.6.3.9s0,.6-.2.8c-.1.2-.3.4-.5.6-.2.1-.4.2-.7.3-.3,0-.6.1-1,.1h-2.4ZM351.1,240.8h1.3c.4,0,.6,0,.8,0,.2,0,.4-.2.5-.3s.2-.3.2-.5,0-.4-.1-.5-.2-.3-.4-.3c-.2,0-.5,0-.9,0h-1.2v1.9ZM351.1,243.7h1.5c.3,0,.4,0,.6,0,.2,0,.3,0,.5-.2.1,0,.2-.2.3-.3,0-.1.1-.3.1-.5s0-.4-.2-.6-.3-.3-.5-.4c-.2,0-.5-.1-.9-.1h-1.4v2.1Z"/>
      <path class="st4" d="M358.6,244.4h-.8v-4.8c-.2.2-.4.3-.7.5-.3.2-.6.3-.8.4v-.7c.4-.2.8-.4,1.1-.7.3-.3.5-.6.7-.8h.5v6.2Z"/>
    </g>
    <g>
      <path class="st4" d="M350.3,260.9v-6.2h2.3c.5,0,.9,0,1.1.2s.5.3.7.6c.2.3.2.5.2.8s0,.5-.2.7c-.1.2-.4.4-.6.6.4.1.7.3.9.6.2.3.3.6.3.9s0,.6-.2.8c-.1.2-.3.4-.5.6-.2.1-.4.2-.7.3-.3,0-.6.1-1,.1h-2.4ZM351.1,257.3h1.3c.4,0,.6,0,.8,0,.2,0,.4-.2.5-.3s.2-.3.2-.5,0-.4-.1-.5-.2-.3-.4-.3c-.2,0-.5,0-.9,0h-1.2v1.9ZM351.1,260.2h1.5c.3,0,.4,0,.6,0,.2,0,.3,0,.5-.2.1,0,.2-.2.3-.3,0-.1.1-.3.1-.5s0-.4-.2-.6-.3-.3-.5-.4c-.2,0-.5-.1-.9-.1h-1.4v2.1Z"/>
      <path class="st4" d="M359.7,260.2v.7h-4.1c0-.2,0-.4,0-.5.1-.3.3-.6.5-.8.2-.3.6-.6,1-.9.7-.6,1.1-1,1.4-1.3.2-.3.4-.6.4-.9s-.1-.6-.3-.8c-.2-.2-.5-.3-.8-.3s-.7.1-.9.3c-.2.2-.3.5-.3.9h-.8c0-.7.3-1.1.6-1.4s.8-.5,1.4-.5,1.1.2,1.4.5c.3.3.5.7.5,1.2s0,.5-.2.7c-.1.2-.3.5-.5.8-.2.3-.6.6-1.2,1.1-.5.4-.7.6-.9.8-.1.1-.2.3-.3.4h3Z"/>
    </g>
    <g>
      <path class="st4" d="M350.3,276.4v-6.2h2.3c.5,0,.9,0,1.1.2s.5.3.7.6c.2.3.2.5.2.8s0,.5-.2.7c-.1.2-.4.4-.6.6.4.1.7.3.9.6.2.3.3.6.3.9s0,.6-.2.8c-.1.2-.3.4-.5.6-.2.1-.4.2-.7.3-.3,0-.6.1-1,.1h-2.4ZM351.2,272.8h1.3c.4,0,.6,0,.8,0,.2,0,.4-.2.5-.3s.2-.3.2-.5,0-.4-.1-.5-.2-.3-.4-.3c-.2,0-.5,0-.9,0h-1.2v1.9ZM351.2,275.7h1.5c.3,0,.4,0,.6,0,.2,0,.3,0,.5-.2.1,0,.2-.2.3-.3,0-.1.1-.3.1-.5s0-.4-.2-.6-.3-.3-.5-.4c-.2,0-.5-.1-.9-.1h-1.4v2.1Z"/>
      <path class="st4" d="M355.8,274.8h.8c0,.3.2.6.4.8.2.2.5.3.8.3s.7-.1.9-.4.4-.6.4-.9-.1-.6-.3-.9c-.2-.2-.5-.3-.9-.3s-.3,0-.5,0v-.7c.1,0,.2,0,.2,0,.3,0,.6,0,.9-.3.3-.2.4-.4.4-.8s0-.5-.3-.7-.4-.3-.7-.3-.5,0-.7.3c-.2.2-.3.5-.4.8h-.8c0-.6.3-1,.6-1.3.3-.3.7-.4,1.2-.4s.6,0,.9.2c.3.1.5.3.7.6.2.3.2.5.2.8s0,.5-.2.7c-.1.2-.4.4-.6.5.4,0,.6.3.9.5.2.3.3.6.3,1s-.2,1-.6,1.4-.9.6-1.5.6-1-.2-1.4-.5-.6-.7-.6-1.3Z"/>
    </g>
    <g>
      <path class="st4" d="M350.3,292v-6.2h2.3c.5,0,.9,0,1.1.2s.5.3.7.6c.2.3.2.5.2.8s0,.5-.2.7c-.1.2-.4.4-.6.6.4.1.7.3.9.6.2.3.3.6.3.9s0,.6-.2.8c-.1.2-.3.4-.5.6-.2.1-.4.2-.7.3-.3,0-.6.1-1,.1h-2.4ZM351.2,288.4h1.3c.4,0,.6,0,.8,0,.2,0,.4-.2.5-.3s.2-.3.2-.5,0-.4-.1-.5-.2-.3-.4-.3c-.2,0-.5,0-.9,0h-1.2v1.9ZM351.2,291.2h1.5c.3,0,.4,0,.6,0,.2,0,.3,0,.5-.2.1,0,.2-.2.3-.3,0-.1.1-.3.1-.5s0-.4-.2-.6-.3-.3-.5-.4c-.2,0-.5-.1-.9-.1h-1.4v2.1Z"/>
      <path class="st4" d="M358.3,292v-1.5h-2.7v-.7l2.8-4h.6v4h.8v.7h-.8v1.5h-.8ZM358.3,289.8v-2.8l-1.9,2.8h1.9Z"/>
    </g>
    <rect class="st1" x="451.8" y="104.6" width="93.2" height="279.7"/>
    <g>
      <path class="st4" d="M456,202.9v-8.7h1.7l2,6.1c.2.6.3,1,.4,1.3,0-.3.3-.8.5-1.4l2.1-6h1.5v8.7h-1.1v-7.2l-2.5,7.2h-1l-2.5-7.4v7.4h-1.1Z"/>
      <path class="st4" d="M470.3,200.8h1.1c-.2.8-.5,1.3-1,1.6-.5.4-1.1.5-1.8.5s-1.6-.3-2.2-.8-.8-1.4-.8-2.4.3-1.9.8-2.5,1.2-.9,2.1-.9,1.5.3,2.1.9.8,1.4.8,2.4,0,.2,0,.3h-4.7c0,.7.2,1.2.6,1.6.3.4.8.5,1.3.5s.7-.1,1-.3c.3-.2.5-.5.7-1ZM466.8,199.1h3.5c0-.5-.2-.9-.4-1.2-.3-.4-.8-.6-1.3-.6s-.9.2-1.2.5c-.3.3-.5.8-.6,1.3Z"/>
      <path class="st4" d="M472.7,202.9v-6.3h1v.9c.2-.3.5-.6.8-.7.3-.2.7-.3,1.1-.3s.8,0,1.1.3c.3.2.5.5.6.8.5-.7,1.1-1.1,1.9-1.1s1.1.2,1.4.5c.3.3.5.9.5,1.6v4.3h-1.1v-3.9c0-.4,0-.7-.1-.9,0-.2-.2-.3-.4-.5-.2-.1-.4-.2-.6-.2-.4,0-.8.1-1.1.4-.3.3-.4.8-.4,1.4v3.6h-1.1v-4.1c0-.5,0-.8-.3-1.1-.2-.2-.5-.4-.9-.4s-.6,0-.8.2-.4.4-.6.7c-.1.3-.2.7-.2,1.3v3.3h-1.1Z"/>
      <path class="st4" d="M482.4,199.7c0-1.2.3-2,1-2.6.5-.5,1.2-.7,2-.7s1.6.3,2.1.8.8,1.3.8,2.3-.1,1.4-.4,1.9c-.2.5-.6.8-1.1,1.1-.5.3-1,.4-1.5.4-.9,0-1.6-.3-2.1-.8s-.8-1.4-.8-2.4ZM483.5,199.7c0,.8.2,1.4.5,1.8.3.4.8.6,1.3.6s1-.2,1.3-.6c.4-.4.5-1,.5-1.8s-.2-1.4-.5-1.8c-.4-.4-.8-.6-1.3-.6s-1,.2-1.3.6c-.4.4-.5,1-.5,1.8Z"/>
      <path class="st4" d="M489.5,202.9v-6.3h1v1c.2-.4.5-.7.7-.9.2-.1.4-.2.7-.2.4,0,.7.1,1.1.3l-.4,1c-.3-.2-.5-.2-.8-.2s-.4,0-.6.2c-.2.1-.3.3-.4.6-.1.4-.2.8-.2,1.2v3.3h-1.1Z"/>
      <path class="st4" d="M493.5,205.3v-1c.1,0,.3,0,.5,0s.4,0,.6-.1c.1,0,.3-.2.3-.3,0-.1.2-.4.3-.8,0,0,0-.1,0-.3l-2.4-6.3h1.1l1.3,3.6c.2.5.3.9.5,1.5.1-.5.3-1,.4-1.4l1.3-3.7h1.1l-2.4,6.4c-.3.7-.5,1.2-.6,1.4-.2.4-.4.6-.6.8s-.5.2-.9.2-.4,0-.7-.1Z"/>
      <path class="st4" d="M503.1,202.9v-8.7h1.7l2,6.1c.2.6.3,1,.4,1.3,0-.3.3-.8.5-1.4l2.1-6h1.5v8.7h-1.1v-7.2l-2.5,7.2h-1l-2.5-7.4v7.4h-1.1Z"/>
      <path class="st4" d="M512.6,199.7c0-1.2.3-2,1-2.6.5-.5,1.2-.7,2-.7s1.6.3,2.1.8.8,1.3.8,2.3-.1,1.4-.4,1.9c-.2.5-.6.8-1.1,1.1-.5.3-1,.4-1.5.4-.9,0-1.6-.3-2.1-.8s-.8-1.4-.8-2.4ZM513.7,199.7c0,.8.2,1.4.5,1.8.3.4.8.6,1.3.6s1-.2,1.3-.6c.4-.4.5-1,.5-1.8s-.2-1.4-.5-1.8c-.4-.4-.8-.6-1.3-.6s-1,.2-1.3.6c-.4.4-.5,1-.5,1.8Z"/>
      <path class="st4" d="M523.8,202.9v-.8c-.4.6-1,.9-1.8.9s-1-.1-1.4-.4-.7-.7-1-1.2c-.2-.5-.3-1.1-.3-1.7s.1-1.2.3-1.7c.2-.5.5-.9.9-1.2s.9-.4,1.4-.4.7,0,1,.2.5.4.7.6v-3.1h1.1v8.7h-1ZM520.5,199.7c0,.8.2,1.4.5,1.8.3.4.7.6,1.2.6s.9-.2,1.2-.6c.3-.4.5-1,.5-1.7s-.2-1.5-.5-1.9c-.3-.4-.7-.6-1.2-.6s-.9.2-1.2.6c-.3.4-.5,1-.5,1.8Z"/>
      <path class="st4" d="M530.6,202.9v-.9c-.5.7-1.2,1.1-2,1.1s-.7,0-1-.2c-.3-.1-.6-.3-.7-.5-.2-.2-.3-.5-.3-.8,0-.2,0-.5,0-1v-3.9h1.1v3.5c0,.6,0,.9,0,1.1,0,.3.2.5.4.7.2.2.5.2.8.2s.6,0,.9-.2c.3-.2.5-.4.6-.7.1-.3.2-.7.2-1.2v-3.4h1.1v6.3h-1Z"/>
      <path class="st4" d="M533.2,202.9v-8.7h1.1v8.7h-1.1Z"/>
      <path class="st4" d="M540.2,200.8h1.1c-.2.8-.5,1.3-1,1.6-.5.4-1.1.5-1.8.5s-1.6-.3-2.2-.8-.8-1.4-.8-2.4.3-1.9.8-2.5,1.2-.9,2.1-.9,1.5.3,2.1.9.8,1.4.8,2.4,0,.2,0,.3h-4.7c0,.7.2,1.2.6,1.6.3.4.8.5,1.3.5s.7-.1,1-.3c.3-.2.5-.5.7-1ZM536.7,199.1h3.5c0-.5-.2-.9-.4-1.2-.3-.4-.8-.6-1.3-.6s-.9.2-1.2.5c-.3.3-.5.8-.6,1.3Z"/>
    </g>
    <g>
      <path class="st4" d="M472.2,214.3l1.1.3c-.2.9-.7,1.7-1.3,2.2-.6.5-1.4.7-2.3.7s-1.7-.2-2.3-.6c-.6-.4-1-.9-1.3-1.6-.3-.7-.5-1.5-.5-2.3s.2-1.7.5-2.4c.3-.7.8-1.2,1.5-1.5.6-.3,1.3-.5,2.1-.5s1.6.2,2.2.7c.6.4,1,1.1,1.2,1.9l-1.1.3c-.2-.6-.5-1.1-.9-1.4s-.9-.4-1.4-.4-1.2.2-1.7.5c-.4.3-.8.7-.9,1.3s-.3,1.1-.3,1.7.1,1.4.3,1.9c.2.5.5,1,1,1.2s.9.4,1.5.4,1.2-.2,1.6-.6c.4-.4.7-.9.9-1.6Z"/>
      <path class="st4" d="M474.7,217.4v-8.7h1.7l2,6.1c.2.6.3,1,.4,1.3,0-.3.3-.8.5-1.4l2.1-6h1.5v8.7h-1.1v-7.2l-2.5,7.2h-1l-2.5-7.4v7.4h-1.1Z"/>
      <path class="st4" d="M484.4,213.2c0-1.4.4-2.6,1.2-3.4s1.8-1.2,3-1.2,1.5.2,2.2.6,1.1.9,1.5,1.6c.3.7.5,1.5.5,2.3s-.2,1.7-.5,2.4c-.4.7-.9,1.2-1.5,1.6-.6.4-1.3.5-2.1.5s-1.5-.2-2.2-.6c-.6-.4-1.1-.9-1.5-1.6s-.5-1.4-.5-2.2ZM485.6,213.2c0,1,.3,1.9.8,2.5.6.6,1.3.9,2.1.9s1.6-.3,2.1-.9c.6-.6.8-1.5.8-2.6s-.1-1.3-.4-1.8-.6-.9-1-1.2c-.5-.3-1-.4-1.5-.4-.8,0-1.5.3-2.1.8-.6.6-.9,1.5-.9,2.8Z"/>
      <path class="st4" d="M493.8,214.6h1.1c0,.3.2.7.4,1,.2.3.5.5.9.7.4.2.8.3,1.3.3s.8,0,1.2-.2c.3-.1.6-.3.7-.5s.2-.5.2-.7,0-.5-.2-.7c-.2-.2-.4-.4-.8-.5-.2,0-.7-.2-1.5-.4-.8-.2-1.4-.4-1.7-.5-.4-.2-.7-.5-.9-.8-.2-.3-.3-.7-.3-1.1s.1-.8.4-1.2c.2-.4.6-.7,1.1-.9.5-.2,1-.3,1.6-.3s1.2.1,1.7.3c.5.2.9.5,1.1.9s.4.9.4,1.4h-1.1c0-.5-.3-.9-.6-1.2-.3-.3-.8-.4-1.5-.4s-1.2.1-1.5.4-.5.6-.5.9.1.6.3.8c.2.2.8.4,1.7.6.9.2,1.6.4,1.9.6.5.2.9.5,1.1.9.2.4.4.8.4,1.2s-.1.9-.4,1.3-.6.7-1.1,1c-.5.2-1,.3-1.7.3s-1.4-.1-2-.3c-.5-.2-.9-.6-1.2-1-.3-.5-.5-1-.5-1.6Z"/>
      <path class="st4" d="M505.1,215.1h1.1c.1.5.3.9.6,1.2s.7.4,1.1.4.9-.2,1.3-.5c.3-.3.5-.8.5-1.3s-.2-.9-.5-1.2c-.3-.3-.7-.5-1.2-.5s-.5,0-.8.1v-.9c.2,0,.2,0,.3,0,.5,0,.9-.1,1.2-.4.4-.2.5-.6.5-1.1s-.1-.7-.4-1c-.3-.3-.6-.4-1-.4s-.8.1-1,.4-.5.6-.5,1.2l-1.1-.2c.1-.7.4-1.3.9-1.7s1-.6,1.7-.6.9.1,1.3.3c.4.2.7.5.9.8.2.4.3.7.3,1.1s-.1.7-.3,1c-.2.3-.5.6-.9.7.5.1.9.4,1.2.7.3.4.4.8.4,1.4s-.3,1.4-.8,1.9c-.6.5-1.2.8-2.1.8s-1.4-.2-1.9-.7-.8-1-.9-1.8Z"/>
      <path class="st4" d="M512.4,217.4v-1.2h1.2v1.2h-1.2Z"/>
      <path class="st4" d="M515.1,215.1h1.1c.1.5.3.9.6,1.2s.7.4,1.1.4.9-.2,1.3-.5c.3-.3.5-.8.5-1.3s-.2-.9-.5-1.2c-.3-.3-.7-.5-1.2-.5s-.5,0-.8.1v-.9c.2,0,.2,0,.3,0,.5,0,.9-.1,1.2-.4.4-.2.5-.6.5-1.1s-.1-.7-.4-1c-.3-.3-.6-.4-1-.4s-.8.1-1,.4-.5.6-.5,1.2l-1.1-.2c.1-.7.4-1.3.9-1.7s1-.6,1.7-.6.9.1,1.3.3c.4.2.7.5.9.8.2.4.3.7.3,1.1s-.1.7-.3,1c-.2.3-.5.6-.9.7.5.1.9.4,1.2.7.3.4.4.8.4,1.4s-.3,1.4-.8,1.9c-.6.5-1.2.8-2.1.8s-1.4-.2-1.9-.7-.8-1-.9-1.8Z"/>
      <path class="st4" d="M528.1,217.4l-3.4-8.7h1.2l2.2,6.3c.2.5.3,1,.5,1.4.1-.5.3-.9.5-1.4l2.3-6.3h1.2l-3.4,8.7h-1.2Z"/>
    </g>
    <polyline class="st3" points="265.3 104.6 265.3 19.1 63.2 19.1"/>
    <line class="st3" x1="90.4" y1="19.1" x2="90.4" y2="100.7"/>
    <line class="st3" x1="90.4" y1="100.7" x2="90.4" y2="104.6"/>
    <polyline class="st5" points="88.9 19.1 89 18.5 89.3 18.1 89.8 17.8 90.4 17.6 91 17.8 91.5 18.1 91.8 18.5 92 19.1 91.8 19.7 91.5 20.3 91 20.6 90.4 20.7 89.8 20.6 89.3 20.3 89 19.7 88.9 19.1"/>
    <polyline class="st3" points="88.9 19.1 89 18.5 89.3 18.1 89.8 17.8 90.4 17.6 91 17.8 91.5 18.1 91.8 18.5 92 19.1 91.8 19.7 91.5 20.3 91 20.6 90.4 20.7 89.8 20.6 89.3 20.3 89 19.7 88.9 19.1"/>
    <g>
      <path class="st4" d="M71.1,14.1h-.8v-4.8c-.2.2-.4.3-.7.5-.3.2-.6.3-.8.4v-.7c.4-.2.8-.4,1.1-.7.3-.3.5-.6.7-.8h.5v6.2Z"/>
      <path class="st4" d="M73.5,14.1v-.9h.9v.9h-.9Z"/>
      <path class="st4" d="M76.7,10.8c-.3-.1-.5-.3-.7-.5s-.2-.5-.2-.8c0-.4.2-.8.5-1.1.3-.3.8-.5,1.3-.5s1,.2,1.3.5c.3.3.5.7.5,1.1s0,.5-.2.7c-.2.2-.4.4-.7.5.4.1.7.3.9.6s.3.6.3,1-.2,1-.6,1.3c-.4.4-.9.5-1.5.5s-1.1-.2-1.5-.5c-.4-.4-.6-.8-.6-1.4s.1-.7.3-1c.2-.3.5-.5.9-.6ZM76.3,12.3c0,.2,0,.4.2.6.1.2.3.4.5.5.2.1.4.2.7.2.4,0,.7-.1.9-.4.2-.2.4-.5.4-.9s-.1-.7-.4-.9c-.2-.2-.5-.4-.9-.4s-.7.1-.9.4c-.2.2-.4.5-.4.9ZM76.5,9.5c0,.3,0,.5.3.7.2.2.4.3.7.3s.5,0,.7-.3c.2-.2.3-.4.3-.7s0-.5-.3-.7c-.2-.2-.4-.3-.7-.3s-.5,0-.7.3c-.2.2-.3.4-.3.7Z"/>
      <path class="st4" d="M82.3,14.1l-2.4-6.2h.9l1.6,4.5c.1.4.2.7.3,1,0-.3.2-.7.3-1l1.7-4.5h.8l-2.4,6.2h-.8Z"/>
    </g>
    <line class="st2" x1="215.3" y1="33.7" x2="230.9" y2="33.7"/>
    <line class="st2" x1="215.3" y1="29.8" x2="230.9" y2="29.8"/>
    <line class="st2" x1="223.1" y1="48.3" x2="223.1" y2="33.7"/>
    <line class="st2" x1="223.1" y1="29.8" x2="223.1" y2="19.1"/>
    <g>
      <path class="st4" d="M234.3,31.6c0-.7,0-1.2.2-1.6s.3-.7.6-.9c.3-.2.6-.3,1-.3s.6,0,.8.2.4.3.6.5c.1.2.3.5.3.8,0,.3.1.8.1,1.3s0,1.2-.2,1.6c-.1.4-.3.7-.6.9-.3.2-.6.3-1,.3s-1-.2-1.3-.6c-.4-.5-.6-1.2-.6-2.3ZM235,31.6c0,.9.1,1.5.3,1.8.2.3.5.5.8.5s.6-.2.8-.5c.2-.3.3-.9.3-1.8s-.1-1.5-.3-1.8c-.2-.3-.5-.5-.8-.5s-.6.1-.8.4c-.2.3-.4,1-.4,1.9Z"/>
      <path class="st4" d="M239,34.3v-.8h.8v.8h-.8Z"/>
      <path class="st4" d="M243.3,34.3h-.7v-4.4c-.2.2-.4.3-.6.5-.3.2-.5.3-.7.4v-.7c.4-.2.7-.4,1-.7s.5-.5.6-.7h.4v5.6Z"/>
      <path class="st4" d="M250.8,30.3v4h-.6v-.5c-.1.2-.3.3-.4.4-.2.1-.4.2-.6.2s-.4,0-.6-.1c-.1,0-.3-.2-.4-.4v1.9h-.7v-5.6h.7v1.7c0,.6,0,1,0,1.2,0,.2.2.3.3.4.1.1.3.2.5.2s.4,0,.5-.2.3-.3.3-.4c0-.2,0-.6,0-1.2v-1.7h.7Z"/>
      <path class="st4" d="M252,34.3v-5.6h3.8v.7h-3v1.7h2.6v.7h-2.6v2.5h-.7Z"/>
    </g>
    <polygon class="st3" points="230.9 55.3 215.3 55.3 223.1 63.1 230.9 55.3"/>
    <line class="st3" x1="223.1" y1="47.5" x2="223.1" y2="55.3"/>
    <polyline class="st3" points="335.2 104.6 335.2 19.1 537.3 19.1"/>
    <line class="st2" x1="361" y1="33.7" x2="376.5" y2="33.7"/>
    <line class="st2" x1="361" y1="29.8" x2="376.5" y2="29.8"/>
    <line class="st2" x1="368.8" y1="48.3" x2="368.8" y2="33.7"/>
    <line class="st2" x1="368.8" y1="29.8" x2="368.8" y2="19.1"/>
    <g>
      <path class="st4" d="M380.2,31.6c0-.7,0-1.2.2-1.6s.3-.7.6-.9c.3-.2.6-.3,1-.3s.6,0,.8.2c.2.1.4.3.6.5.1.2.3.5.3.8,0,.3.1.8.1,1.3s0,1.2-.2,1.6c-.1.4-.3.7-.6.9-.3.2-.6.3-1,.3s-1-.2-1.3-.6c-.4-.5-.6-1.2-.6-2.3ZM380.9,31.6c0,.9.1,1.5.3,1.8s.5.5.8.5.6-.2.8-.5c.2-.3.3-.9.3-1.8s-.1-1.5-.3-1.8c-.2-.3-.5-.5-.8-.5s-.6.1-.8.4c-.2.3-.4,1-.4,1.9Z"/>
      <path class="st4" d="M384.9,34.3v-.8h.8v.8h-.8Z"/>
      <path class="st4" d="M389.3,34.3h-.7v-4.4c-.2.2-.4.3-.6.5-.3.2-.5.3-.7.4v-.7c.4-.2.7-.4,1-.7s.5-.5.6-.7h.4v5.6Z"/>
      <path class="st4" d="M396.7,30.3v4h-.6v-.5c-.1.2-.3.3-.4.4-.2.1-.4.2-.6.2s-.4,0-.6-.1c-.1,0-.3-.2-.4-.4v1.9h-.7v-5.6h.7v1.7c0,.6,0,1,0,1.2,0,.2.2.3.3.4.1.1.3.2.5.2s.4,0,.5-.2c.2-.1.3-.3.3-.4,0-.2,0-.6,0-1.2v-1.7h.7Z"/>
      <path class="st4" d="M398,34.3v-5.6h3.8v.7h-3v1.7h2.6v.7h-2.6v2.5h-.7Z"/>
    </g>
    <polygon class="st3" points="376.6 55.3 361.1 55.3 368.9 63.1 376.6 55.3"/>
    <line class="st3" x1="368.9" y1="47.5" x2="368.9" y2="55.3"/>
    <polyline class="st5" points="221.5 19.1 221.7 18.5 222.1 18.1 222.5 17.8 223.1 17.6 223.7 17.8 224.2 18.1 224.6 18.5 224.6 19.1 224.6 19.7 224.2 20.3 223.7 20.6 223.1 20.7 222.5 20.6 222.1 20.3 221.7 19.7 221.5 19.1"/>
    <polyline class="st3" points="221.5 19.1 221.7 18.5 222.1 18.1 222.5 17.8 223.1 17.6 223.7 17.8 224.2 18.1 224.6 18.5 224.6 19.1 224.6 19.7 224.2 20.3 223.7 20.6 223.1 20.7 222.5 20.6 222.1 20.3 221.7 19.7 221.5 19.1"/>
    <polyline class="st5" points="367.1 19.1 367.3 18.5 367.7 18.1 368.1 17.8 368.7 17.6 369.3 17.8 369.8 18.1 370.2 18.5 370.2 19.1 370.2 19.7 369.8 20.3 369.3 20.6 368.7 20.7 368.1 20.6 367.7 20.3 367.3 19.7 367.1 19.1"/>
    <polyline class="st3" points="367.1 19.1 367.3 18.5 367.7 18.1 368.1 17.8 368.7 17.6 369.3 17.8 369.8 18.1 370.2 18.5 370.2 19.1 370.2 19.7 369.8 20.3 369.3 20.6 368.7 20.7 368.1 20.6 367.7 20.3 367.3 19.7 367.1 19.1"/>
    <line class="st2" x1="410.4" y1="33.7" x2="425.9" y2="33.7"/>
    <line class="st2" x1="410.4" y1="29.8" x2="425.9" y2="29.8"/>
    <line class="st2" x1="418.1" y1="48.3" x2="418.1" y2="33.7"/>
    <line class="st2" x1="418.1" y1="29.8" x2="418.1" y2="19.1"/>
    <polygon class="st3" points="425.9 55.4 410.4 55.4 418.1 63.2 425.9 55.4"/>
    <line class="st3" x1="418.1" y1="47.6" x2="418.1" y2="55.4"/>
    <polyline class="st5" points="416.5 19.1 416.6 18.5 416.9 18.1 417.5 17.8 418.1 17.6 418.7 17.8 419.2 18.1 419.5 18.5 419.6 19.1 419.5 19.7 419.2 20.3 418.7 20.6 418.1 20.7 417.5 20.6 416.9 20.3 416.6 19.7 416.5 19.1"/>
    <polyline class="st3" points="416.5 19.1 416.6 18.5 416.9 18.1 417.5 17.8 418.1 17.6 418.7 17.8 419.2 18.1 419.5 18.5 419.6 19.1 419.5 19.7 419.2 20.3 418.7 20.6 418.1 20.7 417.5 20.6 416.9 20.3 416.6 19.7 416.5 19.1"/>
    <g>
      <path class="st4" d="M433.2,34.6h-.7v-4.4c-.2.2-.4.3-.6.5-.3.2-.5.3-.7.4v-.7c.4-.2.7-.4,1-.7s.5-.5.6-.7h.4v5.6Z"/>
      <path class="st4" d="M440.7,30.6v4h-.6v-.5c-.1.2-.3.3-.4.4-.2.1-.4.2-.6.2s-.4,0-.6-.1c-.1,0-.3-.2-.4-.4v1.9h-.7v-5.6h.7v1.7c0,.6,0,1,0,1.2,0,.2.2.3.3.4.1.1.3.2.5.2s.4,0,.5-.2c.2-.1.3-.3.3-.4,0-.2,0-.6,0-1.2v-1.7h.7Z"/>
      <path class="st4" d="M441.9,34.6v-5.6h3.8v.7h-3v1.7h2.6v.7h-2.6v2.5h-.7Z"/>
    </g>
    <line class="st3" x1="498.4" y1="19.1" x2="498.4" y2="104.6"/>
    <polyline class="st5" points="496.9 19.1 497 18.5 497.3 18.1 497.8 17.8 498.4 17.6 499 17.8 499.5 18.1 499.9 18.5 500 19.1 499.9 19.7 499.5 20.3 499 20.6 498.4 20.7 497.8 20.6 497.3 20.3 497 19.7 496.9 19.1"/>
    <polyline class="st3" points="496.9 19.1 497 18.5 497.3 18.1 497.8 17.8 498.4 17.6 499 17.8 499.5 18.1 499.9 18.5 500 19.1 499.9 19.7 499.5 20.3 499 20.6 498.4 20.7 497.8 20.6 497.3 20.3 497 19.7 496.9 19.1"/>
    <g>
      <path class="st4" d="M511.4,12.5h.8c0,.3.2.6.4.8.2.2.5.3.8.3s.7-.1.9-.4c.2-.2.4-.6.4-.9s-.1-.6-.3-.9c-.2-.2-.5-.3-.9-.3s-.3,0-.5,0v-.7c.1,0,.2,0,.2,0,.3,0,.6,0,.9-.3.3-.2.4-.4.4-.8s0-.5-.3-.7-.4-.3-.7-.3-.5,0-.7.3c-.2.2-.3.5-.4.8h-.8c0-.6.3-1,.6-1.3.3-.3.7-.4,1.2-.4s.6,0,.9.2c.3.1.5.3.7.6s.2.5.2.8,0,.5-.2.7c-.1.2-.4.4-.6.5.4,0,.6.3.9.5.2.3.3.6.3,1s-.2,1-.6,1.4c-.4.4-.9.6-1.5.6s-1-.2-1.4-.5-.6-.7-.6-1.3Z"/>
      <path class="st4" d="M516.6,14.1v-.9h.9v.9h-.9Z"/>
      <path class="st4" d="M518.5,12.5h.8c0,.3.2.6.4.8.2.2.5.3.8.3s.7-.1.9-.4c.2-.2.4-.6.4-.9s-.1-.6-.3-.9c-.2-.2-.5-.3-.9-.3s-.3,0-.5,0v-.7c.1,0,.2,0,.2,0,.3,0,.6,0,.9-.3.3-.2.4-.4.4-.8s0-.5-.3-.7-.4-.3-.7-.3-.5,0-.7.3c-.2.2-.3.5-.4.8h-.8c0-.6.3-1,.6-1.3.3-.3.7-.4,1.2-.4s.6,0,.9.2c.3.1.5.3.7.6s.2.5.2.8,0,.5-.2.7c-.1.2-.4.4-.6.5.4,0,.6.3.9.5.2.3.3.6.3,1s-.2,1-.6,1.4c-.4.4-.9.6-1.5.6s-1-.2-1.4-.5-.6-.7-.6-1.3Z"/>
      <path class="st4" d="M525.4,14.1l-2.4-6.2h.9l1.6,4.5c.1.4.2.7.3,1,0-.3.2-.7.3-1l1.7-4.5h.8l-2.4,6.2h-.8Z"/>
    </g>
    <g>
      <path class="st4" d="M85.1,376.9v-.7h2.6s0,2.3,0,2.3c-.4.3-.8.6-1.2.7-.4.2-.9.2-1.3.2s-1.2-.1-1.7-.4c-.5-.3-.9-.6-1.1-1.1-.3-.5-.4-1-.4-1.6s.1-1.2.4-1.7c.3-.5.6-.9,1.1-1.2s1-.4,1.6-.4.9,0,1.2.2c.4.1.6.3.8.6.2.3.4.6.5,1l-.7.2c0-.3-.2-.6-.3-.7-.1-.2-.3-.3-.6-.4-.3-.1-.5-.2-.9-.2s-.7,0-1,.2c-.3.1-.5.3-.7.4-.2.2-.3.4-.4.6-.2.4-.2.8-.2,1.2s0,1,.3,1.4c.2.4.5.6.8.8.4.2.7.3,1.2.3s.7,0,1-.2c.3-.1.6-.3.8-.4v-1.2h-1.8Z"/>
      <path class="st4" d="M88.9,379.3v-6.2h.8l3.2,4.9v-4.9h.8v6.2h-.8l-3.2-4.9v4.9h-.8Z"/>
      <path class="st4" d="M95.2,379.3v-6.2h2.1c.5,0,.8,0,1.1,0,.4,0,.7.2.9.4.3.3.6.6.7,1.1s.2.9.2,1.5,0,.9-.2,1.2c-.1.4-.2.7-.4.9-.2.2-.4.4-.6.6-.2.1-.4.2-.7.3s-.6.1-1,.1h-2.2ZM96,378.6h1.3c.4,0,.7,0,1-.1.2,0,.4-.2.6-.3.2-.2.3-.5.5-.8s.2-.7.2-1.2-.1-1.1-.3-1.5c-.2-.3-.5-.6-.8-.7-.2,0-.6-.1-1.1-.1h-1.3v4.7Z"/>
    </g>
    <g>
      <path class="st4" d="M293.1,377v-.7h2.6s0,2.3,0,2.3c-.4.3-.8.6-1.2.7-.4.2-.9.2-1.3.2s-1.2-.1-1.7-.4c-.5-.3-.9-.6-1.1-1.1-.3-.5-.4-1-.4-1.6s.1-1.2.4-1.7c.3-.5.6-.9,1.1-1.2s1-.4,1.6-.4.9,0,1.2.2c.4.1.6.3.8.6.2.3.4.6.5,1l-.7.2c0-.3-.2-.6-.3-.7-.1-.2-.3-.3-.6-.4-.3-.1-.5-.2-.9-.2s-.7,0-1,.2c-.3.1-.5.3-.7.4-.2.2-.3.4-.4.6-.2.4-.2.8-.2,1.2s0,1,.3,1.4c.2.4.5.6.8.8.4.2.7.3,1.2.3s.7,0,1-.2c.3-.1.6-.3.8-.4v-1.2h-1.8Z"/>
      <path class="st4" d="M296.9,379.4v-6.2h.8l3.2,4.9v-4.9h.8v6.2h-.8l-3.2-4.9v4.9h-.8Z"/>
      <path class="st4" d="M303.2,379.4v-6.2h2.1c.5,0,.8,0,1.1,0,.4,0,.7.2.9.4.3.3.6.6.7,1.1.2.4.2.9.2,1.5s0,.9-.2,1.2c-.1.4-.2.7-.4.9-.2.2-.4.4-.6.6-.2.1-.5.2-.7.3s-.6.1-1,.1h-2.2ZM304,378.7h1.3c.4,0,.7,0,1-.1.2,0,.4-.2.6-.3s.3-.5.5-.8c.1-.3.2-.7.2-1.2s-.1-1.1-.3-1.5c-.2-.3-.5-.6-.8-.7-.2,0-.6-.1-1.1-.1h-1.3v4.7Z"/>
    </g>
    <g>
      <path class="st4" d="M495.2,376.9v-.7h2.6s0,2.3,0,2.3c-.4.3-.8.6-1.2.7-.4.2-.9.2-1.3.2s-1.2-.1-1.7-.4c-.5-.3-.9-.6-1.1-1.1-.3-.5-.4-1-.4-1.6s.1-1.2.4-1.7c.3-.5.6-.9,1.1-1.2.5-.3,1-.4,1.6-.4s.9,0,1.2.2.6.3.8.6c.2.3.4.6.5,1l-.7.2c0-.3-.2-.6-.3-.7s-.3-.3-.6-.4c-.3-.1-.5-.2-.9-.2s-.7,0-1,.2c-.3.1-.5.3-.7.4s-.3.4-.4.6c-.2.4-.2.8-.2,1.2s0,1,.3,1.4c.2.4.5.6.8.8.4.2.7.3,1.2.3s.7,0,1-.2c.3-.1.6-.3.8-.4v-1.2h-1.8Z"/>
      <path class="st4" d="M499.1,379.3v-6.2h.8l3.2,4.9v-4.9h.8v6.2h-.8l-3.2-4.9v4.9h-.8Z"/>
      <path class="st4" d="M505.3,379.3v-6.2h2.1c.5,0,.8,0,1.1,0,.4,0,.7.2.9.4.3.3.6.6.7,1.1.2.4.2.9.2,1.5s0,.9-.2,1.2c-.1.4-.2.7-.4.9-.2.2-.4.4-.6.6-.2.1-.5.2-.7.3s-.6.1-1,.1h-2.2ZM506.1,378.6h1.3c.4,0,.7,0,1-.1.2,0,.4-.2.6-.3s.3-.5.5-.8c.1-.3.2-.7.2-1.2s-.1-1.1-.3-1.5c-.2-.3-.5-.6-.8-.7-.2,0-.6-.1-1.1-.1h-1.3v4.7Z"/>
    </g>
    <polyline class="st3" points="90.4 384.4 90.4 403.8 502.3 403.8 502.3 384.4"/>
    <line class="st3" x1="300.3" y1="385.4" x2="300.3" y2="403.8"/>
    <polyline class="st5" points="298.7 403.8 298.8 403.2 299.1 402.7 299.6 402.4 300.3 402.2 300.9 402.4 301.4 402.7 301.7 403.2 301.8 403.8 301.7 404.4 301.4 404.9 300.9 405.3 300.3 405.3 299.6 405.3 299.1 404.9 298.8 404.4 298.7 403.8"/>
    <polyline class="st3" points="298.7 403.8 298.8 403.2 299.1 402.7 299.6 402.4 300.3 402.2 300.9 402.4 301.4 402.7 301.7 403.2 301.8 403.8 301.7 404.4 301.4 404.9 300.9 405.3 300.3 405.3 299.6 405.3 299.1 404.9 298.8 404.4 298.7 403.8"/>
    <polygon class="st3" points="308 412.6 292.5 412.6 300.3 420.4 308 412.6"/>
    <line class="st3" x1="300.3" y1="404.8" x2="300.3" y2="412.6"/>
    <line class="st3" x1="370.2" y1="241.1" x2="445.8" y2="241.1"/>
    <polygon class="st5" points="445.3 239 451.8 241.1 445.3 243.3 445.3 239"/>
    <line class="st3" x1="370.2" y1="257.2" x2="445.8" y2="257.2"/>
    <polygon class="st5" points="445.3 255 451.8 257.2 445.3 259.3 445.3 255"/>
    <line class="st3" x1="370.2" y1="272.7" x2="445.8" y2="272.7"/>
    <polygon class="st5" points="445.3 270.6 451.8 272.7 445.3 274.9 445.3 270.6"/>
    <line class="st3" x1="370.2" y1="288.3" x2="445.8" y2="288.3"/>
    <polygon class="st5" points="445.3 286.1 451.8 288.3 445.3 290.4 445.3 286.1"/>
    <g>
      <path class="st4" d="M107.7,298.7v-6.2h2.1c.5,0,.8,0,1.1,0,.4,0,.7.2.9.4.3.3.6.6.7,1.1s.2.9.2,1.5,0,.9-.2,1.2c-.1.4-.2.7-.4.9-.2.2-.4.4-.6.6-.2.1-.4.2-.7.3s-.6.1-1,.1h-2.2ZM108.5,298h1.3c.4,0,.7,0,1-.1.2,0,.4-.2.6-.3.2-.2.3-.5.5-.8s.2-.7.2-1.2-.1-1.1-.3-1.5c-.2-.3-.5-.6-.8-.7-.2,0-.6-.1-1.1-.1h-1.3v4.7Z"/>
      <path class="st4" d="M116.7,298.2c-.3.2-.6.4-.8.5-.3,0-.5.1-.8.1-.5,0-.9-.1-1.1-.4-.3-.2-.4-.5-.4-.9s0-.4.1-.6c.1-.2.2-.3.4-.4.2-.1.3-.2.5-.2.1,0,.4,0,.7-.1.6,0,1.1-.2,1.4-.3,0-.1,0-.2,0-.2,0-.3,0-.5-.2-.7-.2-.2-.5-.3-.9-.3s-.6,0-.8.2c-.2.1-.3.3-.4.7h-.7c0-.4.2-.7.3-.9.2-.2.4-.3.7-.5.3-.1.6-.2,1-.2s.7,0,.9.1.4.2.5.3c.1.1.2.3.2.5,0,.1,0,.4,0,.7v1c0,.7,0,1.2,0,1.3,0,.2,0,.4.2.5h-.8c0-.2-.1-.3-.2-.6ZM116.6,296.5c-.3.1-.7.2-1.2.3-.3,0-.5,0-.7.2-.1,0-.2.1-.3.2,0,.1-.1.2-.1.4,0,.2,0,.4.2.5s.4.2.7.2.6,0,.8-.2c.2-.1.4-.3.5-.5,0-.2.1-.4.1-.8v-.3Z"/>
      <path class="st4" d="M120.3,298v.7c-.1,0-.3,0-.5,0-.3,0-.5,0-.6-.1-.2,0-.3-.2-.3-.3,0-.1,0-.4,0-.9v-2.6h-.6v-.6h.6v-1.1l.8-.5v1.6h.8v.6h-.8v2.6c0,.2,0,.4,0,.4s0,.1.1.1c0,0,.1,0,.3,0s.2,0,.3,0Z"/>
      <path class="st4" d="M123.9,298.2c-.3.2-.6.4-.8.5-.3,0-.5.1-.8.1-.5,0-.9-.1-1.1-.4-.3-.2-.4-.5-.4-.9s0-.4.1-.6c.1-.2.2-.3.4-.4.2-.1.3-.2.5-.2.1,0,.4,0,.7-.1.6,0,1.1-.2,1.4-.3,0-.1,0-.2,0-.2,0-.3,0-.5-.2-.7-.2-.2-.5-.3-.9-.3s-.6,0-.8.2c-.2.1-.3.3-.4.7h-.7c0-.4.2-.7.3-.9.2-.2.4-.3.7-.5.3-.1.6-.2,1-.2s.7,0,.9.1.4.2.5.3c.1.1.2.3.2.5,0,.1,0,.4,0,.7v1c0,.7,0,1.2,0,1.3,0,.2,0,.4.2.5h-.8c0-.2-.1-.3-.2-.6ZM123.9,296.5c-.3.1-.7.2-1.2.3-.3,0-.5,0-.7.2-.1,0-.2.1-.3.2,0,.1-.1.2-.1.4,0,.2,0,.4.2.5s.4.2.7.2.6,0,.8-.2c.2-.1.4-.3.5-.5,0-.2.1-.4.1-.8v-.3Z"/>
    </g>
    <g>
      <path class="st4" d="M465,298.7v-6.2h2.1c.5,0,.8,0,1.1,0,.4,0,.7.2.9.4.3.3.6.6.7,1.1.2.4.2.9.2,1.5s0,.9-.2,1.2c-.1.4-.2.7-.4.9-.2.2-.4.4-.6.6-.2.1-.5.2-.7.3s-.6.1-1,.1h-2.2ZM465.8,298h1.3c.4,0,.7,0,1-.1.2,0,.4-.2.6-.3s.3-.5.5-.8c.1-.3.2-.7.2-1.2s-.1-1.1-.3-1.5c-.2-.3-.5-.6-.8-.7-.2,0-.6-.1-1.1-.1h-1.3v4.7Z"/>
      <path class="st4" d="M474,298.2c-.3.2-.6.4-.8.5-.3,0-.5.1-.8.1-.5,0-.9-.1-1.1-.4-.3-.2-.4-.5-.4-.9s0-.4.2-.6.2-.3.4-.4c.2-.1.3-.2.5-.2.1,0,.4,0,.7-.1.6,0,1.1-.2,1.4-.3,0-.1,0-.2,0-.2,0-.3,0-.5-.2-.7-.2-.2-.5-.3-.9-.3s-.6,0-.8.2-.3.3-.4.7h-.7c0-.4.2-.7.3-.9.2-.2.4-.3.7-.5.3-.1.6-.2,1-.2s.7,0,.9.1.4.2.5.3c.1.1.2.3.2.5,0,.1,0,.4,0,.7v1c0,.7,0,1.2,0,1.3,0,.2,0,.4.2.5h-.8c0-.2-.1-.3-.2-.6ZM474,296.5c-.3.1-.7.2-1.2.3-.3,0-.5,0-.7.2-.1,0-.2.1-.3.2,0,.1-.1.2-.1.4,0,.2,0,.4.2.5.2.1.4.2.7.2s.6,0,.8-.2c.2-.1.4-.3.5-.5,0-.2.1-.4.1-.8v-.3Z"/>
      <path class="st4" d="M477.6,298v.7c-.1,0-.3,0-.5,0-.3,0-.5,0-.6-.1-.2,0-.3-.2-.3-.3,0-.1,0-.4,0-.9v-2.6h-.6v-.6h.6v-1.1l.8-.5v1.6h.8v.6h-.8v2.6c0,.2,0,.4,0,.4s0,.1.1.1c0,0,.1,0,.3,0s.2,0,.3,0Z"/>
      <path class="st4" d="M481.3,298.2c-.3.2-.6.4-.8.5-.3,0-.5.1-.8.1-.5,0-.9-.1-1.1-.4-.3-.2-.4-.5-.4-.9s0-.4.2-.6.2-.3.4-.4c.2-.1.3-.2.5-.2.1,0,.4,0,.7-.1.6,0,1.1-.2,1.4-.3,0-.1,0-.2,0-.2,0-.3,0-.5-.2-.7-.2-.2-.5-.3-.9-.3s-.6,0-.8.2-.3.3-.4.7h-.7c0-.4.2-.7.3-.9.2-.2.4-.3.7-.5.3-.1.6-.2,1-.2s.7,0,.9.1.4.2.5.3c.1.1.2.3.2.5,0,.1,0,.4,0,.7v1c0,.7,0,1.2,0,1.3,0,.2,0,.4.2.5h-.8c0-.2-.1-.3-.2-.6ZM481.2,296.5c-.3.1-.7.2-1.2.3-.3,0-.5,0-.7.2-.1,0-.2.1-.3.2,0,.1-.1.2-.1.4,0,.2,0,.4.2.5.2.1.4.2.7.2s.6,0,.8-.2c.2-.1.4-.3.5-.5,0-.2.1-.4.1-.8v-.3Z"/>
    </g>
    <g>
      <path class="st4" d="M231.3,307l2.4-6.2h.9l2.5,6.2h-.9l-.7-1.9h-2.6l-.7,1.9h-.9ZM233.1,304.5h2.1l-.6-1.7c-.2-.5-.3-.9-.4-1.3,0,.4-.2.8-.3,1.2l-.7,1.8Z"/>
      <path class="st4" d="M237.4,305.4h.8c0,.3.2.6.4.8.2.2.5.3.8.3s.7-.1.9-.4.4-.6.4-1.1-.1-.8-.4-1c-.2-.3-.6-.4-1-.4s-.5,0-.7.2-.4.3-.5.4h-.7c0,0,.6-3.3.6-3.3h3.1v.7h-2.5l-.3,1.7c.4-.3.8-.4,1.2-.4s1,.2,1.4.6.6.9.6,1.4-.2,1-.5,1.5c-.4.5-.9.8-1.6.8s-1-.2-1.4-.5c-.4-.3-.6-.7-.6-1.3Z"/>
    </g>
    <g>
      <path class="st4" d="M231.3,323.5l2.4-6.2h.9l2.5,6.2h-.9l-.7-1.9h-2.6l-.7,1.9h-.9ZM233.1,320.9h2.1l-.6-1.7c-.2-.5-.3-.9-.4-1.3,0,.4-.2.8-.3,1.2l-.7,1.8Z"/>
      <path class="st4" d="M241.4,318.8h-.8c0-.2-.2-.5-.3-.6-.2-.2-.5-.3-.8-.3s-.5,0-.6.2c-.2.2-.4.4-.6.8-.1.3-.2.8-.2,1.4.2-.3.4-.5.7-.6s.5-.2.8-.2c.5,0,.9.2,1.3.6.4.4.5.9.5,1.4s0,.7-.3,1.1c-.2.3-.4.6-.7.8-.3.2-.6.3-1,.3-.6,0-1.1-.2-1.5-.7-.4-.5-.6-1.2-.6-2.3s.2-2.1.7-2.6c.4-.5.9-.7,1.6-.7s.9.1,1.2.4.5.6.6,1.1ZM238.3,321.5c0,.3,0,.5.2.8s.3.4.5.5.4.2.6.2c.3,0,.6-.1.8-.4s.3-.6.3-1.1-.1-.8-.3-1c-.2-.2-.5-.4-.9-.4s-.6.1-.9.4-.4.6-.4,1Z"/>
    </g>
    <g>
      <path class="st4" d="M231.4,339l2.4-6.2h.9l2.5,6.2h-.9l-.7-1.9h-2.6l-.7,1.9h-.9ZM233.2,336.5h2.1l-.6-1.7c-.2-.5-.3-.9-.4-1.3,0,.4-.2.8-.3,1.2l-.7,1.8Z"/>
      <path class="st4" d="M237.6,333.7v-.7h4v.6c-.4.4-.8,1-1.2,1.7-.4.7-.7,1.4-.9,2.1-.2.5-.2,1.1-.3,1.7h-.8c0-.5.1-1.1.3-1.8.2-.7.4-1.4.8-2,.3-.6.7-1.2,1.1-1.6h-3Z"/>
    </g>
    <g>
      <path class="st4" d="M231.4,354.6l2.4-6.2h.9l2.5,6.2h-.9l-.7-1.9h-2.6l-.7,1.9h-.9ZM233.2,352h2.1l-.6-1.7c-.2-.5-.3-.9-.4-1.3,0,.4-.2.8-.3,1.2l-.7,1.8Z"/>
      <path class="st4" d="M238.8,351.2c-.3-.1-.5-.3-.7-.5s-.2-.5-.2-.8c0-.4.2-.8.5-1.1s.8-.5,1.3-.5,1,.2,1.3.5c.3.3.5.7.5,1.1s0,.5-.2.7-.4.4-.7.5c.4.1.7.3.9.6s.3.6.3,1-.2,1-.6,1.3c-.4.4-.9.5-1.5.5s-1.1-.2-1.5-.5c-.4-.4-.6-.8-.6-1.4s.1-.7.3-1c.2-.3.5-.5.9-.6ZM238.4,352.8c0,.2,0,.4.2.6s.3.4.5.5c.2.1.4.2.7.2.4,0,.7-.1.9-.3.2-.2.4-.5.4-.9s-.1-.7-.4-.9c-.2-.2-.5-.4-.9-.4s-.7.1-.9.4c-.2.2-.4.5-.4.9ZM238.6,349.9c0,.3,0,.5.3.7s.4.3.7.3.5,0,.7-.3c.2-.2.3-.4.3-.7s0-.5-.3-.7-.4-.3-.7-.3-.5,0-.7.3c-.2.2-.3.4-.3.7Z"/>
    </g>
    <line class="st3" x1="141.1" y1="303.7" x2="216.7" y2="303.7"/>
    <polygon class="st5" points="216.2 301.6 222.7 303.7 216.2 306 216.2 301.6"/>
    <line class="st3" x1="141.1" y1="319.8" x2="216.7" y2="319.8"/>
    <polygon class="st5" points="216.2 317.6 222.7 319.8 216.2 321.9 216.2 317.6"/>
    <line class="st3" x1="141.1" y1="335.3" x2="216.7" y2="335.3"/>
    <polygon class="st5" points="216.2 333.2 222.7 335.3 216.2 337.5 216.2 333.2"/>
    <line class="st3" x1="141.1" y1="350.9" x2="216.7" y2="350.9"/>
    <polygon class="st5" points="216.2 348.7 222.7 350.9 216.2 353 216.2 348.7"/>
    <g>
      <path class="st4" d="M350.4,307v-6.2h2.3c.5,0,.9,0,1.1.2s.5.3.7.6c.2.3.2.5.2.8s0,.5-.2.7c-.1.2-.4.4-.6.6.4.1.7.3.9.6.2.3.3.6.3.9s0,.6-.2.8c-.1.2-.3.4-.5.6-.2.1-.4.2-.7.3-.3,0-.6.1-1,.1h-2.4ZM351.2,303.4h1.3c.4,0,.6,0,.8,0,.2,0,.4-.2.5-.3s.2-.3.2-.5,0-.4-.1-.5-.2-.3-.4-.3c-.2,0-.5,0-.9,0h-1.2v1.9ZM351.2,306.3h1.5c.3,0,.4,0,.6,0,.2,0,.3,0,.5-.2.1,0,.2-.2.3-.3,0-.1.1-.3.1-.5s0-.4-.2-.6-.3-.3-.5-.4c-.2,0-.5-.1-.9-.1h-1.4v2.1Z"/>
      <path class="st4" d="M355.9,305.4h.8c0,.3.2.6.4.8s.5.3.8.3.7-.1.9-.4.4-.6.4-1.1-.1-.8-.4-1c-.2-.3-.6-.4-1-.4s-.5,0-.7.2c-.2.1-.4.3-.5.4h-.7c0,0,.6-3.3.6-3.3h3.1v.7h-2.5l-.3,1.7c.4-.3.8-.4,1.2-.4s1,.2,1.4.6.6.9.6,1.4-.2,1-.5,1.5c-.4.5-.9.8-1.6.8s-1-.2-1.4-.5c-.4-.3-.6-.7-.6-1.3Z"/>
    </g>
    <g>
      <path class="st4" d="M350.4,323.5v-6.2h2.3c.5,0,.9,0,1.1.2s.5.3.7.6c.2.3.2.5.2.8s0,.5-.2.7c-.1.2-.4.4-.6.6.4.1.7.3.9.6.2.3.3.6.3.9s0,.6-.2.8c-.1.2-.3.4-.5.6-.2.1-.4.2-.7.3-.3,0-.6.1-1,.1h-2.4ZM351.2,319.9h1.3c.4,0,.6,0,.8,0,.2,0,.4-.2.5-.3s.2-.3.2-.5,0-.4-.1-.5-.2-.3-.4-.3c-.2,0-.5,0-.9,0h-1.2v1.9ZM351.2,322.8h1.5c.3,0,.4,0,.6,0,.2,0,.3,0,.5-.2.1,0,.2-.2.3-.3,0-.1.1-.3.1-.5s0-.4-.2-.6-.3-.3-.5-.4c-.2,0-.5-.1-.9-.1h-1.4v2.1Z"/>
      <path class="st4" d="M359.9,318.8h-.8c0-.2-.2-.5-.3-.6-.2-.2-.5-.3-.8-.3s-.5,0-.6.2c-.2.2-.4.4-.6.8-.1.3-.2.8-.2,1.4.2-.3.4-.5.7-.6.3-.1.5-.2.8-.2.5,0,.9.2,1.3.6.4.4.5.9.5,1.4s0,.7-.3,1.1-.4.6-.7.8c-.3.2-.6.3-1,.3-.6,0-1.1-.2-1.5-.7-.4-.5-.6-1.2-.6-2.3s.2-2.1.7-2.6c.4-.5.9-.7,1.6-.7s.9.1,1.2.4.5.6.6,1.1ZM356.8,321.5c0,.3,0,.5.2.8.1.2.3.4.5.5.2.1.4.2.6.2.3,0,.6-.1.8-.4s.3-.6.3-1.1-.1-.8-.3-1-.5-.4-.9-.4-.6.1-.9.4c-.2.2-.4.6-.4,1Z"/>
    </g>
    <g>
      <path class="st4" d="M350.5,339v-6.2h2.3c.5,0,.9,0,1.1.2s.5.3.7.6c.2.3.2.5.2.8s0,.5-.2.7c-.1.2-.4.4-.6.6.4.1.7.3.9.6.2.3.3.6.3.9s0,.6-.2.8c-.1.2-.3.4-.5.6-.2.1-.4.2-.7.3-.3,0-.6.1-1,.1h-2.4ZM351.3,335.4h1.3c.4,0,.6,0,.8,0,.2,0,.4-.2.5-.3s.2-.3.2-.5,0-.4-.1-.5-.2-.3-.4-.3c-.2,0-.5,0-.9,0h-1.2v1.9ZM351.3,338.3h1.5c.3,0,.4,0,.6,0,.2,0,.3,0,.5-.2.1,0,.2-.2.3-.3,0-.1.1-.3.1-.5s0-.4-.2-.6-.3-.3-.5-.4c-.2,0-.5-.1-.9-.1h-1.4v2.1Z"/>
      <path class="st4" d="M356.1,333.7v-.7h4v.6c-.4.4-.8,1-1.2,1.7-.4.7-.7,1.4-.9,2.1-.2.5-.2,1.1-.3,1.7h-.8c0-.5.1-1.1.3-1.8.2-.7.4-1.4.8-2,.3-.6.7-1.2,1.1-1.6h-3Z"/>
    </g>
    <g>
      <path class="st4" d="M350.5,354.6v-6.2h2.3c.5,0,.9,0,1.1.2s.5.3.7.6c.2.3.2.5.2.8s0,.5-.2.7c-.1.2-.4.4-.6.6.4.1.7.3.9.6.2.3.3.6.3.9s0,.6-.2.8c-.1.2-.3.4-.5.6-.2.1-.4.2-.7.3-.3,0-.6.1-1,.1h-2.4ZM351.3,351h1.3c.4,0,.6,0,.8,0,.2,0,.4-.2.5-.3s.2-.3.2-.5,0-.4-.1-.5-.2-.3-.4-.3c-.2,0-.5,0-.9,0h-1.2v1.9ZM351.3,353.8h1.5c.3,0,.4,0,.6,0,.2,0,.3,0,.5-.2.1,0,.2-.2.3-.3,0-.1.1-.3.1-.5s0-.4-.2-.6-.3-.3-.5-.4c-.2,0-.5-.1-.9-.1h-1.4v2.1Z"/>
      <path class="st4" d="M357.2,351.2c-.3-.1-.5-.3-.7-.5-.2-.2-.2-.5-.2-.8,0-.4.2-.8.5-1.1s.8-.5,1.3-.5,1,.2,1.3.5c.3.3.5.7.5,1.1s0,.5-.2.7-.4.4-.7.5c.4.1.7.3.9.6s.3.6.3,1-.2,1-.6,1.3c-.4.4-.9.5-1.5.5s-1.1-.2-1.5-.5c-.4-.4-.6-.8-.6-1.4s.1-.7.3-1c.2-.3.5-.5.9-.6ZM356.8,352.8c0,.2,0,.4.2.6.1.2.3.4.5.5.2.1.4.2.7.2.4,0,.7-.1.9-.3.2-.2.4-.5.4-.9s-.1-.7-.4-.9c-.2-.2-.5-.4-.9-.4s-.7.1-.9.4c-.2.2-.4.5-.4.9ZM357,349.9c0,.3,0,.5.3.7.2.2.4.3.7.3s.5,0,.7-.3c.2-.2.3-.4.3-.7s0-.5-.3-.7-.4-.3-.7-.3-.5,0-.7.3-.3.4-.3.7Z"/>
    </g>
    <line class="st3" x1="370.3" y1="303.7" x2="445.9" y2="303.7"/>
    <polygon class="st5" points="445.4 301.6 452 303.7 445.4 306 445.4 301.6"/>
    <line class="st3" x1="370.3" y1="319.8" x2="445.9" y2="319.8"/>
    <polygon class="st5" points="445.4 317.6 452 319.8 445.4 322 445.4 317.6"/>
    <line class="st3" x1="370.3" y1="335.3" x2="445.9" y2="335.3"/>
    <polygon class="st5" points="445.4 333.2 452 335.3 445.4 337.5 445.4 333.2"/>
    <line class="st3" x1="370.3" y1="350.9" x2="445.9" y2="350.9"/>
    <polygon class="st5" points="445.4 348.7 452 350.9 445.4 353 445.4 348.7"/>
    <line class="st2" x1="232.2" y1="154.1" x2="242.9" y2="154.1"/>
    <line class="st3" x1="140.8" y1="138.5" x2="216.4" y2="138.5"/>
    <polygon class="st5" points="215.9 136.3 222.3 138.5 215.9 140.7 215.9 136.3"/>
    <line class="st3" x1="179.6" y1="138.5" x2="222.3" y2="138.5"/>
  </g>
</svg>